CourierBadi-RegularContrast.ufo
<glyph name="exclam" format="2">
  <advance width="1228"/>
  <unicode hex="0021"/>
  <outline>
    <contour>
      <point x="549.0" y="1255.0" type="line" smooth="yes"/>
      <point x="510.6104778775084" y="1255.7488573655005"/>
      <point x="479.60724386566767" y="1250.9919350425482"/>
      <point x="482.06119845106184" y="1219.959999186499" type="curve" smooth="yes"/>
      <point x="530.0594673607927" y="512.9463400483346" type="line" smooth="yes"/>
      <point x="534.7448930340022" y="487.2609903369994"/>
      <point x="572.4474783057839" y="477.3963280729988"/>
      <point x="614.0" y="478.0" type="curve" smooth="yes"/>
      <point x="656.6779630420808" y="477.3756369737606"/>
      <point x="692.6356853952514" y="486.833165946905"/>
      <point x="696.9381387254257" y="512.965177769958" type="curve" smooth="yes"/>
      <point x="745.9363869678343" y="1219.9787315836918" type="line" smooth="yes"/>
      <point x="748.3927561343323" y="1250.9919350425482"/>
      <point x="717.3895221224916" y="1255.7488573655005"/>
      <point x="679.0" y="1255.0" type="curve" smooth="yes"/>
    </contour>
    <contour>
      <point x="463.0" y="207.0" type="curve" smooth="yes"/>
      <point x="463.0" y="53.0" type="line" smooth="yes"/>
      <point x="466.580567627155" y="15.089905964062087"/>
      <point x="522.2942243437276" y="3.857067090762417"/>
      <point x="614.0" y="4.0" type="curve" smooth="yes"/>
      <point x="705.7057756562724" y="3.857067090762417"/>
      <point x="761.419432372845" y="15.089905964062087"/>
      <point x="765.0" y="53.0" type="curve" smooth="yes"/>
      <point x="765.0" y="207.0" type="line" smooth="yes"/>
      <point x="761.419432372845" y="244.9100940359379"/>
      <point x="705.7057756562724" y="256.1429329092376"/>
      <point x="614.0" y="256.0" type="curve" smooth="yes"/>
      <point x="522.2942243437276" y="256.1429329092376"/>
      <point x="466.580567627155" y="244.9100940359379"/>
    </contour>
  </outline>
</glyph>
<glyph name="numbersign" format="2">
  <advance width="1228"/>
  <unicode hex="0023"/>
  <outline>
    <contour>
      <point x="870.8366791498646" y="1172.4769928577084" type="curve" smooth="yes"/>
      <point x="797.6643508021028" y="854.6421366948889" type="line"/>
      <point x="575.4660294296914" y="857.1049422064009" type="line"/>
      <point x="651.162130124546" y="1145.5254721217889" type="line" smooth="yes"/>
      <point x="660.5966254779142" y="1178.1211621943658"/>
      <point x="602.6677818781741" y="1195.6226697694624"/>
      <point x="556.0" y="1195.0" type="curve" smooth="yes"/>
      <point x="526.697189393088" y="1195.2942741236736"/>
      <point x="488.76155809170547" y="1189.5825808840516"/>
      <point x="476.8366791498646" y="1172.4769928577084" type="curve" smooth="yes"/>
      <point x="402.7125080619567" y="855.1324902576899" type="line"/>
      <point x="193.0" y="851.0" type="line" smooth="yes"/>
      <point x="140.13294255690218" y="851.6562602599764"/>
      <point x="104.77629499622137" y="841.6045012494914"/>
      <point x="104.0" y="793.0" type="curve" smooth="yes"/>
      <point x="104.77629499622137" y="744.3954987505086"/>
      <point x="140.13294255690218" y="734.3437397400236"/>
      <point x="193.0" y="735.0" type="curve" smooth="yes"/>
      <point x="360.64253775349914" y="727.4444444145132" type="line"/>
      <point x="302.23259350796894" y="465.797636811095" type="line"/>
      <point x="123.0" y="462.0" type="line" smooth="yes"/>
      <point x="70.13294255690218" y="462.6562602599764"/>
      <point x="34.77629499622137" y="452.60450124949136"/>
      <point x="34.0" y="404.0" type="curve" smooth="yes"/>
      <point x="34.77629499622137" y="355.39549875050864"/>
      <point x="70.13294255690218" y="345.3437397400236"/>
      <point x="123.0" y="346.0" type="curve" smooth="yes"/>
      <point x="257.67513979501325" y="335.97564408875917" type="line"/>
      <point x="182.8378215916482" y="41.47462779709175" type="line" smooth="yes"/>
      <point x="173.4033745220857" y="8.878837805634216"/>
      <point x="231.3322181218259" y="-8.622669769462405"/>
      <point x="278.0" y="-8.0" type="curve" smooth="yes"/>
      <point x="307.30281060691203" y="-8.294274123673528"/>
      <point x="345.23844190829453" y="-2.582580884051625"/>
      <point x="357.16333239750634" y="14.522983228497003" type="curve" smooth="yes"/>
      <point x="433.164606569989" y="342.2441276281871" type="line"/>
      <point x="654.8055075906364" y="339.63003924276813" type="line"/>
      <point x="576.8378221604413" y="41.474626620009374" type="line" smooth="yes"/>
      <point x="567.4033745220858" y="8.878837805634216"/>
      <point x="625.3322181218259" y="-8.622669769462405"/>
      <point x="672.0" y="-8.0" type="curve" smooth="yes"/>
      <point x="701.302810606912" y="-8.294274123673528"/>
      <point x="739.2384419082946" y="-2.582580884051625"/>
      <point x="751.163331853834" y="14.522984354408006" type="curve" smooth="yes"/>
      <point x="828.1745579822182" y="341.7091719869808" type="line"/>
      <point x="1035.0" y="346.0" type="line" smooth="yes"/>
      <point x="1087.8670574430978" y="345.3437397400236"/>
      <point x="1123.2237050037786" y="355.39549875050864"/>
      <point x="1124.0" y="404.0" type="curve" smooth="yes"/>
      <point x="1123.2237050037786" y="452.60450124949136"/>
      <point x="1087.8670574430978" y="462.6562602599764"/>
      <point x="1035.0" y="462.0" type="curve" smooth="yes"/>
      <point x="870.0566140460429" y="469.6601574347964" type="line"/>
      <point x="928.461412087875" y="731.154282383322" type="line"/>
      <point x="1105.0" y="735.0" type="line" smooth="yes"/>
      <point x="1157.8670574430978" y="734.3437397400236"/>
      <point x="1193.2237050037786" y="744.3954987505086"/>
      <point x="1194.0" y="793.0" type="curve" smooth="yes"/>
      <point x="1193.2237050037786" y="841.6045012494914"/>
      <point x="1157.8670574430978" y="851.6562602599764"/>
      <point x="1105.0" y="851.0" type="curve" smooth="yes"/>
      <point x="972.8507574933501" y="860.892985228157" type="line"/>
      <point x="1045.162130124546" y="1145.5254721217889" type="line" smooth="yes"/>
      <point x="1054.5966254779144" y="1178.1211621943658"/>
      <point x="996.6677818781741" y="1195.6226697694624"/>
      <point x="950.0" y="1195.0" type="curve" smooth="yes"/>
      <point x="920.697189393088" y="1195.2942741236736"/>
      <point x="882.7615580917054" y="1189.5825808840516"/>
    </contour>
    <contour>
      <point x="532.2180196182189" y="732.177441789845" type="line"/>
      <point x="757.4811090080934" y="729.785680463285" type="line"/>
      <point x="698.3814066513123" y="464.8225582101549" type="line"/>
      <point x="473.118347779016" y="467.21431953671504" type="line"/>
    </contour>
  </outline>
</glyph>
<glyph name="dollar" format="2">
  <advance width="1228"/>
  <unicode hex="0024"/>
  <outline>
    <contour>
      <point x="159.0" y="817.0" type="curve" smooth="yes"/>
      <point x="160.38710244269626" y="698.5116931692603"/>
      <point x="234.6428245225426" y="640.6719722207383"/>
      <point x="329.0588533891162" y="604.9362356539065" type="curve" smooth="yes"/>
      <point x="477.3850263719952" y="546.8640197381723"/>
      <point x="685.3654815782799" y="556.9279435441987"/>
      <point x="796.0246597711339" y="513.13938028697" type="curve" smooth="yes"/>
      <point x="849.1265542078626" y="491.1634444276944"/>
      <point x="873.8231343810248" y="452.15010155197103"/>
      <point x="872.0" y="388.0" type="curve" smooth="yes"/>
      <point x="874.7448930340022" y="282.7390096630006"/>
      <point x="807.3547351018333" y="206.46499557530592"/>
      <point x="637.0" y="206.0" type="curve" smooth="yes"/>
      <point x="509.57948731336785" y="206.13331089928215"/>
      <point x="387.99268469283425" y="243.07528252655618"/>
      <point x="286.13163955841117" y="304.9168457812088" type="curve" smooth="yes"/>
      <point x="249.30592625094465" y="321.41800499796534"/>
      <point x="194.95247516480995" y="321.92217986411043"/>
      <point x="163.7448930340022" y="274.7390096630006" type="curve" smooth="yes"/>
      <point x="137.328524279347" y="229.78147740685714"/>
      <point x="154.90892622483807" y="209.50397431767857"/>
      <point x="199.23315378061926" y="191.19597718207044" type="curve" smooth="yes"/>
      <point x="298.6085722161874" y="136.94184654888642"/>
      <point x="414.278310264704" y="105.00195143080536"/>
      <point x="514.4925519030667" y="85.22813949292969" type="curve"/>
      <point x="512.0" y="-160.0" type="line" smooth="yes"/>
      <point x="513.2591658851991" y="-201.69597323683345"/>
      <point x="552.1892835764611" y="-211.4888621557325"/>
      <point x="608.0" y="-211.0" type="curve" smooth="yes"/>
      <point x="663.8107164235389" y="-211.4888621557325"/>
      <point x="702.7408341148009" y="-201.69597323683345"/>
      <point x="704.0" y="-160.0" type="curve" smooth="yes"/>
      <point x="696.2882581517471" y="84.64627844844271" type="line"/>
      <point x="934.3680237631951" y="98.17642010577083"/>
      <point x="1075.9952044012275" y="214.40835620043677"/>
      <point x="1078.0" y="388.0" type="curve" smooth="yes"/>
      <point x="1076.4983962629228" y="524.3110980539429"/>
      <point x="990.6895433821583" y="587.0977293953289"/>
      <point x="885.2680480080448" y="624.9196698963383" type="curve" smooth="yes"/>
      <point x="731.3785175934803" y="680.1186994528746"/>
      <point x="527.5706753789168" y="670.0685979465155"/>
      <point x="425.1461957809085" y="711.8948250805496" type="curve" smooth="yes"/>
      <point x="381.118768501664" y="730.9127927822275"/>
      <point x="363.2074826498314" y="764.8917682142247"/>
      <point x="365.0" y="817.0" type="curve" smooth="yes"/>
      <point x="361.71451354522446" y="925.812142329045"/>
      <point x="433.07590357613043" y="988.612360896523"/>
      <point x="572.0" y="989.0" type="curve" smooth="yes"/>
      <point x="691.669336178203" y="988.8846531529003"/>
      <point x="802.5339179087421" y="957.0391470666701"/>
      <point x="902.7647058823529" y="901.3529411764706" type="curve" smooth="yes"/>
      <point x="941.6644140482705" y="885.7020372961574"/>
      <point x="995.883628395054" y="885.6233875474794"/>
      <point x="1023.7012556791149" y="933.7555085434955" type="curve" smooth="yes"/>
      <point x="1048.7691725839436" y="979.8613755055944"/>
      <point x="1029.7416596874482" y="1000.296477972475"/>
      <point x="985.0375952840586" y="1017.5908702513498" type="curve" smooth="yes"/>
      <point x="892.4585210755215" y="1063.8319492433288"/>
      <point x="787.8018619038405" y="1090.6072469404585"/>
      <point x="701.861448569039" y="1109.8150821002532" type="curve"/>
      <point x="704.0" y="1347.0" type="line" smooth="yes"/>
      <point x="702.7408341148009" y="1388.6959732368334"/>
      <point x="663.8107164235389" y="1398.4888621557325"/>
      <point x="608.0" y="1398.0" type="curve" smooth="yes"/>
      <point x="552.1892835764611" y="1398.4888621557325"/>
      <point x="513.2591658851991" y="1388.6959732368334"/>
      <point x="512.0" y="1347.0" type="curve" smooth="yes"/>
      <point x="518.3557991242192" y="1111.150564076843" type="line"/>
      <point x="325.2648632255904" y="1097.6543107357422"/>
      <point x="161.7880816080766" y="998.6269783843869"/>
    </contour>
  </outline>
</glyph>
<glyph name="percent" format="2">
  <advance width="1228"/>
  <unicode hex="0025"/>
  <outline>
    <contour>
      <point x="604.0" y="252.0" type="curve" smooth="yes"/>
      <point x="606.2803320341125" y="106.73347392437651"/>
      <point x="742.3521198547294" y="-9.227871095291336"/>
      <point x="904.0" y="-8.0" type="curve" smooth="yes"/>
      <point x="1065.6478801452706" y="-9.227871095291336"/>
      <point x="1201.7196679658875" y="106.73347392437651"/>
      <point x="1204.0" y="252.0" type="curve" smooth="yes"/>
      <point x="1201.7196679658875" y="397.26652607562346"/>
      <point x="1065.6478801452706" y="513.2278710952913"/>
      <point x="904.0" y="512.0" type="curve" smooth="yes"/>
      <point x="742.3521198547294" y="513.2278710952913"/>
      <point x="606.2803320341125" y="397.26652607562346"/>
    </contour>
    <contour>
      <point x="24.0" y="935.0" type="curve" smooth="yes"/>
      <point x="26.280332034112483" y="789.7334739243765"/>
      <point x="162.35211985472932" y="673.7721289047087"/>
      <point x="324.0" y="675.0" type="curve" smooth="yes"/>
      <point x="485.6478801452707" y="673.7721289047087"/>
      <point x="621.7196679658875" y="789.7334739243765"/>
      <point x="624.0" y="935.0" type="curve" smooth="yes"/>
      <point x="621.7196679658875" y="1080.2665260756235"/>
      <point x="485.6478801452707" y="1196.2278710952914"/>
      <point x="324.0" y="1195.0" type="curve" smooth="yes"/>
      <point x="162.35211985472932" y="1196.2278710952914"/>
      <point x="26.280332034112483" y="1080.2665260756235"/>
    </contour>
    <contour>
      <point x="111.09961835999067" y="218.84637514228365" type="line" smooth="yes"/>
      <point x="72.74489303400219" y="191.7390096630006"/>
      <point x="75.03899129410732" y="173.56817316346448"/>
      <point x="111.19275585226713" y="143.666660453555" type="curve" smooth="yes"/>
      <point x="147.9444765479509" y="113.10704525254125"/>
      <point x="202.4212896845124" y="110.82620268863064"/>
      <point x="242.90038164000933" y="139.15362485771635" type="curve" smooth="yes"/>
      <point x="1116.9003816400093" y="969.1536248577164" type="line" smooth="yes"/>
      <point x="1155.2551069659978" y="996.2609903369994"/>
      <point x="1152.9610087058927" y="1014.4318268365355"/>
      <point x="1116.807244147733" y="1044.333339546445" type="curve" smooth="yes"/>
      <point x="1080.055523452049" y="1074.8929547474588"/>
      <point x="1025.5787103154876" y="1077.1737973113693"/>
      <point x="985.0996183599907" y="1048.8463751422837" type="curve" smooth="yes"/>
    </contour>
    <contour>
      <point x="1022.0" y="252.0" type="curve" smooth="yes"/>
      <point x="1024.3023735175566" y="167.24016022996165"/>
      <point x="972.303154712786" y="95.23973958637659"/>
      <point x="904.0" y="94.0" type="curve" smooth="yes"/>
      <point x="835.696845287214" y="95.23973958637659"/>
      <point x="783.6976264824435" y="167.24016022996165"/>
      <point x="786.0" y="252.0" type="curve" smooth="yes"/>
      <point x="783.6976264824435" y="336.75983977003835"/>
      <point x="835.696845287214" y="408.7602604136234"/>
      <point x="904.0" y="410.0" type="curve" smooth="yes"/>
      <point x="972.303154712786" y="408.7602604136234"/>
      <point x="1024.3023735175566" y="336.75983977003835"/>
    </contour>
    <contour>
      <point x="442.0" y="935.0" type="curve" smooth="yes"/>
      <point x="444.30237351755653" y="850.2401602299617"/>
      <point x="392.30315471278595" y="778.2397395863766"/>
      <point x="324.0" y="777.0" type="curve" smooth="yes"/>
      <point x="255.69684528721407" y="778.2397395863766"/>
      <point x="203.69762648244347" y="850.2401602299617"/>
      <point x="206.0" y="935.0" type="curve" smooth="yes"/>
      <point x="203.69762648244347" y="1019.7598397700383"/>
      <point x="255.69684528721407" y="1091.7602604136234"/>
      <point x="324.0" y="1093.0" type="curve" smooth="yes"/>
      <point x="392.30315471278595" y="1091.7602604136234"/>
      <point x="444.30237351755653" y="1019.7598397700383"/>
    </contour>
  </outline>
</glyph>
<glyph name="ampersand" format="2">
  <advance width="1228"/>
  <unicode hex="0026"/>
  <outline>
    <contour>
      <point x="238.0" y="920.0" type="curve" smooth="yes"/>
      <point x="238.41707793809678" y="817.3844637908436"/>
      <point x="275.1012620935104" y="742.9504459630307"/>
      <point x="331.50182184986977" y="656.6599463700143" type="curve"/>
      <point x="220.90045542117957" y="566.5283258117266"/>
      <point x="132.2278483749728" y="468.24367062832926"/>
      <point x="131.0" y="320.0" type="curve" smooth="yes"/>
      <point x="132.7202289853899" y="141.00777103472728"/>
      <point x="277.5265746436617" y="-9.186115910185897"/>
      <point x="516.0" y="-8.0" type="curve" smooth="yes"/>
      <point x="651.222379367358" y="-8.442714343875398"/>
      <point x="765.7492470152647" y="48.78278983247617"/>
      <point x="829.2417879063144" y="149.76368931397076" type="curve"/>
      <point x="934.8264526251104" y="13.455713958343573" type="line" smooth="yes"/>
      <point x="967.6734046010896" y="-11.673404601089546"/>
      <point x="1014.5415362484731" y="-10.777044846113773"/>
      <point x="1061.711276427983" y="12.2127949994347" type="curve" smooth="yes"/>
      <point x="1115.549652175845" y="36.80991220837956"/>
      <point x="1128.2966811081533" y="51.01606541371217"/>
      <point x="1092.20324256913" y="80.56177410277027" type="curve" smooth="yes"/>
      <point x="943.4033543349284" y="253.73303531526312" type="line"/>
      <point x="997.669659322564" y="360.7388033986931"/>
      <point x="1042.7343833939294" y="473.5499290703663"/>
      <point x="1078.0011514778282" y="594.84321334853" type="curve" smooth="yes"/>
      <point x="1091.9392266945094" y="637.956662733728"/>
      <point x="1070.165080730895" y="651.6269691711411"/>
      <point x="1001.8347891504459" y="659.15311428934" type="curve" smooth="yes"/>
      <point x="944.0" y="667.0"/>
      <point x="899.4923660268495" y="665.1336375018375"/>
      <point x="882.9400216276249" y="624.2695268041094" type="curve" smooth="yes"/>
      <point x="858.7068001512938" y="533.4855524975887"/>
      <point x="829.1272079613528" y="443.78451149384273"/>
      <point x="830.8033605835354" y="361.03687439628465" type="curve"/>
      <point x="536.2231990510863" y="689.5735603193726" type="line" smooth="yes"/>
      <point x="474.8563169934285" y="760.640585496561"/>
      <point x="443.2911633402845" y="828.7532485166828"/>
      <point x="444.0" y="920.0" type="curve" smooth="yes"/>
      <point x="442.43817692834347" y="1032.779145966469"/>
      <point x="502.0079801481927" y="1133.6833054974627"/>
      <point x="617.0" y="1135.0" type="curve" smooth="yes"/>
      <point x="696.8549443147491" y="1134.8209401102893"/>
      <point x="766.5660970608052" y="1107.573576904965"/>
      <point x="831.6812196292099" y="1061.6856392689501" type="curve" smooth="yes"/>
      <point x="867.1508156779455" y="1044.3467911549103"/>
      <point x="922.9764301738061" y="1041.6037394624082"/>
      <point x="955.9285960181112" y="1087.6009210166383" type="curve" smooth="yes"/>
      <point x="985.3502982973056" y="1135.110163179611"/>
      <point x="970.3256478024264" y="1150.6344937572858"/>
      <point x="928.7474383779477" y="1170.1170927380897" type="curve" smooth="yes"/>
      <point x="840.0158128314367" y="1223.3186663956405"/>
      <point x="733.0175126390972" y="1255.1681441306607"/>
      <point x="618.0" y="1255.0" type="curve" smooth="yes"/>
      <point x="390.68491550059065" y="1256.1489294170256"/>
      <point x="239.7979333552204" y="1110.8843328383637"/>
    </contour>
    <contour>
      <point x="712.5381876804443" y="250.93533431086854" type="line"/>
      <point x="658.4141560524901" y="160.97847489077063"/>
      <point x="596.6341021059453" y="112.5329162283218"/>
      <point x="516.0" y="112.0" type="curve" smooth="yes"/>
      <point x="405.2460190907539" y="112.91515049779898"/>
      <point x="334.81445257403567" y="198.38160218812402"/>
      <point x="337.0" y="320.0" type="curve" smooth="yes"/>
      <point x="336.0177443416229" y="421.61332205572364"/>
      <point x="376.17346313523126" y="496.09002016463455"/>
      <point x="436.99249208578533" y="566.5465592327358" type="curve"/>
    </contour>
  </outline>
</glyph>
<glyph name="quotesingle" format="2">
  <advance width="1228"/>
  <unicode hex="0027"/>
  <outline>
    <contour>
      <point x="532.0" y="1255.0" type="line" smooth="yes"/>
      <point x="493.7780780835622" y="1255.7184338272928"/>
      <point x="461.60724386566767" y="1250.9919350425482"/>
      <point x="465.1902725225868" y="1220.6906292542699" type="curve" smooth="yes"/>
      <point x="520.1910509309931" y="770.6940711960426" type="line" smooth="yes"/>
      <point x="527.0941448382288" y="741.6237729313954"/>
      <point x="567.2448501784654" y="728.3627196924904"/>
      <point x="614.0" y="729.0" type="curve" smooth="yes"/>
      <point x="661.7551498215346" y="728.3627196924904"/>
      <point x="701.0816178176722" y="741.44444030237"/>
      <point x="707.8089490690069" y="770.6940711960426" type="curve" smooth="yes"/>
      <point x="762.8097274774132" y="1220.6906292542699" type="line" smooth="yes"/>
      <point x="766.3927561343323" y="1250.9919350425482"/>
      <point x="734.2219219164377" y="1255.7184338272928"/>
      <point x="696.0" y="1255.0" type="curve" smooth="yes"/>
    </contour>
  </outline>
</glyph>
<glyph name="parenleft" format="2">
  <advance width="1228"/>
  <unicode hex="0028"/>
  <outline>
    <contour>
      <point x="271.0" y="517.0" type="curve" smooth="yes"/>
      <point x="272.43848472989555" y="98.59216364558577"/>
      <point x="529.5084874565135" y="-192.6418278387849"/>
      <point x="757.6750552441152" y="-324.9783610989955" type="curve" smooth="yes"/>
      <point x="801.7586747291566" y="-340.03206417035256"/>
      <point x="848.9331998100129" y="-323.4048942139301"/>
      <point x="870.2948160685262" y="-295.7970594240146" type="curve" smooth="yes"/>
      <point x="890.4449562411023" y="-268.2309171213011"/>
      <point x="898.1377833763879" y="-237.57547571971844"/>
      <point x="866.2845628477967" y="-231.6977750243976" type="curve" smooth="yes"/>
      <point x="671.3852085562445" y="-100.40993257182441"/>
      <point x="469.5835685049729" y="141.44217960679566"/>
      <point x="471.0" y="517.0" type="curve" smooth="yes"/>
      <point x="469.6005880894266" y="892.5311167537242"/>
      <point x="671.4894926439041" y="1138.3591610275432"/>
      <point x="866.2845628477967" y="1269.6977750243975" type="curve" smooth="yes"/>
      <point x="898.1377833763879" y="1275.5754757197185"/>
      <point x="890.4449562411023" y="1306.230917121301"/>
      <point x="870.2948160685262" y="1333.7970594240146" type="curve" smooth="yes"/>
      <point x="848.9331998100129" y="1361.4048942139302"/>
      <point x="801.7586747291566" y="1378.0320641703524"/>
      <point x="757.6750552441152" y="1362.9783610989955" type="curve" smooth="yes"/>
      <point x="529.4201823042714" y="1230.685263463408"/>
      <point x="272.423912023006" y="935.4304978793307"/>
    </contour>
  </outline>
</glyph>
<glyph name="parenright" format="2">
  <advance width="1228"/>
  <unicode hex="0029"/>
  <outline>
    <contour>
      <point x="357.70518393147387" y="1333.7970594240146" type="curve" smooth="yes"/>
      <point x="337.5550437588976" y="1306.230917121301"/>
      <point x="329.86221662361214" y="1275.5754757197185"/>
      <point x="361.7154371522033" y="1269.6977750243975" type="curve" smooth="yes"/>
      <point x="556.5105073560959" y="1138.3591610275432"/>
      <point x="758.3994119105733" y="892.5311167537242"/>
      <point x="757.0" y="517.0" type="curve" smooth="yes"/>
      <point x="758.416431495027" y="141.44217960679566"/>
      <point x="556.6147914437555" y="-100.40993257182441"/>
      <point x="361.7154371522033" y="-231.6977750243976" type="curve" smooth="yes"/>
      <point x="329.86221662361214" y="-237.57547571971844"/>
      <point x="337.5550437588976" y="-268.2309171213011"/>
      <point x="357.70518393147387" y="-295.7970594240146" type="curve" smooth="yes"/>
      <point x="379.06680018998713" y="-323.4048942139301"/>
      <point x="426.2413252708434" y="-340.03206417035256"/>
      <point x="470.3249447558847" y="-324.9783610989955" type="curve" smooth="yes"/>
      <point x="698.4915125434865" y="-192.6418278387849"/>
      <point x="955.5615152701045" y="98.59216364558577"/>
      <point x="957.0" y="517.0" type="curve" smooth="yes"/>
      <point x="955.576087976994" y="935.4304978793307"/>
      <point x="698.5798176957286" y="1230.685263463408"/>
      <point x="470.3249447558847" y="1362.9783610989955" type="curve" smooth="yes"/>
      <point x="426.2413252708434" y="1378.0320641703524"/>
      <point x="379.06680018998713" y="1361.4048942139302"/>
    </contour>
  </outline>
</glyph>
<glyph name="asterisk" format="2">
  <advance width="1228"/>
  <unicode hex="002A"/>
  <outline>
    <contour>
      <point x="1055.2426648509443" y="660.7124330914903" type="line" smooth="yes"/>
      <point x="1121.9420525853575" y="671.8169818921476"/>
      <point x="1160.9424141042718" y="701.9312661473328"/>
      <point x="1139.7607807528952" y="760.7293605312013" type="curve" smooth="yes"/>
      <point x="1114.3503419181343" y="820.2865079090102"/>
      <point x="1047.6885402312632" y="834.0178212348519"/>
      <point x="984.2421119697124" y="811.2546273831025" type="curve" smooth="yes"/>
      <point x="680.2747020888943" y="662.1545196931304" type="line"/>
      <point x="732.8292416449898" y="1031.6018914969488" type="line" smooth="yes"/>
      <point x="738.1134935000272" y="1085.375372072161"/>
      <point x="690.3170240107121" y="1113.9297618635153"/>
      <point x="614.0" y="1113.0" type="curve" smooth="yes"/>
      <point x="537.7643382237871" y="1113.9130298717632"/>
      <point x="488.8865064999729" y="1085.375372072161"/>
      <point x="495.1727317349423" y="1031.6110904173797" type="curve" smooth="yes"/>
      <point x="547.0038623642307" y="662.1536652009429" type="line"/>
      <point x="243.77471272358486" y="811.2587487446023" type="line" smooth="yes"/>
      <point x="180.2983780405412" y="834.0174672557101"/>
      <point x="112.64965808186577" y="820.2865079090102"/>
      <point x="88.23921924710487" y="760.7293605312013" type="curve" smooth="yes"/>
      <point x="66.0423453049766" y="701.7986970675391"/>
      <point x="105.05794741464261" y="671.8169818921476"/>
      <point x="171.76606070567962" y="660.7133995055294" type="curve" smooth="yes"/>
      <point x="505.2477435273511" y="579.4198848209184" type="line"/>
      <point x="259.72990082918824" y="288.6013658869091" type="line" smooth="yes"/>
      <point x="214.82313438102486" y="248.84989844802897"/>
      <point x="221.48152640445068" y="214.85776268343224"/>
      <point x="282.83337552354106" y="178.3712763844921" type="curve" smooth="yes"/>
      <point x="347.04497732313575" y="141.62784035667005"/>
      <point x="416.7944982781205" y="153.6874079951676"/>
      <point x="453.5337974522121" y="200.98399296055518" type="curve" smooth="yes"/>
      <point x="613.6361694335938" y="528.1590576171875" type="line"/>
      <point x="774.4590551091894" y="200.97730232539035" type="line" smooth="yes"/>
      <point x="810.0586102222843" y="153.61997568155317"/>
      <point x="880.9001981282508" y="140.6347527258618"/>
      <point x="945.257991767235" y="178.33578161480065" type="curve" smooth="yes"/>
      <point x="1005.633307652784" y="213.7658027471532"/>
      <point x="1012.2123122723495" y="248.89840911987284"/>
      <point x="967.2700974661279" y="288.60136487352895" type="curve" smooth="yes"/>
      <point x="721.8643170195239" y="579.2961055240434" type="line"/>
    </contour>
  </outline>
</glyph>
<glyph name="plus" format="2">
  <advance width="1228"/>
  <unicode hex="002B"/>
  <outline>
    <contour>
      <point x="233.0" y="640.0" type="line" smooth="yes"/>
      <point x="180.13294255690218" y="640.6562602599764"/>
      <point x="144.77629499622137" y="630.6045012494914"/>
      <point x="144.0" y="582.0" type="curve" smooth="yes"/>
      <point x="144.77629499622137" y="533.3954987505086"/>
      <point x="180.13294255690218" y="523.3437397400236"/>
      <point x="233.0" y="524.0" type="curve" smooth="yes"/>
      <point x="523.6152236891497" y="519.8994949366116" type="line"/>
      <point x="516.0" y="201.0" type="line" smooth="yes"/>
      <point x="517.2187690542419" y="160.23610785397574"/>
      <point x="555.6940737490553" y="151.58199500203466"/>
      <point x="614.0" y="152.0" type="curve" smooth="yes"/>
      <point x="672.3059262509447" y="151.58199500203466"/>
      <point x="710.7812309457581" y="160.23610785397574"/>
      <point x="712.0" y="201.0" type="curve" smooth="yes"/>
      <point x="704.3847763108503" y="519.8994949366116" type="line"/>
      <point x="995.0" y="524.0" type="line" smooth="yes"/>
      <point x="1047.8670574430978" y="523.3437397400236"/>
      <point x="1083.2237050037786" y="533.3954987505086"/>
      <point x="1084.0" y="582.0" type="curve" smooth="yes"/>
      <point x="1083.2237050037786" y="630.6045012494914"/>
      <point x="1047.8670574430978" y="640.6562602599764"/>
      <point x="995.0" y="640.0" type="curve" smooth="yes"/>
      <point x="704.3847763108503" y="644.1005050633884" type="line"/>
      <point x="712.0" y="963.0" type="line" smooth="yes"/>
      <point x="710.7812309457581" y="1003.7638921460242"/>
      <point x="672.3059262509447" y="1012.4180049979653"/>
      <point x="614.0" y="1012.0" type="curve" smooth="yes"/>
      <point x="555.6940737490553" y="1012.4180049979653"/>
      <point x="517.2187690542419" y="1003.7638921460242"/>
      <point x="516.0" y="963.0" type="curve" smooth="yes"/>
      <point x="523.6152236891497" y="644.1005050633884" type="line"/>
    </contour>
  </outline>
</glyph>
<glyph name="comma" format="2">
  <advance width="1228"/>
  <unicode hex="002C"/>
  <outline>
    <contour>
      <point x="520.0" y="280.0" type="line" smooth="yes"/>
      <point x="484.57760874839573" y="280.58260042979225"/>
      <point x="450.70518393147387" y="272.7970594240146"/>
      <point x="442.4800937473909" y="251.32203285386765" type="curve" smooth="yes"/>
      <point x="348.47901431712955" y="-230.67498293857452" type="line" smooth="yes"/>
      <point x="340.56591274733654" y="-267.09494108302914"/>
      <point x="380.3537679302244" y="-280.6190938778927"/>
      <point x="444.0" y="-280.0" type="curve" smooth="yes"/>
      <point x="494.49867611664587" y="-280.2111584117008"/>
      <point x="536.6103306578075" y="-271.2234660709454"/>
      <point x="553.8200907074569" y="-247.38853632372408" type="curve" smooth="yes"/>
      <point x="765.821143986113" y="236.6101671548738" type="line" smooth="yes"/>
      <point x="782.9185002069847" y="267.1076282139737"/>
      <point x="761.1875024573733" y="282.2680268140952"/>
      <point x="714.0" y="280.0" type="curve" smooth="yes"/>
    </contour>
  </outline>
</glyph>
<glyph name="hyphen" format="2">
  <advance width="1228"/>
  <unicode hex="002D"/>
  <outline>
    <contour>
      <point x="233.0" y="640.0" type="line" smooth="yes"/>
      <point x="180.13294255690218" y="640.6562602599764"/>
      <point x="144.77629499622137" y="630.6045012494914"/>
      <point x="144.0" y="582.0" type="curve" smooth="yes"/>
      <point x="144.77629499622137" y="533.3954987505086"/>
      <point x="180.13294255690218" y="523.3437397400236"/>
      <point x="233.0" y="524.0" type="curve" smooth="yes"/>
      <point x="995.0" y="524.0" type="line" smooth="yes"/>
      <point x="1047.8670574430978" y="523.3437397400236"/>
      <point x="1083.2237050037786" y="533.3954987505086"/>
      <point x="1084.0" y="582.0" type="curve" smooth="yes"/>
      <point x="1083.2237050037786" y="630.6045012494914"/>
      <point x="1047.8670574430978" y="640.6562602599764"/>
      <point x="995.0" y="640.0" type="curve" smooth="yes"/>
    </contour>
  </outline>
</glyph>
<glyph name="slash" format="2">
  <advance width="1228"/>
  <unicode hex="002F"/>
  <outline>
    <contour>
      <point x="848.9371614738359" y="1352.6973210403928" type="curve" smooth="yes"/>
      <point x="176.9332742725467" y="-290.2975616391707" type="line" smooth="yes"/>
      <point x="160.62694292774611" y="-320.1253885855492"/>
      <point x="219.85725067466817" y="-341.5386647330285"/>
      <point x="290.0" y="-341.0" type="curve" smooth="yes"/>
      <point x="328.7271382158262" y="-341.47672727895457"/>
      <point x="365.1660076452193" y="-330.53985520075713"/>
      <point x="379.0628385261641" y="-313.69732104039275" type="curve" smooth="yes"/>
      <point x="1051.0667257274533" y="1329.2975616391707" type="line" smooth="yes"/>
      <point x="1067.373057072254" y="1359.1253885855492"/>
      <point x="1008.1427493253318" y="1380.5386647330286"/>
      <point x="938.0" y="1380.0" type="curve" smooth="yes"/>
      <point x="899.2728617841739" y="1380.4767272789545"/>
      <point x="862.8339923547808" y="1369.539855200757"/>
    </contour>
  </outline>
</glyph>
<glyph name="zero" format="2">
  <advance width="1228"/>
  <unicode hex="0030"/>
  <outline>
    <contour>
      <point x="164.0" y="593.0" type="curve" smooth="yes"/>
      <point x="164.87789157036758" y="226.60727710784465"/>
      <point x="340.9918978880163" y="-9.878164185755871"/>
      <point x="614.0" y="-8.0" type="curve" smooth="yes"/>
      <point x="887.0081021119837" y="-9.878164185755871"/>
      <point x="1063.1221084296324" y="226.60727710784465"/>
      <point x="1064.0" y="593.0" type="curve" smooth="yes"/>
      <point x="1063.1248142304178" y="959.3981909669681"/>
      <point x="887.0478453026454" y="1196.8905550787206"/>
      <point x="614.0" y="1195.0" type="curve" smooth="yes"/>
      <point x="340.9521546973546" y="1196.8905550787206"/>
      <point x="164.87518576958217" y="959.3981909669681"/>
    </contour>
    <contour>
      <point x="341.9742910132977" y="402.9507023152617" type="line"/>
      <point x="375.3856645494325" y="464.25022108753654"/>
      <point x="369.9742559016921" y="525.7672806927727"/>
      <point x="370.0" y="593.0" type="curve" smooth="yes"/>
      <point x="369.27371261376527" y="894.2859149700014"/>
      <point x="470.8531450118396" y="1072.8472597612565"/>
      <point x="614.0" y="1075.0" type="curve" smooth="yes"/>
      <point x="689.6506920650145" y="1074.3700231037396"/>
      <point x="748.6729989383809" y="1022.2418025713137"/>
      <point x="795.0443206896862" y="915.6300689831364" type="curve"/>
    </contour>
    <contour>
      <point x="858.0" y="593.0" type="curve" smooth="yes"/>
      <point x="858.7292713706363" y="291.707437597459"/>
      <point x="757.2053564348984" y="114.1329647983422"/>
      <point x="614.0" y="112.0" type="curve" smooth="yes"/>
      <point x="538.4678383513166" y="112.62042134948202"/>
      <point x="479.56716714932014" y="164.23863055983065"/>
      <point x="433.257966121705" y="270.26134982276244" type="curve"/>
      <point x="886.0830213017479" y="782.9081559037487" type="line"/>
      <point x="852.6315399986569" y="721.5937392194284"/>
      <point x="858.0256343804241" y="660.1206735083387"/>
    </contour>
  </outline>
</glyph>
<glyph name="one" format="2">
  <advance width="1228"/>
  <unicode hex="0031"/>
  <outline>
    <contour>
      <point x="237.3916938280157" y="956.0707494510821" type="line" smooth="yes"/>
      <point x="200.80938835433608" y="941.1794280038537"/>
      <point x="182.33662889977748" y="917.2455449712695"/>
      <point x="211.47102558497107" y="876.9885029330901" type="curve" smooth="yes"/>
      <point x="244.96678864312628" y="834.0211927494058"/>
      <point x="300.80505722631034" y="836.5119645887796"/>
      <point x="333.72941735132065" y="850.8889466492543" type="curve" smooth="yes"/>
      <point x="544.5234872586236" y="998.7219216057796" type="line"/>
      <point x="544.2117036672374" y="139.7758948421184" type="line"/>
      <point x="300.0" y="130.0" type="line" smooth="yes"/>
      <point x="247.13294255690218" y="130.6562602599764"/>
      <point x="211.77629499622137" y="120.60450124949134"/>
      <point x="211.0" y="72.0" type="curve" smooth="yes"/>
      <point x="211.77629499622137" y="23.39549875050866"/>
      <point x="247.13294255690218" y="13.343739740023597"/>
      <point x="300.0" y="14.0" type="curve" smooth="yes"/>
      <point x="974.0" y="14.0" type="line" smooth="yes"/>
      <point x="1026.8670574430978" y="13.343739740023597"/>
      <point x="1062.2237050037786" y="23.39549875050866"/>
      <point x="1063.0" y="72.0" type="curve" smooth="yes"/>
      <point x="1062.2237050037786" y="120.60450124949134"/>
      <point x="1026.8670574430978" y="130.6562602599764"/>
      <point x="974.0" y="130.0" type="curve" smooth="yes"/>
      <point x="744.2134229262176" y="140.58243147366554" type="line"/>
      <point x="745.0" y="1157.0" type="line" smooth="yes"/>
      <point x="739.688310852359" y="1202.5204053108012"/>
      <point x="664.8798555932808" y="1210.1011749155234"/>
      <point x="614.3971920913019" y="1188.0689314046003" type="curve" smooth="yes"/>
    </contour>
  </outline>
</glyph>
<glyph name="two" format="2">
  <advance width="1228"/>
  <unicode hex="0032"/>
  <outline>
    <contour>
      <point x="225.99370411737556" y="1083.5672164756766" type="curve" smooth="yes"/>
      <point x="188.43512627852044" y="1063.4337899012123"/>
      <point x="174.77629499622137" y="1045.3954987505088"/>
      <point x="205.8982275307633" y="1003.3734174040346" type="curve" smooth="yes"/>
      <point x="240.83689565133574" y="960.9660446427091"/>
      <point x="297.77359834727605" y="959.5165469282748"/>
      <point x="335.1121930366965" y="978.3922685968943" type="curve" smooth="yes"/>
      <point x="414.9311817599411" y="1038.4388916220662"/>
      <point x="506.75866190598185" y="1074.7635144357628"/>
      <point x="591.0" y="1075.0" type="curve" smooth="yes"/>
      <point x="730.3917194612438" y="1074.2103997498602"/>
      <point x="794.8267348031881" y="986.1549994326789"/>
      <point x="793.0" y="859.0" type="curve" smooth="yes"/>
      <point x="794.0335070573752" y="756.092006918641"/>
      <point x="749.382456257588" y="677.81213596359"/>
      <point x="633.4846085830947" y="558.1713395324011" type="curve" smooth="yes"/>
      <point x="193.4738863000925" y="112.1771994353293" type="line" smooth="yes"/>
      <point x="179.08152077925166" y="104.38890022478414"/>
      <point x="171.1740081121674" y="92.3829879855561"/>
      <point x="171.0" y="68.0" type="curve" smooth="yes"/>
      <point x="171.8656640756007" y="21.582495844427957"/>
      <point x="207.85725067466817" y="13.461335266971524"/>
      <point x="260.0" y="14.0" type="curve" smooth="yes"/>
      <point x="954.0" y="14.0" type="line" smooth="yes"/>
      <point x="1006.8670574430978" y="13.343739740023597"/>
      <point x="1042.2237050037786" y="23.39549875050866"/>
      <point x="1043.0" y="72.0" type="curve" smooth="yes"/>
      <point x="1042.2237050037786" y="120.60450124949134"/>
      <point x="1006.8670574430978" y="130.6562602599764"/>
      <point x="954.0" y="130.0" type="curve" smooth="yes"/>
      <point x="463.61077960884745" y="137.20099896349916" type="line"/>
      <point x="787.521632346421" y="486.82525053536557" type="line" smooth="yes"/>
      <point x="917.7054144694029" y="617.1331813899083"/>
      <point x="997.9116633597993" y="718.0081591369582"/>
      <point x="999.0" y="859.0" type="curve" smooth="yes"/>
      <point x="996.8977707804695" y="1074.4851298198917"/>
      <point x="831.2990824114979" y="1195.7323554292034"/>
      <point x="590.0" y="1195.0" type="curve" smooth="yes"/>
      <point x="466.5582080675159" y="1195.2058125316773"/>
      <point x="330.4535448538668" y="1153.4562801718796"/>
    </contour>
  </outline>
</glyph>
<glyph name="three" format="2">
  <advance width="1228"/>
  <unicode hex="0033"/>
  <outline>
    <contour>
      <point x="233.7407591751806" y="1100.9573160256507" type="curve" smooth="yes"/>
      <point x="194.48144856000837" y="1083.7512094715116"/>
      <point x="177.4563715109373" y="1065.6115686381222"/>
      <point x="206.13840887004386" y="1020.6679640795705" type="curve" smooth="yes"/>
      <point x="237.8312648918522" y="977.5135843950347"/>
      <point x="292.7267826573007" y="976.6561740289479"/>
      <point x="330.45926913179767" y="992.9781743448584" type="curve" smooth="yes"/>
      <point x="416.7084271804921" y="1047.7574435352208"/>
      <point x="497.82091687553964" y="1074.847997551882"/>
      <point x="581.0" y="1075.0" type="curve" smooth="yes"/>
      <point x="718.3074477012539" y="1074.373206303974"/>
      <point x="783.2462848803999" y="996.692458357064"/>
      <point x="781.0" y="879.0" type="curve" smooth="yes"/>
      <point x="783.0302864337064" y="751.5764109647462"/>
      <point x="720.8857286633296" y="677.5342929478406"/>
      <point x="575.0" y="677.0" type="curve" smooth="yes"/>
      <point x="520.0" y="677.0" type="line" smooth="yes"/>
      <point x="467.8572506746682" y="677.5386647330284"/>
      <point x="431.8656640756007" y="669.417504155572"/>
      <point x="431.0" y="623.0" type="curve" smooth="yes"/>
      <point x="431.8656640756007" y="576.582495844428"/>
      <point x="467.8572506746682" y="568.4613352669716"/>
      <point x="520.0" y="569.0" type="curve" smooth="yes"/>
      <point x="593.0" y="569.0" type="line" smooth="yes"/>
      <point x="740.9230983293252" y="568.4714152062576"/>
      <point x="820.3536636347692" y="489.82063664374914"/>
      <point x="818.0" y="345.0" type="curve" smooth="yes"/>
      <point x="819.8368457628058" y="207.83127469952535"/>
      <point x="748.6339768911495" y="112.74455047651624"/>
      <point x="588.0" y="112.0" type="curve" smooth="yes"/>
      <point x="487.02990863784805" y="112.2644802581842"/>
      <point x="387.56627834131297" y="155.74377497044657"/>
      <point x="305.65820187615765" y="220.82357325834184" type="curve" smooth="yes"/>
      <point x="267.77359834727605" y="240.4834530717252"/>
      <point x="210.64084605463293" y="238.1185718100952"/>
      <point x="175.8982275307633" y="195.62658259596535" type="curve" smooth="yes"/>
      <point x="144.77629499622137" y="153.60450124949134"/>
      <point x="158.43512627852044" y="135.56621009878756"/>
      <point x="195.6983471391641" y="115.3187051464769" type="curve" smooth="yes"/>
      <point x="303.0704609352785" y="40.43934842646175"/>
      <point x="450.316007161548" y="-8.229061054951"/>
      <point x="588.0" y="-8.0" type="curve" smooth="yes"/>
      <point x="858.9331198128518" y="-8.852280070315505"/>
      <point x="1022.1131107052734" y="133.236047514287"/>
      <point x="1024.0" y="345.0" type="curve" smooth="yes"/>
      <point x="1022.8773314380926" y="479.93048521752723"/>
      <point x="941.9099534264514" y="570.9271386409313"/>
      <point x="833.177235019854" y="627.5059348703612" type="curve"/>
      <point x="917.7595285659474" y="689.7033125188609"/>
      <point x="985.90348341575" y="764.0228703979288"/>
      <point x="987.0" y="879.0" type="curve" smooth="yes"/>
      <point x="984.6695284140277" y="1074.2067587797835"/>
      <point x="819.3381771067523" y="1195.739464315022"/>
      <point x="580.0" y="1195.0" type="curve" smooth="yes"/>
      <point x="462.243376404572" y="1195.146903198212"/>
      <point x="343.56160087491077" y="1163.1778318439408"/>
    </contour>
  </outline>
</glyph>
<glyph name="four" format="2">
  <advance width="1228"/>
  <unicode hex="0034"/>
  <outline>
    <contour>
      <point x="619.3884764574964" y="1140.2166311204655" type="curve" smooth="yes"/>
      <point x="135.3984816618922" y="417.2085823771564" type="line" smooth="yes"/>
      <point x="126.1022292195305" y="409.48512981989165"/>
      <point x="119.21107671816789" y="395.2196995762049"/>
      <point x="119.0" y="376.0" type="curve" smooth="yes"/>
      <point x="119.90055178126508" y="329.65272635199887"/>
      <point x="155.99427384826188" y="315.1333506379514"/>
      <point x="210.0" y="316.0" type="curve" smooth="yes"/>
      <point x="676.0642072889617" y="314.437608972636" type="line"/>
      <point x="662.0" y="55.0" type="line" smooth="yes"/>
      <point x="662.943019431198" y="12.736307161738532"/>
      <point x="699.5340535687596" y="3.560162961062849"/>
      <point x="762.0" y="4.0" type="curve" smooth="yes"/>
      <point x="764.0" y="4.0" type="line" smooth="yes"/>
      <point x="826.4659464312404" y="3.560162961062849"/>
      <point x="863.056980568802" y="12.736307161738532"/>
      <point x="864.0" y="55.0" type="curve" smooth="yes"/>
      <point x="859.7410300926161" y="309.67808412489154" type="line"/>
      <point x="1000.0" y="316.0" type="line" smooth="yes"/>
      <point x="1052.8670574430978" y="315.3437397400236"/>
      <point x="1088.2237050037786" y="325.39549875050864"/>
      <point x="1089.0" y="374.0" type="curve" smooth="yes"/>
      <point x="1088.2237050037786" y="422.60450124949136"/>
      <point x="1052.8670574430978" y="432.6562602599764"/>
      <point x="1000.0" y="432.0" type="curve" smooth="yes"/>
      <point x="863.3020480340587" y="442.7779312217156" type="line"/>
      <point x="864.0" y="1131.0" type="line" smooth="yes"/>
      <point x="862.7593394890939" y="1173.7269384510932"/>
      <point x="821.7269105843369" y="1195.8121872311137"/>
      <point x="751.0" y="1195.0" type="curve" smooth="yes"/>
      <point x="692.9092697094167" y="1195.3895603891194"/>
      <point x="649.1577285695023" y="1179.3531371995182"/>
    </contour>
    <contour>
      <point x="666.4118320385115" y="438.38378036264976" type="line"/>
      <point x="367.9973662055113" y="446.1992674223836" type="line"/>
      <point x="696.0" y="1006.0" type="line"/>
    </contour>
  </outline>
</glyph>
<glyph name="five" format="2">
  <advance width="1228"/>
  <unicode hex="0035"/>
  <outline>
    <contour>
      <point x="351.0" y="1173.0" type="line" smooth="yes"/>
      <point x="288.4510629526684" y="1173.4513893474234"/>
      <point x="253.04430441243824" y="1164.0720621146204"/>
      <point x="250.02108021346376" y="1121.4363547975308" type="curve" smooth="yes"/>
      <point x="230.02108021346376" y="621.4363547975307" type="line" smooth="yes"/>
      <point x="229.04430441243824" y="579.9279378853795"/>
      <point x="268.77123958722046" y="570.5923152327456"/>
      <point x="331.0" y="571.0" type="curve" smooth="yes"/>
      <point x="355.9941089710032" y="570.9587627970221"/>
      <point x="379.03017325141343" y="573.1284826501319"/>
      <point x="395.6817818053917" y="578.5543016574976" type="curve" smooth="yes"/>
      <point x="458.3162497001747" y="624.3295934159929"/>
      <point x="517.1201133872653" y="651.8231023111208"/>
      <point x="608.0" y="652.0" type="curve" smooth="yes"/>
      <point x="748.8757120926946" y="650.894988000281"/>
      <point x="829.6713481291775" y="538.9385083925815"/>
      <point x="828.0" y="386.0" type="curve" smooth="yes"/>
      <point x="829.7643815642879" y="224.930596972175"/>
      <point x="743.5324821635643" y="112.96115516905073"/>
      <point x="588.0" y="112.0" type="curve" smooth="yes"/>
      <point x="489.9100322349032" y="112.25190974227094"/>
      <point x="392.1594935769918" y="153.6253769212614"/>
      <point x="311.2703101854414" y="214.6690287460749" type="curve" smooth="yes"/>
      <point x="273.77359834727605" y="234.4834530717252"/>
      <point x="216.64084605463293" y="232.1185718100952"/>
      <point x="181.8982275307633" y="189.62658259596535" type="curve" smooth="yes"/>
      <point x="150.61140228019295" y="147.9817750962467"/>
      <point x="166.660716241752" y="128.72097494477586"/>
      <point x="204.03717143946005" y="108.44928987021073" type="curve" smooth="yes"/>
      <point x="310.41141605241296" y="37.53245051345385"/>
      <point x="453.47609045680707" y="-8.213552259533149"/>
      <point x="588.0" y="-8.0" type="curve" smooth="yes"/>
      <point x="855.9512485222742" y="-9.066016509511009"/>
      <point x="1032.1648241447783" y="157.16646127077277"/>
      <point x="1034.0" y="386.0" type="curve" smooth="yes"/>
      <point x="1032.4825189577746" y="614.2871151006284"/>
      <point x="875.301428078647" y="773.1457537240652"/>
      <point x="621.0" y="772.0" type="curve" smooth="yes"/>
      <point x="538.5861063201493" y="772.1212091553758"/>
      <point x="460.1005050633883" y="753.054506621354"/>
      <point x="431.5648746421252" y="727.4494204834295" type="curve"/>
      <point x="432.89838696873915" y="1054.7197292630663" type="line"/>
      <point x="885.0" y="1057.0" type="line" smooth="yes"/>
      <point x="937.8670574430978" y="1056.3437397400237"/>
      <point x="973.2237050037786" y="1066.3954987505088"/>
      <point x="974.0" y="1115.0" type="curve" smooth="yes"/>
      <point x="973.2237050037786" y="1163.6045012494912"/>
      <point x="937.8670574430978" y="1173.6562602599763"/>
      <point x="885.0" y="1173.0" type="curve" smooth="yes"/>
    </contour>
  </outline>
</glyph>
<glyph name="six" format="2">
  <advance width="1228"/>
  <unicode hex="0036"/>
  <outline>
    <contour>
      <point x="177.0" y="512.0" type="curve" smooth="yes"/>
      <point x="177.1362152095724" y="369.4311975773359"/>
      <point x="204.77487947472125" y="264.08393061911175"/>
      <point x="256.5417485766407" y="180.0541943573372" type="curve" smooth="yes"/>
      <point x="337.08044208406466" y="53.143812863655704"/>
      <point x="477.93583184597395" y="-8.386121907470486"/>
      <point x="626.0" y="-8.0" type="curve" smooth="yes"/>
      <point x="882.3891808421034" y="-8.944741730746156"/>
      <point x="1057.8911751635096" y="141.52314962241547"/>
      <point x="1060.0" y="353.0" type="curve" smooth="yes"/>
      <point x="1057.8287632315469" y="575.3992223173715"/>
      <point x="878.417542950332" y="717.9506661272836"/>
      <point x="648.0" y="717.0" type="curve" smooth="yes"/>
      <point x="528.2378513066868" y="717.3481400189196"/>
      <point x="411.673942170414" y="670.1041694225081"/>
      <point x="383.5482266431704" y="586.4015051533869" type="curve"/>
      <point x="417.53819506749426" y="866.9463654431776"/>
      <point x="580.0111886615156" y="1056.1322642261964"/>
      <point x="939.321445149313" y="1075.981906176001" type="curve" smooth="yes"/>
      <point x="975.8527726149471" y="1075.4606071080213"/>
      <point x="1004.794170289875" y="1084.758122609826"/>
      <point x="999.9005428226798" y="1140.7766275319923" type="curve" smooth="yes"/>
      <point x="993.0416305603426" y="1191.6695027264398"/>
      <point x="951.8463471741677" y="1196.3585232602754"/>
      <point x="915.8257924147998" y="1195.014284423662" type="curve" smooth="yes"/>
      <point x="380.91052787285804" y="1172.6055011914964"/>
      <point x="177.97805269452533" y="830.1962292929156"/>
    </contour>
    <contour>
      <point x="854.0" y="353.0" type="curve" smooth="yes"/>
      <point x="856.2452170444044" y="210.30883376834765"/>
      <point x="770.3164022749635" y="112.80390020930352"/>
      <point x="626.0" y="112.0" type="curve" smooth="yes"/>
      <point x="481.6069384609567" y="112.9907566004714"/>
      <point x="396.029273514787" y="221.65337207236144"/>
      <point x="398.0" y="368.0" type="curve" smooth="yes"/>
      <point x="395.3198212941704" y="501.1908076566277"/>
      <point x="486.5115183838077" y="596.2285661594494"/>
      <point x="626.0" y="597.0" type="curve" smooth="yes"/>
      <point x="774.2308398987939" y="596.1796844124636"/>
      <point x="856.0433662540386" y="497.44031916839725"/>
    </contour>
  </outline>
</glyph>
<glyph name="seven" format="2">
  <advance width="1228"/>
  <unicode hex="0037"/>
  <outline>
    <contour>
      <point x="262.0" y="1173.0" type="line" smooth="yes"/>
      <point x="209.13294255690218" y="1173.6562602599763"/>
      <point x="173.77629499622137" y="1163.6045012494912"/>
      <point x="173.0" y="1115.0" type="curve" smooth="yes"/>
      <point x="173.77629499622137" y="1066.3954987505088"/>
      <point x="209.13294255690218" y="1056.3437397400237"/>
      <point x="262.0" y="1057.0" type="curve" smooth="yes"/>
      <point x="824.1680142801376" y="1045.565725597868" type="line"/>
      <point x="421.92907414993556" y="50.707974120140506" type="line" smooth="yes"/>
      <point x="404.1780842876052" y="16.635777465943562"/>
      <point x="442.2382204264383" y="0.48558139347318274"/>
      <point x="494.49763510139223" y="-6.211507498013644" type="curve" smooth="yes"/>
      <point x="547.1850140818556" y="-14.049525477383613"/>
      <point x="600.3847763108503" y="-3.1005050633883346"/>
      <point x="621.1082877648064" y="29.242482694417966" type="curve" smooth="yes"/>
      <point x="1047.1105588761916" y="1084.2394535281283" type="line" smooth="yes"/>
      <point x="1051.158049082318" y="1090.533906560058"/>
      <point x="1054.8864898775414" y="1103.3067699217029"/>
      <point x="1055.0" y="1119.0" type="curve" smooth="yes"/>
      <point x="1054.1343359243992" y="1165.417504155572"/>
      <point x="1018.1427493253318" y="1173.5386647330286"/>
      <point x="966.0" y="1173.0" type="curve" smooth="yes"/>
    </contour>
  </outline>
</glyph>
<glyph name="eight" format="2">
  <advance width="1228"/>
  <unicode hex="0038"/>
  <outline>
    <contour>
      <point x="221.0" y="879.0" type="curve" smooth="yes"/>
      <point x="222.473163318024" y="770.645593341387"/>
      <point x="300.34316174256065" y="690.7496903007569"/>
      <point x="384.6783163662567" y="626.8229702386342" type="curve"/>
      <point x="277.13756640524554" y="565.9073890945773"/>
      <point x="185.46129735896739" y="471.372610764544"/>
      <point x="184.0" y="340.0" type="curve" smooth="yes"/>
      <point x="186.46588116877527" y="136.95104152340787"/>
      <point x="370.79169133738515" y="-8.907442484728591"/>
      <point x="614.0" y="-8.0" type="curve" smooth="yes"/>
      <point x="857.2083086626149" y="-8.907442484728591"/>
      <point x="1041.5341188312248" y="136.95104152340787"/>
      <point x="1044.0" y="340.0" type="curve" smooth="yes"/>
      <point x="1042.5387026410326" y="471.372610764544"/>
      <point x="950.8127524449382" y="565.8868418131729"/>
      <point x="842.2663997440543" y="626.6978193015613" type="curve"/>
      <point x="926.5967326094576" y="690.7766114455076"/>
      <point x="1005.4880725248306" y="770.704511807051"/>
      <point x="1007.0" y="879.0" type="curve" smooth="yes"/>
      <point x="1004.5333608076842" y="1058.0480893994552"/>
      <point x="835.5538302300938" y="1195.9794218243444"/>
      <point x="614.0" y="1195.0" type="curve" smooth="yes"/>
      <point x="392.44616976990625" y="1195.9794218243444"/>
      <point x="223.46663919231582" y="1058.0480893994552"/>
    </contour>
    <contour>
      <point x="838.0" y="341.0" type="curve" smooth="yes"/>
      <point x="840.5518979035861" y="208.95131248246355"/>
      <point x="752.2800848166468" y="112.81084566044245"/>
      <point x="614.0" y="112.0" type="curve" smooth="yes"/>
      <point x="475.7199151833532" y="112.81084566044245"/>
      <point x="387.4481020964139" y="208.95131248246355"/>
      <point x="390.0" y="341.0" type="curve" smooth="yes"/>
      <point x="387.4069195528591" y="473.094759479094"/>
      <point x="475.54534578211775" y="567.2222414842671"/>
      <point x="614.0" y="568.0" type="curve" smooth="yes"/>
      <point x="752.4546542178823" y="567.2222414842671"/>
      <point x="840.5930804471409" y="473.094759479094"/>
    </contour>
    <contour>
      <point x="803.0" y="876.0" type="curve" smooth="yes"/>
      <point x="805.7703360762465" y="766.7116840828511"/>
      <point x="727.9329234874431" y="679.8788940851941"/>
      <point x="614.0" y="679.0" type="curve" smooth="yes"/>
      <point x="500.06707651255687" y="679.8788940851941"/>
      <point x="422.2296639237535" y="766.7116840828511"/>
      <point x="425.0" y="876.0" type="curve" smooth="yes"/>
      <point x="422.2802202960171" y="996.2338718796819"/>
      <point x="499.1529913226208" y="1074.2938807589862"/>
      <point x="614.0" y="1075.0" type="curve" smooth="yes"/>
      <point x="728.8470086773792" y="1074.2938807589862"/>
      <point x="805.7197797039829" y="996.2338718796819"/>
    </contour>
  </outline>
</glyph>
<glyph name="nine" format="2">
  <advance width="1228"/>
  <unicode hex="0039"/>
  <outline>
    <contour>
      <point x="168.0" y="834.0" type="curve" smooth="yes"/>
      <point x="170.17123676845304" y="611.6007776826285"/>
      <point x="349.5824570496681" y="469.0493338727163"/>
      <point x="580.0" y="470.0" type="curve" smooth="yes"/>
      <point x="699.7621486933132" y="469.65185998108046"/>
      <point x="816.326057829586" y="516.8958305774919"/>
      <point x="844.4517733568297" y="600.5984948466131" type="curve"/>
      <point x="810.4618049325057" y="320.05363455682243"/>
      <point x="647.9888113384844" y="130.86773577380353"/>
      <point x="288.6785548506869" y="111.01809382399883" type="curve" smooth="yes"/>
      <point x="252.1472273850529" y="111.5393928919787"/>
      <point x="223.20582971012502" y="102.24187739017405"/>
      <point x="228.09945717732023" y="46.22337246800782" type="curve" smooth="yes"/>
      <point x="234.9583694396574" y="-4.669502726439872"/>
      <point x="276.1536528258323" y="-9.358523260275323"/>
      <point x="312.1742075852002" y="-8.014284423661934" type="curve" smooth="yes"/>
      <point x="847.0894721271419" y="14.394498808503679"/>
      <point x="1050.0219473054747" y="356.80377070708437"/>
      <point x="1051.0" y="675.0" type="curve" smooth="yes"/>
      <point x="1050.8637847904276" y="817.5688024226641"/>
      <point x="1023.2251205252787" y="922.9160693808883"/>
      <point x="971.4582514233592" y="1006.9458056426628" type="curve" smooth="yes"/>
      <point x="890.9195579159353" y="1133.8561871363443"/>
      <point x="750.0641681540261" y="1195.3861219074704"/>
      <point x="602.0" y="1195.0" type="curve" smooth="yes"/>
      <point x="345.6108191578966" y="1195.944741730746"/>
      <point x="170.10882483649033" y="1045.4768503775845"/>
    </contour>
    <contour>
      <point x="830.0" y="819.0" type="curve" smooth="yes"/>
      <point x="832.6801787058296" y="685.8091923433723"/>
      <point x="741.4884816161923" y="590.7714338405506"/>
      <point x="602.0" y="590.0" type="curve" smooth="yes"/>
      <point x="453.7691601012061" y="590.8203155875364"/>
      <point x="371.9566337459614" y="689.5596808316027"/>
      <point x="374.0" y="834.0" type="curve" smooth="yes"/>
      <point x="371.7547829555956" y="976.6911662316523"/>
      <point x="457.68359772503646" y="1074.1960997906965"/>
      <point x="602.0" y="1075.0" type="curve" smooth="yes"/>
      <point x="746.3930615390433" y="1074.0092433995285"/>
      <point x="831.9707264852129" y="965.3466279276386"/>
    </contour>
  </outline>
</glyph>
<glyph name="less" format="2">
  <advance width="1228"/>
  <unicode hex="003C"/>
  <outline>
    <contour>
      <point x="366.0" y="583.0" type="line"/>
      <point x="1023.2317859447342" y="917.6262856841614" type="line" smooth="yes"/>
      <point x="1071.8308298089244" y="935.1890456050996"/>
      <point x="1089.6180085303906" y="951.6089858704969"/>
      <point x="1064.2551069659978" y="993.7390096630006" type="curve" smooth="yes"/>
      <point x="1038.5252281622072" y="1034.755296480228"/>
      <point x="987.7795703249926" y="1044.0511469134156"/>
      <point x="937.555461169256" y="1025.4292289766277" type="curve" smooth="yes"/>
      <point x="160.54587882157247" y="644.4317596912546" type="line" smooth="yes"/>
      <point x="124.7608855502532" y="629.6568582489441"/>
      <point x="99.82818029809837" y="619.4946404924408"/>
      <point x="99.0" y="583.0" type="curve" smooth="yes"/>
      <point x="99.82818029809837" y="546.5053595075592"/>
      <point x="124.7608855502532" y="536.3431417510559"/>
      <point x="160.54587882157247" y="521.5682403087454" type="curve" smooth="yes"/>
      <point x="937.555461169256" y="140.5707710233724" type="line" smooth="yes"/>
      <point x="987.7795703249926" y="121.9488530865845"/>
      <point x="1038.5252281622072" y="131.2447035197719"/>
      <point x="1064.2551069659978" y="172.2609903369994" type="curve" smooth="yes"/>
      <point x="1089.6180085303906" y="214.39101412950313"/>
      <point x="1071.8308298089244" y="230.8109543949003"/>
      <point x="1023.2317859447342" y="248.3737143158386" type="curve" smooth="yes"/>
    </contour>
  </outline>
</glyph>
<glyph name="greater" format="2">
  <advance width="1228"/>
  <unicode hex="003E"/>
  <outline>
    <contour>
      <point x="862.0" y="583.0" type="line"/>
      <point x="204.76821405526582" y="248.3737143158386" type="line" smooth="yes"/>
      <point x="156.16917019107555" y="230.8109543949003"/>
      <point x="138.38199146960935" y="214.39101412950313"/>
      <point x="163.7448930340022" y="172.2609903369994" type="curve" smooth="yes"/>
      <point x="189.4747718377927" y="131.2447035197719"/>
      <point x="240.22042967500732" y="121.9488530865845"/>
      <point x="290.444538830744" y="140.5707710233724" type="curve" smooth="yes"/>
      <point x="1067.4541211784276" y="521.5682403087454" type="line" smooth="yes"/>
      <point x="1103.2391144497467" y="536.3431417510559"/>
      <point x="1128.1718197019015" y="546.5053595075592"/>
      <point x="1129.0" y="583.0" type="curve" smooth="yes"/>
      <point x="1128.1718197019015" y="619.4946404924408"/>
      <point x="1103.2391144497467" y="629.6568582489441"/>
      <point x="1067.4541211784276" y="644.4317596912546" type="curve" smooth="yes"/>
      <point x="290.444538830744" y="1025.4292289766277" type="line" smooth="yes"/>
      <point x="240.22042967500732" y="1044.0511469134156"/>
      <point x="189.4747718377927" y="1034.755296480228"/>
      <point x="163.7448930340022" y="993.7390096630006" type="curve" smooth="yes"/>
      <point x="138.38199146960935" y="951.6089858704969"/>
      <point x="156.16917019107555" y="935.1890456050996"/>
      <point x="204.76821405526582" y="917.6262856841614" type="curve" smooth="yes"/>
    </contour>
  </outline>
</glyph>
<glyph name="question" format="2">
  <advance width="1228"/>
  <unicode hex="003F"/>
  <outline>
    <contour>
      <point x="287.6330138979129" y="1178.6851402882273" type="curve" smooth="yes"/>
      <point x="245.19233977203496" y="1160.799212635372"/>
      <point x="224.2423501640223" y="1145.9070567667022"/>
      <point x="250.26894303169357" y="1096.719793218002" type="curve" smooth="yes"/>
      <point x="278.7878393714577" y="1048.991577238881"/>
      <point x="334.20849115263087" y="1051.5950037034534"/>
      <point x="370.10940725364816" y="1066.3888551133477" type="curve" smooth="yes"/>
      <point x="451.5333699085461" y="1111.0249255926176"/>
      <point x="531.3503635104203" y="1134.8832788943503"/>
      <point x="619.0" y="1135.0" type="curve" smooth="yes"/>
      <point x="735.3599705635972" y="1134.2043888784842"/>
      <point x="787.9613877749948" y="1058.3344426196281"/>
      <point x="786.0" y="956.0" type="curve" smooth="yes"/>
      <point x="788.2018091570081" y="850.3616594002758"/>
      <point x="734.1185407020737" y="793.5473166973658"/>
      <point x="584.1937420634018" y="731.0339478393868" type="curve" smooth="yes"/>
      <point x="515.2986526951071" y="703.0110859369001" type="line" smooth="yes"/>
      <point x="485.6784362690657" y="696.1022174473454"/>
      <point x="468.35375798036426" y="688.698414177725"/>
      <point x="469.02493195008503" y="665.6129574746685" type="curve" smooth="yes"/>
      <point x="479.0285174663842" y="440.6555302081802" type="line" smooth="yes"/>
      <point x="484.0215141749764" y="415.5504280858665"/>
      <point x="524.5630763139006" y="402.4150661876177"/>
      <point x="574.0" y="403.0" type="curve" smooth="yes"/>
      <point x="623.4369236860994" y="402.4150661876177"/>
      <point x="663.9784858250237" y="415.5504280858665"/>
      <point x="668.9542432183529" y="440.83021950888866" type="curve" smooth="yes"/>
      <point x="672.8391874747509" y="620.0488239703841" type="line"/>
      <point x="871.3527399448889" y="707.3190046514571"/>
      <point x="990.0568730434961" y="785.3105210461475"/>
      <point x="992.0" y="956.0" type="curve" smooth="yes"/>
      <point x="990.065445414347" y="1135.700752250859"/>
      <point x="846.9753402288661" y="1255.86061971303"/>
      <point x="618.0" y="1255.0" type="curve" smooth="yes"/>
      <point x="500.0643481108486" y="1255.089526432944"/>
      <point x="388.6745559964446" y="1230.9315030285481"/>
    </contour>
    <contour>
      <point x="433.0" y="167.0" type="curve" smooth="yes"/>
      <point x="433.0" y="53.0" type="line" smooth="yes"/>
      <point x="436.1194235105886" y="14.649056415726385"/>
      <point x="488.9793873782337" y="3.831594703084967"/>
      <point x="574.0" y="4.0" type="curve" smooth="yes"/>
      <point x="659.0206126217663" y="3.831594703084967"/>
      <point x="711.8805764894114" y="14.649056415726385"/>
      <point x="715.0" y="53.0" type="curve" smooth="yes"/>
      <point x="715.0" y="167.0" type="line" smooth="yes"/>
      <point x="711.8805764894114" y="205.3509435842736"/>
      <point x="659.0206126217663" y="216.16840529691504"/>
      <point x="574.0" y="216.0" type="curve" smooth="yes"/>
      <point x="488.9793873782337" y="216.16840529691504"/>
      <point x="436.1194235105886" y="205.3509435842736"/>
    </contour>
  </outline>
</glyph>
<glyph name="at" format="2">
  <advance width="1228"/>
  <unicode hex="0040"/>
  <outline>
    <contour>
      <point x="24.0" y="389.0" type="curve" smooth="yes"/>
      <point x="25.492285100911783" y="58.67476139999639"/>
      <point x="232.25462046311745" y="-140.02064650308915"/>
      <point x="562.0" y="-139.0" type="curve" smooth="yes"/>
      <point x="674.515915325577" y="-139.06569973526612"/>
      <point x="785.3669996664524" y="-118.5737520871754"/>
      <point x="858.462437813411" y="-88.18351367857143" type="curve" smooth="yes"/>
      <point x="887.0705745180344" y="-81.93416273531244"/>
      <point x="903.9834342130363" y="-72.49968142717377"/>
      <point x="891.8651408473348" y="-40.09105949838629" type="curve" smooth="yes"/>
      <point x="878.4908109208069" y="-7.024053256805844"/>
      <point x="842.3757080351926" y="0.19969004285430003"/>
      <point x="807.2762696314577" y="-6.367994868630982" type="curve" smooth="yes"/>
      <point x="742.1071353605792" y="-27.63567223217339"/>
      <point x="653.7952044095867" y="-43.9495721008837"/>
      <point x="560.0" y="-44.0" type="curve" smooth="yes"/>
      <point x="321.09224992768196" y="-42.90226760457314"/>
      <point x="197.6950763788807" y="128.62044358692881"/>
      <point x="199.0" y="389.0" type="curve" smooth="yes"/>
      <point x="197.44595846895453" y="714.7675931507134"/>
      <point x="389.7811755120773" y="967.4802782347721"/>
      <point x="655.0" y="969.0" type="curve" smooth="yes"/>
      <point x="888.0606486969187" y="967.9366356271346"/>
      <point x="1024.5068784965586" y="796.6968848746621"/>
      <point x="1023.0" y="531.0" type="curve" smooth="yes"/>
      <point x="1023.628078351336" y="368.9413871720899"/>
      <point x="974.4238624805841" y="251.4069816623983"/>
      <point x="888.0" y="249.0" type="curve" smooth="yes"/>
      <point x="841.5577002458034" y="251.05405432887258"/>
      <point x="823.958251766937" y="317.20694920952076"/>
      <point x="845.1928535804703" y="407.46127032737235" type="curve" smooth="yes"/>
      <point x="922.1958461744115" y="709.4549488065246" type="line" smooth="yes"/>
      <point x="926.0952209738085" y="720.740128477651"/>
      <point x="895.2269621152926" y="730.9470286049996"/>
      <point x="867.1292094812982" y="738.8913915140333" type="curve" smooth="yes"/>
      <point x="838.9100322349033" y="747.251909742271"/>
      <point x="796.9471502303057" y="748.8760461918633"/>
      <point x="775.6846490921527" y="741.8043123461664" type="curve" smooth="yes"/>
      <point x="766.1475767003144" y="671.0355782023697" type="line"/>
      <point x="764.8990564171993" y="736.4532482500729"/>
      <point x="713.6157079247141" y="771.9926352463061"/>
      <point x="640.0" y="771.0" type="curve" smooth="yes"/>
      <point x="443.9394883881984" y="773.9903381938252"/>
      <point x="298.23764402925303" y="531.7320094579536"/>
      <point x="297.0" y="357.0" type="curve" smooth="yes"/>
      <point x="298.43425883903575" y="218.58560501671332"/>
      <point x="390.0196413600434" y="144.69024563267027"/>
      <point x="499.0" y="146.0" type="curve" smooth="yes"/>
      <point x="598.0569841698436" y="145.12312671322798"/>
      <point x="666.4406445821097" y="196.29624393622123"/>
      <point x="706.5890387536891" y="279.9793698865261" type="curve"/>
      <point x="717.9869586695693" y="190.24483076650174"/>
      <point x="794.528954975275" y="150.40956799309612"/>
      <point x="889.0" y="151.0" type="curve" smooth="yes"/>
      <point x="1069.804101396307" y="149.18464801477307"/>
      <point x="1194.992428959834" y="299.8596273540079"/>
      <point x="1196.0" y="531.0" type="curve" smooth="yes"/>
      <point x="1194.4189503038924" y="847.1924440408593"/>
      <point x="980.5336465110963" y="1065.2004363360743"/>
      <point x="660.0" y="1064.0" type="curve" smooth="yes"/>
      <point x="297.61835425237064" y="1065.4126839310081"/>
      <point x="25.662707152029558" y="776.0738515202221"/>
    </contour>
    <contour>
      <point x="686.0" y="561.0" type="curve" smooth="yes"/>
      <point x="687.0164191848961" y="426.1237990651925"/>
      <point x="609.9084124482669" y="255.45003319977445"/>
      <point x="524.0" y="252.0" type="curve" smooth="yes"/>
      <point x="496.1542960182604" y="253.1118550537464"/>
      <point x="482.8961034145597" y="289.96390713874797"/>
      <point x="484.0" y="359.0" type="curve" smooth="yes"/>
      <point x="482.5313502839698" y="512.6386782759757"/>
      <point x="579.754407561735" y="668.7056368317548"/>
      <point x="636.0" y="672.0" type="curve" smooth="yes"/>
      <point x="672.1241964704238" y="670.716324126889"/>
      <point x="687.0894595724974" y="627.0101821623973"/>
    </contour>
  </outline>
</glyph>
<glyph name="A" format="2">
  <advance width="1228"/>
  <unicode hex="0041"/>
  <outline>
    <contour>
      <point x="475.6257111379797" y="1139.1271746886225" type="curve" smooth="yes"/>
      <point x="81.62653117903338" y="79.12598554095776" type="line" smooth="yes"/>
      <point x="64.02526589162339" y="39.382953149009154"/>
      <point x="89.19048506634999" y="27.862019237878854"/>
      <point x="148.70901882935033" y="11.269113027385913" type="curve" smooth="yes"/>
      <point x="208.00589102899684" y="-6.041237202977857"/>
      <point x="255.97843332398978" y="0.2703439065728901"/>
      <point x="275.3851559473827" y="40.857035586078645" type="curve" smooth="yes"/>
      <point x="371.27210429099637" y="342.6231418473277" type="line"/>
      <point x="852.7278957090036" y="342.6231418473277" type="line"/>
      <point x="948.6148440526173" y="40.857035586078645" type="line" smooth="yes"/>
      <point x="968.0215666760103" y="0.2703439065728901"/>
      <point x="1015.9941089710031" y="-6.041237202977857"/>
      <point x="1075.2909811706497" y="11.269113027385913" type="curve" smooth="yes"/>
      <point x="1134.80951493365" y="27.862019237878854"/>
      <point x="1159.9747341083767" y="39.382953149009154"/>
      <point x="1142.3734688209665" y="79.12598554095776" type="curve" smooth="yes"/>
      <point x="748.3742888620203" y="1139.1271746886225" type="line" smooth="yes"/>
      <point x="727.7616080942935" y="1182.5725070102453"/>
      <point x="679.8401996194787" y="1195.2447318506267"/>
      <point x="612.0" y="1195.0" type="curve" smooth="yes"/>
      <point x="544.1598003805213" y="1195.2447318506267"/>
      <point x="496.2383919057065" y="1182.5725070102453"/>
    </contour>
    <contour>
      <point x="436.7653587432311" y="469.32846256606945" type="line"/>
      <point x="634.5052753298947" y="1047.678467969348" type="line"/>
      <point x="589.4901649384095" y="1047.6715374339306" type="line"/>
      <point x="786.902866759949" y="469.3215320306519" type="line"/>
    </contour>
  </outline>
</glyph>
<glyph name="B" format="2">
  <advance width="1228"/>
  <unicode hex="0042"/>
  <outline>
    <contour>
      <point x="268.0" y="1173.0" type="line" smooth="yes"/>
      <point x="215.85725067466817" y="1173.5386647330286"/>
      <point x="179.8656640756007" y="1165.417504155572"/>
      <point x="179.0" y="1119.0" type="curve" smooth="yes"/>
      <point x="179.0" y="68.0" type="line" smooth="yes"/>
      <point x="179.8656640756007" y="21.582495844427957"/>
      <point x="215.85725067466817" y="13.461335266971524"/>
      <point x="268.0" y="14.0" type="curve" smooth="yes"/>
      <point x="690.0" y="14.0" type="line" smooth="yes"/>
      <point x="944.1060308653301" y="13.302204496952017"/>
      <point x="1098.0505152778398" y="131.3188639556761"/>
      <point x="1100.0" y="336.0" type="curve" smooth="yes"/>
      <point x="1098.8457732516993" y="475.8749645691089"/>
      <point x="1015.1221946893039" y="564.6115801156399"/>
      <point x="897.6865761563987" y="617.226996418562" type="curve"/>
      <point x="974.8852666650246" y="681.1613447194385"/>
      <point x="1033.083859352181" y="753.6836436810895"/>
      <point x="1034.0" y="858.0" type="curve" smooth="yes"/>
      <point x="1032.3048636672083" y="1046.0276465492618"/>
      <point x="892.099872083147" y="1173.8854784684058"/>
      <point x="644.0" y="1173.0" type="curve" smooth="yes"/>
    </contour>
    <contour>
      <point x="894.0" y="336.0" type="curve" smooth="yes"/>
      <point x="896.6965468816859" y="200.7913476267312"/>
      <point x="818.6466274119398" y="130.42441754687994"/>
      <point x="670.0" y="130.0" type="curve" smooth="yes"/>
      <point x="375.164612096491" y="135.16220042282595" type="line"/>
      <point x="375.29235379353247" y="539.7526153313388" type="line"/>
      <point x="665.0" y="545.0" type="line" smooth="yes"/>
      <point x="825.6708073416429" y="544.5788568451532"/>
      <point x="896.3014241867659" y="472.7587071798628"/>
    </contour>
    <contour>
      <point x="828.0" y="858.0" type="curve" smooth="yes"/>
      <point x="829.9883703205619" y="736.6304384239339"/>
      <point x="770.7861773979479" y="661.5496579727525"/>
      <point x="622.0" y="661.0" type="curve" smooth="yes"/>
      <point x="376.04443506678297" y="666.7784178219446" type="line"/>
      <point x="376.04443506678297" y="1051.2215821780555" type="line"/>
      <point x="622.0" y="1057.0" type="line" smooth="yes"/>
      <point x="772.0858460487289" y="1056.495896654885"/>
      <point x="829.9047790261915" y="984.259871522349"/>
    </contour>
  </outline>
</glyph>
<glyph name="C" format="2">
  <advance width="1228"/>
  <unicode hex="0043"/>
  <outline>
    <contour>
      <point x="124.0" y="594.0" type="curve" smooth="yes"/>
      <point x="125.33023234435794" y="228.42071885437642"/>
      <point x="343.7756994862393" y="-9.371784475137298"/>
      <point x="664.0" y="-8.0" type="curve" smooth="yes"/>
      <point x="800.27528596314" y="-8.111527790915794"/>
      <point x="926.0850178697831" y="22.90390709918926"/>
      <point x="1049.9148933381673" y="91.15069846608637" type="curve" smooth="yes"/>
      <point x="1094.6119227052097" y="110.19134269232765"/>
      <point x="1109.6291470632707" y="130.64384951951172"/>
      <point x="1084.6137152470376" y="177.1410917675148" type="curve" smooth="yes"/>
      <point x="1053.976430173806" y="224.39626053759193"/>
      <point x="995.4927133164684" y="219.5963019132089"/>
      <point x="960.7014196460402" y="203.9698996182641" type="curve" smooth="yes"/>
      <point x="866.2859883176158" y="145.24391600550322"/>
      <point x="771.1372455833657" y="112.15536818461106"/>
      <point x="664.0" y="112.0" type="curve" smooth="yes"/>
      <point x="458.6275534829989" y="113.47801932600117"/>
      <point x="328.8651408473348" y="301.9089405016137"/>
      <point x="330.0" y="594.0" type="curve" smooth="yes"/>
      <point x="328.86059059927555" y="886.0990695420647"/>
      <point x="458.5757893378483" y="1073.5358784406435"/>
      <point x="664.0" y="1075.0" type="curve" smooth="yes"/>
      <point x="771.1372455833657" y="1074.844631815389"/>
      <point x="866.2859883176158" y="1041.7560839944967"/>
      <point x="960.7014196460402" y="983.0301003817359" type="curve" smooth="yes"/>
      <point x="995.4927133164684" y="967.4036980867911"/>
      <point x="1053.976430173806" y="962.603739462408"/>
      <point x="1084.6137152470376" y="1009.8589082324852" type="curve" smooth="yes"/>
      <point x="1109.6291470632707" y="1056.3561504804884"/>
      <point x="1094.6119227052097" y="1076.8086573076723"/>
      <point x="1049.9148933381673" y="1095.8493015339136" type="curve" smooth="yes"/>
      <point x="926.0850178697831" y="1164.0960929008108"/>
      <point x="800.27528596314" y="1195.1115277909157"/>
      <point x="664.0" y="1195.0" type="curve" smooth="yes"/>
      <point x="343.81286543979246" y="1196.362226013304"/>
      <point x="125.33423425068665" y="959.5728112757643"/>
    </contour>
  </outline>
</glyph>
<glyph name="D" format="2">
  <advance width="1228"/>
  <unicode hex="0044"/>
  <outline>
    <contour>
      <point x="238.0" y="1173.0" type="line" smooth="yes"/>
      <point x="185.85725067466817" y="1173.5386647330286"/>
      <point x="149.8656640756007" y="1165.417504155572"/>
      <point x="149.0" y="1119.0" type="curve" smooth="yes"/>
      <point x="149.0" y="68.0" type="line" smooth="yes"/>
      <point x="149.8656640756007" y="21.582495844427957"/>
      <point x="185.85725067466817" y="13.461335266971524"/>
      <point x="238.0" y="14.0" type="curve" smooth="yes"/>
      <point x="574.0" y="14.0" type="line" smooth="yes"/>
      <point x="899.1484521791116" y="12.889479449289048"/>
      <point x="1124.4955530152986" y="227.69320687554756"/>
      <point x="1126.0" y="593.0" type="curve" smooth="yes"/>
      <point x="1124.5001847275485" y="958.313808230693"/>
      <point x="899.1869879615208" y="1174.1193373371154"/>
      <point x="574.0" y="1173.0" type="curve" smooth="yes"/>
    </contour>
    <contour>
      <point x="920.0" y="593.0" type="curve" smooth="yes"/>
      <point x="921.4063658145316" y="290.45795140449974"/>
      <point x="782.6332988978629" y="130.94006066400954"/>
      <point x="555.0" y="130.0" type="curve" smooth="yes"/>
      <point x="350.18871386000365" y="140.53000519255534" type="line"/>
      <point x="350.18871386000365" y="1046.4699948074447" type="line"/>
      <point x="555.0" y="1057.0" type="line" smooth="yes"/>
      <point x="782.5793881631726" y="1056.048691597873"/>
      <point x="921.4006176777217" y="895.5330143834899"/>
    </contour>
  </outline>
</glyph>
<glyph name="E" format="2">
  <advance width="1228"/>
  <unicode hex="0045"/>
  <outline>
    <contour>
      <point x="288.0" y="1173.0" type="line" smooth="yes"/>
      <point x="235.85725067466817" y="1173.5386647330286"/>
      <point x="199.8656640756007" y="1165.417504155572"/>
      <point x="199.0" y="1119.0" type="curve" smooth="yes"/>
      <point x="199.0" y="68.0" type="line" smooth="yes"/>
      <point x="199.8656640756007" y="21.582495844427957"/>
      <point x="235.85725067466817" y="13.461335266971524"/>
      <point x="288.0" y="14.0" type="curve" smooth="yes"/>
      <point x="977.0" y="14.0" type="line" smooth="yes"/>
      <point x="1029.8670574430978" y="13.343739740023597"/>
      <point x="1065.2237050037786" y="23.39549875050866"/>
      <point x="1066.0" y="72.0" type="curve" smooth="yes"/>
      <point x="1065.2237050037786" y="120.60450124949134"/>
      <point x="1029.8670574430978" y="130.6562602599764"/>
      <point x="977.0" y="130.0" type="curve" smooth="yes"/>
      <point x="389.28870360025235" y="132.3036913419846" type="line"/>
      <point x="392.0265570226567" y="550.5804110169928" type="line"/>
      <point x="832.0" y="554.0" type="line" smooth="yes"/>
      <point x="884.8670574430978" y="553.3437397400236"/>
      <point x="920.2237050037786" y="563.3954987505086"/>
      <point x="921.0" y="612.0" type="curve" smooth="yes"/>
      <point x="920.2237050037786" y="660.6045012494914"/>
      <point x="884.8670574430978" y="670.6562602599764"/>
      <point x="832.0" y="670.0" type="curve" smooth="yes"/>
      <point x="391.06138441005874" y="672.9907073649501" type="line"/>
      <point x="388.6498608275944" y="1054.9154773969615" type="line"/>
      <point x="957.0" y="1057.0" type="line" smooth="yes"/>
      <point x="1009.8670574430978" y="1056.3437397400237"/>
      <point x="1045.2237050037786" y="1066.3954987505088"/>
      <point x="1046.0" y="1115.0" type="curve" smooth="yes"/>
      <point x="1045.2237050037786" y="1163.6045012494912"/>
      <point x="1009.8670574430978" y="1173.6562602599763"/>
      <point x="957.0" y="1173.0" type="curve" smooth="yes"/>
    </contour>
  </outline>
</glyph>
<glyph name="F" format="2">
  <advance width="1228"/>
  <unicode hex="0046"/>
  <outline>
    <contour>
      <point x="308.0" y="1173.0" type="line" smooth="yes"/>
      <point x="258.8572506746682" y="1173.5386647330286"/>
      <point x="220.1576580292774" y="1164.8689770704793"/>
      <point x="219.0" y="1119.0" type="curve" smooth="yes"/>
      <point x="219.0" y="55.0" type="line" smooth="yes"/>
      <point x="219.94301943119794" y="12.736307161738532"/>
      <point x="256.5340535687596" y="3.560162961062849"/>
      <point x="319.0" y="4.0" type="curve" smooth="yes"/>
      <point x="321.0" y="4.0" type="line" smooth="yes"/>
      <point x="383.4659464312404" y="3.560162961062849"/>
      <point x="420.05698056880203" y="12.736307161738532"/>
      <point x="421.0" y="55.0" type="curve" smooth="yes"/>
      <point x="412.93606607233323" y="510.13535004156563" type="line"/>
      <point x="862.0" y="514.0" type="line" smooth="yes"/>
      <point x="914.8670574430978" y="513.3437397400236"/>
      <point x="950.2237050037786" y="523.3954987505086"/>
      <point x="951.0" y="572.0" type="curve" smooth="yes"/>
      <point x="950.2237050037786" y="620.6045012494914"/>
      <point x="914.8670574430978" y="630.6562602599764"/>
      <point x="862.0" y="630.0" type="curve" smooth="yes"/>
      <point x="411.8891812491445" y="633.3559411020912" type="line"/>
      <point x="409.70158900886054" y="1054.5469970352995" type="line"/>
      <point x="977.0" y="1057.0" type="line" smooth="yes"/>
      <point x="1029.8670574430978" y="1056.3437397400237"/>
      <point x="1065.2237050037786" y="1066.3954987505088"/>
      <point x="1066.0" y="1115.0" type="curve" smooth="yes"/>
      <point x="1065.2237050037786" y="1163.6045012494912"/>
      <point x="1029.8670574430978" y="1173.6562602599763"/>
      <point x="977.0" y="1173.0" type="curve" smooth="yes"/>
    </contour>
  </outline>
</glyph>
<glyph name="G" format="2">
  <advance width="1228"/>
  <unicode hex="0047"/>
  <outline>
    <contour>
      <point x="84.0" y="594.0" type="curve" smooth="yes"/>
      <point x="85.37855379180785" y="228.49814882649665"/>
      <point x="307.9509121839901" y="-9.32706250496426"/>
      <point x="634.0" y="-8.0" type="curve" smooth="yes"/>
      <point x="790.8150369889879" y="-8.082299641856837"/>
      <point x="946.0363043545357" y="24.127259450940038"/>
      <point x="1059.8996123972777" y="86.15540398974242" type="curve" smooth="yes"/>
      <point x="1088.6348742036366" y="96.76296943724836"/>
      <point x="1108.3265272063272" y="114.16581590079089"/>
      <point x="1109.0" y="143.0" type="curve" smooth="yes"/>
      <point x="1109.0" y="526.0" type="line" smooth="yes"/>
      <point x="1108.1343359243992" y="572.417504155572"/>
      <point x="1072.1427493253318" y="580.5386647330284"/>
      <point x="1020.0" y="580.0" type="curve" smooth="yes"/>
      <point x="666.0" y="580.0" type="line" smooth="yes"/>
      <point x="613.1329425569022" y="580.6562602599764"/>
      <point x="577.7762949962214" y="570.6045012494914"/>
      <point x="577.0" y="522.0" type="curve" smooth="yes"/>
      <point x="577.7762949962214" y="473.39549875050864"/>
      <point x="613.1329425569022" y="463.3437397400236"/>
      <point x="666.0" y="464.0" type="curve" smooth="yes"/>
      <point x="914.6040804239718" y="459.8934910778786" type="line"/>
      <point x="907.9839350841229" y="178.861068346858" type="line"/>
      <point x="838.3651693547498" y="129.22765798779793"/>
      <point x="745.0032331350939" y="112.04284417639192"/>
      <point x="634.0" y="112.0" type="curve" smooth="yes"/>
      <point x="423.374108690082" y="113.41070875755885"/>
      <point x="288.78994500510953" y="301.778701014909"/>
      <point x="290.0" y="594.0" type="curve" smooth="yes"/>
      <point x="288.5476836564942" y="886.6135574126272"/>
      <point x="438.07966485298704" y="1073.6651948899637"/>
      <point x="644.0" y="1075.0" type="curve" smooth="yes"/>
      <point x="751.9691617034058" y="1074.9045535391442"/>
      <point x="847.2400584392893" y="1048.9761806125307"/>
      <point x="942.1193941202515" y="992.161246436517" type="curve" smooth="yes"/>
      <point x="977.9606150001246" y="976.4771131621546"/>
      <point x="1036.5230116755777" y="972.3427243469755"/>
      <point x="1065.9097612689425" y="1020.4997807847903" type="curve" smooth="yes"/>
      <point x="1088.7259876674866" y="1067.0271885216407"/>
      <point x="1073.2713137116516" y="1087.6020879432294"/>
      <point x="1027.360471193841" y="1105.6832440004787" type="curve" smooth="yes"/>
      <point x="902.2855741229314" y="1170.923274312085"/>
      <point x="779.5973831560041" y="1195.070034335646"/>
      <point x="644.0" y="1195.0" type="curve" smooth="yes"/>
      <point x="324.1578355292137" y="1196.2753498298903"/>
      <point x="85.58280584487164" y="959.1898585623105"/>
    </contour>
  </outline>
</glyph>
<glyph name="H" format="2">
  <advance width="1228"/>
  <unicode hex="0048"/>
  <outline>
    <contour>
      <point x="977.0" y="1183.0" type="line" smooth="yes"/>
      <point x="914.5340535687596" y="1183.4398370389372"/>
      <point x="877.943019431198" y="1174.2636928382615"/>
      <point x="877.0" y="1132.0" type="curve" smooth="yes"/>
      <point x="887.0720261084741" y="672.9346527532429" type="line"/>
      <point x="340.92797389152594" y="672.9346527532429" type="line"/>
      <point x="351.0" y="1132.0" type="line" smooth="yes"/>
      <point x="350.05698056880203" y="1174.2636928382615"/>
      <point x="313.4659464312404" y="1183.4398370389372"/>
      <point x="251.0" y="1183.0" type="curve" smooth="yes"/>
      <point x="249.0" y="1183.0" type="line" smooth="yes"/>
      <point x="186.53405356875962" y="1183.4398370389372"/>
      <point x="149.94301943119794" y="1174.2636928382615"/>
      <point x="149.0" y="1132.0" type="curve" smooth="yes"/>
      <point x="149.0" y="55.0" type="line" smooth="yes"/>
      <point x="149.94301943119794" y="12.736307161738532"/>
      <point x="186.53405356875962" y="3.560162961062849"/>
      <point x="249.0" y="4.0" type="curve" smooth="yes"/>
      <point x="251.0" y="4.0" type="line" smooth="yes"/>
      <point x="313.4659464312404" y="3.560162961062849"/>
      <point x="350.05698056880203" y="12.736307161738532"/>
      <point x="351.0" y="55.0" type="curve" smooth="yes"/>
      <point x="341.7124862068409" y="550.724618428688" type="line"/>
      <point x="886.2875137931591" y="550.724618428688" type="line"/>
      <point x="877.0" y="55.0" type="line" smooth="yes"/>
      <point x="877.943019431198" y="12.736307161738532"/>
      <point x="914.5340535687596" y="3.560162961062849"/>
      <point x="977.0" y="4.0" type="curve" smooth="yes"/>
      <point x="979.0" y="4.0" type="line" smooth="yes"/>
      <point x="1041.4659464312404" y="3.560162961062849"/>
      <point x="1078.0569805688021" y="12.736307161738532"/>
      <point x="1079.0" y="55.0" type="curve" smooth="yes"/>
      <point x="1079.0" y="1132.0" type="line" smooth="yes"/>
      <point x="1078.0569805688021" y="1174.2636928382615"/>
      <point x="1041.4659464312404" y="1183.4398370389372"/>
      <point x="979.0" y="1183.0" type="curve" smooth="yes"/>
    </contour>
  </outline>
</glyph>
<glyph name="J" format="2">
  <advance width="1228"/>
  <unicode hex="004A"/>
  <outline>
    <contour>
      <point x="443.0" y="1173.0" type="line" smooth="yes"/>
      <point x="390.1329425569022" y="1173.6562602599763"/>
      <point x="354.7762949962214" y="1163.6045012494912"/>
      <point x="354.0" y="1115.0" type="curve" smooth="yes"/>
      <point x="354.7762949962214" y="1066.3954987505088"/>
      <point x="390.1329425569022" y="1056.3437397400237"/>
      <point x="443.0" y="1057.0" type="curve" smooth="yes"/>
      <point x="781.0354942175418" y="1049.564627388266" type="line"/>
      <point x="778.0" y="363.0" type="line" smooth="yes"/>
      <point x="779.0648899256211" y="206.03433822251034"/>
      <point x="724.7988054671869" y="112.90599239561203"/>
      <point x="582.0" y="112.0" type="curve" smooth="yes"/>
      <point x="482.2540825901883" y="112.18866851375506"/>
      <point x="389.02671617407054" y="147.58781215368364"/>
      <point x="309.63048173124446" y="210.81232874208303" type="curve" smooth="yes"/>
      <point x="277.6561575852067" y="229.00132632760636"/>
      <point x="219.35324255932073" y="234.43281720069433"/>
      <point x="180.12188019602175" y="189.43566222162048" type="curve" smooth="yes"/>
      <point x="148.03646381523927" y="147.08653424951657"/>
      <point x="157.64909149305197" y="125.98919262254769"/>
      <point x="198.4984019047619" y="103.23954408733182" type="curve" smooth="yes"/>
      <point x="303.65200439953014" y="29.596121972181432"/>
      <point x="445.22829344985956" y="-8.148091525914262"/>
      <point x="581.0" y="-8.0" type="curve" smooth="yes"/>
      <point x="825.3209141138426" y="-8.736320664686748"/>
      <point x="978.256404041169" y="109.04049652773155"/>
      <point x="980.0" y="333.0" type="curve" smooth="yes"/>
      <point x="980.0" y="1119.0" type="line" smooth="yes"/>
      <point x="978.8423419707226" y="1164.8689770704793"/>
      <point x="940.1427493253318" y="1173.5386647330286"/>
      <point x="891.0" y="1173.0" type="curve" smooth="yes"/>
    </contour>
  </outline>
</glyph>
<glyph name="K" format="2">
  <advance width="1228"/>
  <unicode hex="004B"/>
  <outline>
    <contour>
      <point x="289.0" y="1183.0" type="line" smooth="yes"/>
      <point x="226.53405356875962" y="1183.4398370389372"/>
      <point x="189.94301943119794" y="1174.2636928382615"/>
      <point x="189.0" y="1132.0" type="curve" smooth="yes"/>
      <point x="189.0" y="55.0" type="line" smooth="yes"/>
      <point x="189.94301943119794" y="12.736307161738532"/>
      <point x="226.53405356875962" y="3.560162961062849"/>
      <point x="289.0" y="4.0" type="curve" smooth="yes"/>
      <point x="291.0" y="4.0" type="line" smooth="yes"/>
      <point x="353.4659464312404" y="3.560162961062849"/>
      <point x="390.05698056880203" y="12.736307161738532"/>
      <point x="391.0" y="55.0" type="curve" smooth="yes"/>
      <point x="389.52807015849316" y="370.23110708586734" type="line"/>
      <point x="525.393207994445" y="561.7070765782786" type="line"/>
      <point x="932.3119179688501" y="14.479756552742394" type="line" smooth="yes"/>
      <point x="965.2336603523958" y="-14.803869071147275"/>
      <point x="1016.911816165352" y="-11.848088963953543"/>
      <point x="1064.8734457921373" y="12.163444427694404" type="curve" smooth="yes"/>
      <point x="1119.552663229582" y="37.80826111997483"/>
      <point x="1130.467942623282" y="50.26521783371588"/>
      <point x="1098.6754881544757" y="83.51134230851832" type="curve" smooth="yes"/>
      <point x="669.9673140111084" y="660.6004532695208" type="line"/>
      <point x="1071.8848173322303" y="1103.6227110679042" type="line" smooth="yes"/>
      <point x="1108.4041405368034" y="1133.09785299346"/>
      <point x="1103.1378353172527" y="1147.144516007926"/>
      <point x="1050.2486826900827" y="1175.2895441858834" type="curve" smooth="yes"/>
      <point x="1005.1638297387096" y="1199.8983972701208"/>
      <point x="950.049379121881" y="1202.8557315775874"/>
      <point x="917.0531100955525" y="1181.4127325608579" type="curve" smooth="yes"/>
      <point x="362.3277126724356" y="569.9764255462977" type="line"/>
      <point x="391.0" y="1132.0" type="line" smooth="yes"/>
      <point x="390.05698056880203" y="1174.2636928382615"/>
      <point x="353.4659464312404" y="1183.4398370389372"/>
      <point x="291.0" y="1183.0" type="curve" smooth="yes"/>
    </contour>
  </outline>
</glyph>
<glyph name="L" format="2">
  <advance width="1228"/>
  <unicode hex="004C"/>
  <outline>
    <contour>
      <point x="319.0" y="1183.0" type="line" smooth="yes"/>
      <point x="256.5340535687596" y="1183.4398370389372"/>
      <point x="219.94301943119794" y="1174.2636928382615"/>
      <point x="219.0" y="1132.0" type="curve" smooth="yes"/>
      <point x="219.0" y="68.0" type="line" smooth="yes"/>
      <point x="219.77629499622137" y="21.39549875050866"/>
      <point x="254.85725067466817" y="13.461335266971524"/>
      <point x="308.0" y="14.0" type="curve" smooth="yes"/>
      <point x="977.0" y="14.0" type="line" smooth="yes"/>
      <point x="1029.8670574430978" y="13.343739740023597"/>
      <point x="1065.2237050037786" y="23.39549875050866"/>
      <point x="1066.0" y="72.0" type="curve" smooth="yes"/>
      <point x="1065.2237050037786" y="120.60450124949134"/>
      <point x="1029.8670574430978" y="130.6562602599764"/>
      <point x="977.0" y="130.0" type="curve" smooth="yes"/>
      <point x="417.40212491426064" y="136.89424969630196" type="line"/>
      <point x="421.0" y="1132.0" type="line" smooth="yes"/>
      <point x="420.05698056880203" y="1174.2636928382615"/>
      <point x="383.4659464312404" y="1183.4398370389372"/>
      <point x="321.0" y="1183.0" type="curve" smooth="yes"/>
    </contour>
  </outline>
</glyph>
<glyph name="P" format="2">
  <advance width="1228"/>
  <unicode hex="0050"/>
  <outline>
    <contour>
      <point x="298.0" y="1173.0" type="line" smooth="yes"/>
      <point x="245.85725067466817" y="1173.5386647330286"/>
      <point x="209.8656640756007" y="1165.417504155572"/>
      <point x="209.0" y="1119.0" type="curve" smooth="yes"/>
      <point x="209.0" y="55.0" type="line" smooth="yes"/>
      <point x="209.94301943119794" y="12.736307161738532"/>
      <point x="246.53405356875962" y="3.560162961062849"/>
      <point x="309.0" y="4.0" type="curve" smooth="yes"/>
      <point x="311.0" y="4.0" type="line" smooth="yes"/>
      <point x="373.4659464312404" y="3.560162961062849"/>
      <point x="410.05698056880203" y="12.736307161738532"/>
      <point x="411.0" y="55.0" type="curve" smooth="yes"/>
      <point x="405.7557031284621" y="401.43170916802563" type="line"/>
      <point x="640.0" y="407.0" type="line" smooth="yes"/>
      <point x="929.0301732514134" y="406.12848265013184"/>
      <point x="1096.2654021286762" y="558.0279236348416"/>
      <point x="1098.0" y="788.0" type="curve" smooth="yes"/>
      <point x="1096.2966811081533" y="1019.0160654137121"/>
      <point x="929.1785585349927" y="1173.901386970355"/>
      <point x="640.0" y="1173.0" type="curve" smooth="yes"/>
    </contour>
    <contour>
      <point x="408.5987472677965" y="531.123632103276" type="line"/>
      <point x="408.5987472677965" y="1048.876367896724" type="line"/>
      <point x="619.0" y="1057.0" type="line" smooth="yes"/>
      <point x="808.2023514713067" y="1056.3555469480812"/>
      <point x="893.8596060369832" y="954.1994694689574"/>
      <point x="892.0" y="788.0" type="curve" smooth="yes"/>
      <point x="893.9129148475876" y="623.7293353359416"/>
      <point x="808.3537679302244" y="523.6190938778927"/>
      <point x="619.0" y="523.0" type="curve" smooth="yes"/>
    </contour>
  </outline>
</glyph>
<glyph name="Q" format="2">
  <advance width="1228"/>
  <unicode hex="0051"/>
  <outline>
    <contour>
      <point x="575.0944241321647" y="307.5412638233531" type="curve" smooth="yes"/>
      <point x="706.083162899537" y="102.53177109862688" type="line"/>
      <point x="732.1355391220368" y="61.575779755709" type="line"/>
      <point x="854.1763360742199" y="-127.39018970531083" type="line" smooth="yes"/>
      <point x="884.0159353297845" y="-162.39980579149136"/>
      <point x="935.1203479484813" y="-165.7003275587375"/>
      <point x="987.8838177760875" y="-137.1631553575664" type="curve" smooth="yes"/>
      <point x="1041.040728878464" y="-109.46678756557331"/>
      <point x="1051.8502542267706" y="-96.11720188372533"/>
      <point x="1023.8721426603611" y="-61.56934779334013" type="curve" smooth="yes"/>
      <point x="744.8856297124422" y="373.4419636436097" type="line" smooth="yes"/>
      <point x="715.2021625642581" y="409.50227002488873"/>
      <point x="663.8796520515187" y="412.7003275587375"/>
      <point x="610.8466177584181" y="384.25608383989805" type="curve" smooth="yes"/>
      <point x="558.959271121536" y="355.4667875655733"/>
      <point x="547.0443044124382" y="342.92793788537955"/>
    </contour>
    <component base="O"/>
  </outline>
</glyph>
<glyph name="S" format="2">
  <advance width="1228"/>
  <unicode hex="0053"/>
  <outline>
    <contour>
      <point x="146.0" y="863.0" type="curve" smooth="yes"/>
      <point x="147.27654452592816" y="728.3328842503544"/>
      <point x="225.98591726370302" y="662.4298189530961"/>
      <point x="325.2795996238531" y="620.7545276270056" type="curve" smooth="yes"/>
      <point x="468.02073065508915" y="559.7408682883598"/>
      <point x="659.5933514434096" y="557.7974551672161"/>
      <point x="776.8173557057393" y="504.8816584445467" type="curve" smooth="yes"/>
      <point x="844.912929727795" y="472.76701037530336"/>
      <point x="883.5813720417352" y="418.80803064849874"/>
      <point x="882.0" y="327.0" type="curve" smooth="yes"/>
      <point x="884.3143558952197" y="203.22588775555107"/>
      <point x="809.7535323931029" y="112.55474684985356"/>
      <point x="622.0" y="112.0" type="curve" smooth="yes"/>
      <point x="495.4843058582647" y="112.20980130082368"/>
      <point x="376.24411022777355" y="158.37689512165045"/>
      <point x="284.05070702154643" y="220.22039070540265" type="curve" smooth="yes"/>
      <point x="249.6180522819648" y="236.61443445193228"/>
      <point x="191.32306337717276" y="240.2593485098835"/>
      <point x="157.93236316790052" y="192.54106168701216" type="curve" smooth="yes"/>
      <point x="130.5413552534992" y="148.15799369152572"/>
      <point x="143.59304809613093" y="125.67502004010629"/>
      <point x="187.30987098739763" y="105.90207530342434" type="curve" smooth="yes"/>
      <point x="308.67220184966095" y="33.84810963530241"/>
      <point x="465.3468343635129" y="-8.138883157443598"/>
      <point x="622.0" y="-8.0" type="curve" smooth="yes"/>
      <point x="924.0362378807765" y="-8.685523037766727"/>
      <point x="1085.9857422753744" y="126.40300388041274"/>
      <point x="1088.0" y="327.0" type="curve" smooth="yes"/>
      <point x="1086.598738174628" y="498.4659722240257"/>
      <point x="986.9518707485447" y="575.1863783796821"/>
      <point x="865.7181830421368" y="621.01473547931" type="curve" smooth="yes"/>
      <point x="709.4299415460364" y="681.2047076726636"/>
      <point x="513.4942296628822" y="680.2107380154821"/>
      <point x="414.7478885722516" y="735.5106273364031" type="curve" smooth="yes"/>
      <point x="370.8135926680562" y="760.8871884640388"/>
      <point x="350.77249254227945" y="802.7490989128632"/>
      <point x="352.0" y="863.0" type="curve" smooth="yes"/>
      <point x="349.57898319340785" y="990.8993260204174"/>
      <point x="425.5072866835315" y="1074.403698086791"/>
      <point x="578.0" y="1075.0" type="curve" smooth="yes"/>
      <point x="705.4685174084237" y="1074.8702574184983"/>
      <point x="815.7311625184967" y="1039.861804805428"/>
      <point x="909.7014196460402" y="981.0301003817359" type="curve" smooth="yes"/>
      <point x="945.3252120921638" y="965.530791776971"/>
      <point x="1004.1912256012125" y="962.5029233332851"/>
      <point x="1034.6137152470376" y="1009.8589082324852" type="curve" smooth="yes"/>
      <point x="1059.5855354307475" y="1056.4897879705547"/>
      <point x="1045.9439986239627" y="1078.0182271931244"/>
      <point x="1000.9148933381673" y="1096.8493015339136" type="curve" smooth="yes"/>
      <point x="876.4281524025622" y="1164.952887559839"/>
      <point x="733.7730196590364" y="1195.0798541681618"/>
      <point x="578.0" y="1195.0" type="curve" smooth="yes"/>
      <point x="330.1267822555239" y="1195.657313756827"/>
      <point x="148.55828646617016" y="1073.944137143995"/>
    </contour>
  </outline>
</glyph>
<glyph name="T" format="2">
  <advance width="1228"/>
  <unicode hex="0054"/>
  <outline>
    <contour>
      <point x="185.0" y="1173.0" type="line" smooth="yes"/>
      <point x="132.13294255690218" y="1173.6562602599763"/>
      <point x="96.77629499622137" y="1163.6045012494912"/>
      <point x="96.0" y="1115.0" type="curve" smooth="yes"/>
      <point x="96.77629499622137" y="1066.3954987505088"/>
      <point x="132.13294255690218" y="1056.3437397400237"/>
      <point x="185.0" y="1057.0" type="curve" smooth="yes"/>
      <point x="514.5236909898948" y="1047.722227789399" type="line"/>
      <point x="513.0" y="55.0" type="line" smooth="yes"/>
      <point x="513.943019431198" y="12.736307161738532"/>
      <point x="550.5340535687596" y="3.560162961062849"/>
      <point x="613.0" y="4.0" type="curve" smooth="yes"/>
      <point x="615.0" y="4.0" type="line" smooth="yes"/>
      <point x="677.4659464312404" y="3.560162961062849"/>
      <point x="714.056980568802" y="12.736307161738532"/>
      <point x="715.0" y="55.0" type="curve" smooth="yes"/>
      <point x="713.4763090101052" y="1047.722227789399" type="line"/>
      <point x="1043.0" y="1057.0" type="line" smooth="yes"/>
      <point x="1095.8670574430978" y="1056.3437397400237"/>
      <point x="1131.2237050037786" y="1066.3954987505088"/>
      <point x="1132.0" y="1115.0" type="curve" smooth="yes"/>
      <point x="1131.2237050037786" y="1163.6045012494912"/>
      <point x="1095.8670574430978" y="1173.6562602599763"/>
      <point x="1043.0" y="1173.0" type="curve" smooth="yes"/>
    </contour>
  </outline>
</glyph>
<glyph name="U" format="2">
  <advance width="1228"/>
  <unicode hex="0055"/>
  <outline>
    <contour>
      <point x="977.0" y="1183.0" type="line" smooth="yes"/>
      <point x="914.5340535687596" y="1183.4398370389372"/>
      <point x="877.943019431198" y="1174.2636928382615"/>
      <point x="877.0" y="1132.0" type="curve" smooth="yes"/>
      <point x="877.0" y="433.0" type="line" smooth="yes"/>
      <point x="878.4484826092676" y="220.39236118124313"/>
      <point x="787.5740956696945" y="112.75555208997059"/>
      <point x="614.0" y="112.0" type="curve" smooth="yes"/>
      <point x="440.4259043303054" y="112.75555208997059"/>
      <point x="349.5515173907325" y="220.39236118124313"/>
      <point x="351.0" y="433.0" type="curve" smooth="yes"/>
      <point x="351.0" y="1132.0" type="line" smooth="yes"/>
      <point x="350.05698056880203" y="1174.2636928382615"/>
      <point x="313.4659464312404" y="1183.4398370389372"/>
      <point x="251.0" y="1183.0" type="curve" smooth="yes"/>
      <point x="249.0" y="1183.0" type="line" smooth="yes"/>
      <point x="186.53405356875962" y="1183.4398370389372"/>
      <point x="149.94301943119794" y="1174.2636928382615"/>
      <point x="149.0" y="1132.0" type="curve" smooth="yes"/>
      <point x="149.0" y="413.0" type="line" smooth="yes"/>
      <point x="150.95608065273555" y="133.32750326120643"/>
      <point x="345.5933632007116" y="-8.7520026234804"/>
      <point x="614.0" y="-8.0" type="curve" smooth="yes"/>
      <point x="882.4066367992884" y="-8.7520026234804"/>
      <point x="1077.0439193472644" y="133.32750326120643"/>
      <point x="1079.0" y="413.0" type="curve" smooth="yes"/>
      <point x="1079.0" y="1132.0" type="line" smooth="yes"/>
      <point x="1078.0569805688021" y="1174.2636928382615"/>
      <point x="1041.4659464312404" y="1183.4398370389372"/>
      <point x="979.0" y="1183.0" type="curve" smooth="yes"/>
    </contour>
  </outline>
</glyph>
<glyph name="V" format="2">
  <advance width="1228"/>
  <unicode hex="0056"/>
  <outline>
    <contour>
      <point x="948.6327804285049" y="1146.1169342813291" type="curve" smooth="yes"/>
      <point x="612.0" y="168.0" type="line"/>
      <point x="275.367219571495" y="1146.1169342813291" type="line" smooth="yes"/>
      <point x="255.97843332398978" y="1186.7296560934271"/>
      <point x="208.00589102899684" y="1193.0412372029778"/>
      <point x="148.70901882935033" y="1175.7308869726141" type="curve" smooth="yes"/>
      <point x="89.33718510123019" y="1159.08882803697"/>
      <point x="63.02526589162339" y="1147.6170468509908"/>
      <point x="81.66996284197062" y="1107.9365292784407" type="curve" smooth="yes"/>
      <point x="480.6690170206634" y="47.93517749403679" type="line" smooth="yes"/>
      <point x="502.3917762832804" y="4.5359506518956945"/>
      <point x="549.8459275023437" y="-8.277832623761066"/>
      <point x="612.0" y="-8.0" type="curve" smooth="yes"/>
      <point x="674.1540724976563" y="-8.277832623761066"/>
      <point x="721.6082237167196" y="4.5359506518956945"/>
      <point x="743.3309829793366" y="47.93517749403679" type="curve" smooth="yes"/>
      <point x="1142.3300371580294" y="1107.9365292784407" type="line" smooth="yes"/>
      <point x="1160.9747341083767" y="1147.6170468509908"/>
      <point x="1134.6628148987697" y="1159.08882803697"/>
      <point x="1075.2909811706497" y="1175.7308869726141" type="curve" smooth="yes"/>
      <point x="1015.9941089710031" y="1193.0412372029778"/>
      <point x="968.0215666760103" y="1186.7296560934271"/>
    </contour>
  </outline>
</glyph>
<glyph name="W" format="2">
  <advance width="1228"/>
  <unicode hex="0057"/>
  <outline>
    <contour>
      <point x="977.2076747263653" y="1137.2340466946268" type="curve" smooth="yes"/>
      <point x="873.3796581317984" y="247.70533139934741" type="line"/>
      <point x="708.5221766211521" y="840.3472793259905" type="line" smooth="yes"/>
      <point x="695.8" y="862.6"/>
      <point x="659.4744579745724" y="871.3138550635692"/>
      <point x="610.0" y="871.0" type="curve" smooth="yes"/>
      <point x="560.5255420254276" y="871.3138550635692"/>
      <point x="524.2" y="862.6"/>
      <point x="511.4778233788479" y="840.3472793259905" type="curve" smooth="yes"/>
      <point x="346.62034186820165" y="247.70533139934741" type="line"/>
      <point x="242.7923252736347" y="1137.2340466946268" type="line" smooth="yes"/>
      <point x="235.03372227190937" y="1180.6591728284645"/>
      <point x="194.39181732685608" y="1188.1196398624045"/>
      <point x="132.00226887758004" y="1182.093365680608" type="curve" smooth="yes"/>
      <point x="70.08818383464806" y="1175.8480889639536"/>
      <point x="35.34348361581798" y="1166.7318579086314"/>
      <point x="42.24599037846079" y="1123.9212582666157" type="curve" smooth="yes"/>
      <point x="191.2451311320494" y="44.91791576676228" type="line" smooth="yes"/>
      <point x="201.10775140202344" y="0.6373975224902448"/>
      <point x="246.8389638953013" y="-8.278591510103972"/>
      <point x="303.0" y="-8.0" type="curve" smooth="yes"/>
      <point x="360.022133709957" y="-8.380712994404863"/>
      <point x="407.7616080942935" y="6.427492989754629"/>
      <point x="427.5141604416329" y="47.66495238929525" type="curve" smooth="yes"/>
      <point x="610.0" y="643.0" type="line"/>
      <point x="792.4858395583672" y="47.66495238929525" type="line" smooth="yes"/>
      <point x="812.2383919057065" y="6.427492989754629"/>
      <point x="859.9778662900429" y="-8.380712994404863"/>
      <point x="917.0" y="-8.0" type="curve" smooth="yes"/>
      <point x="973.1610361046987" y="-8.278591510103972"/>
      <point x="1018.8922485979765" y="0.6373975224902448"/>
      <point x="1028.7548688679506" y="44.91791576676228" type="curve" smooth="yes"/>
      <point x="1177.7540096215391" y="1123.9212582666157" type="line" smooth="yes"/>
      <point x="1184.656516384182" y="1166.7318579086314"/>
      <point x="1149.9118161653519" y="1175.8480889639536"/>
      <point x="1087.99773112242" y="1182.093365680608" type="curve" smooth="yes"/>
      <point x="1025.608182673144" y="1188.1196398624045"/>
      <point x="984.9662777280906" y="1180.6591728284645"/>
    </contour>
  </outline>
</glyph>
<glyph name="Y" format="2">
  <advance width="1228"/>
  <unicode hex="0059"/>
  <outline>
    <contour>
      <point x="933.1909021136421" y="1164.3780916754679" type="curve" smooth="yes"/>
      <point x="614.1995849609375" y="632.019775390625" type="line"/>
      <point x="294.81980205252114" y="1164.386979511852" type="line" smooth="yes"/>
      <point x="267.7321649558725" y="1193.8537292822766"/>
      <point x="217.22398266643668" y="1196.3498393783739"/>
      <point x="162.11917042538465" y="1174.2849225592875" type="curve" smooth="yes"/>
      <point x="103.99720509656969" y="1152.408515391981"/>
      <point x="88.98633775375801" y="1139.8195374038464"/>
      <point x="118.24624496037328" y="1103.6676269220727" type="curve" smooth="yes"/>
      <point x="514.7222112425395" y="491.7532019768609" type="line"/>
      <point x="513.0" y="55.0" type="line" smooth="yes"/>
      <point x="513.943019431198" y="12.736307161738532"/>
      <point x="550.5340535687596" y="3.560162961062849"/>
      <point x="613.0" y="4.0" type="curve" smooth="yes"/>
      <point x="615.0" y="4.0" type="line" smooth="yes"/>
      <point x="677.4659464312404" y="3.560162961062849"/>
      <point x="714.056980568802" y="12.736307161738532"/>
      <point x="715.0" y="55.0" type="curve" smooth="yes"/>
      <point x="713.2777887574605" y="492.46380378350153" type="line"/>
      <point x="1109.7466049937316" y="1103.6735052477652" type="line" smooth="yes"/>
      <point x="1139.013662246242" y="1139.8195374038464"/>
      <point x="1124.0027949034304" y="1152.408515391981"/>
      <point x="1065.8808295746153" y="1174.2849225592875" type="curve" smooth="yes"/>
      <point x="1010.8463471741677" y="1196.3585232602754"/>
      <point x="961.2678350441275" y="1193.8537292822766"/>
    </contour>
  </outline>
</glyph>
<glyph name="Z" format="2">
  <advance width="1228"/>
  <unicode hex="005A"/>
  <outline>
    <contour>
      <point x="256.0" y="1173.0" type="line" smooth="yes"/>
      <point x="203.13294255690218" y="1173.6562602599763"/>
      <point x="167.77629499622137" y="1163.6045012494912"/>
      <point x="167.0" y="1115.0" type="curve" smooth="yes"/>
      <point x="167.77629499622137" y="1066.3954987505088"/>
      <point x="203.13294255690218" y="1056.3437397400237"/>
      <point x="256.0" y="1057.0" type="curve" smooth="yes"/>
      <point x="795.5859144254727" y="1041.8770207619987" type="line"/>
      <point x="159.5696349247262" y="103.07272956970361" type="line" smooth="yes"/>
      <point x="150.31484358530727" y="92.1595528349542"/>
      <point x="141.47372388465269" y="83.33969330807794"/>
      <point x="141.0" y="68.0" type="curve" smooth="yes"/>
      <point x="141.8656640756007" y="21.582495844427957"/>
      <point x="177.85725067466817" y="13.461335266971524"/>
      <point x="230.0" y="14.0" type="curve" smooth="yes"/>
      <point x="996.0" y="14.0" type="line" smooth="yes"/>
      <point x="1048.8670574430978" y="13.343739740023597"/>
      <point x="1084.2237050037786" y="23.39549875050866"/>
      <point x="1085.0" y="72.0" type="curve" smooth="yes"/>
      <point x="1084.2237050037786" y="120.60450124949134"/>
      <point x="1048.8670574430978" y="130.6562602599764"/>
      <point x="996.0" y="130.0" type="curve" smooth="yes"/>
      <point x="413.48184180831333" y="144.523138662314" type="line"/>
      <point x="1052.4237683854658" y="1087.932438554498" type="line" smooth="yes"/>
      <point x="1061.8438214625842" y="1095.5821655598022"/>
      <point x="1066.8619866394904" y="1104.440588115197"/>
      <point x="1067.0" y="1119.0" type="curve" smooth="yes"/>
      <point x="1066.1343359243992" y="1165.417504155572"/>
      <point x="1030.1427493253318" y="1173.5386647330286"/>
      <point x="978.0" y="1173.0" type="curve" smooth="yes"/>
    </contour>
  </outline>
</glyph>
<glyph name="bracketleft" format="2">
  <advance width="1228"/>
  <unicode hex="005B"/>
  <outline>
    <contour>
      <point x="393.0" y="1358.0" type="line" smooth="yes"/>
      <point x="340.8572506746682" y="1358.5386647330286"/>
      <point x="304.8656640756007" y="1350.417504155572"/>
      <point x="304.0" y="1304.0" type="curve" smooth="yes"/>
      <point x="304.0" y="-265.0" type="line" smooth="yes"/>
      <point x="304.8656640756007" y="-311.41750415557203"/>
      <point x="340.8572506746682" y="-319.5386647330285"/>
      <point x="393.0" y="-319.0" type="curve" smooth="yes"/>
      <point x="807.0" y="-319.0" type="line" smooth="yes"/>
      <point x="859.8670574430978" y="-319.6562602599764"/>
      <point x="895.2237050037786" y="-309.60450124949136"/>
      <point x="896.0" y="-261.0" type="curve" smooth="yes"/>
      <point x="895.2237050037786" y="-212.39549875050866"/>
      <point x="859.8670574430978" y="-202.3437397400236"/>
      <point x="807.0" y="-203.0" type="curve" smooth="yes"/>
      <point x="505.33417108806015" y="-192.14803309378263" type="line"/>
      <point x="505.33417108806015" y="1231.1480330937827" type="line"/>
      <point x="807.0" y="1242.0" type="line" smooth="yes"/>
      <point x="859.8670574430978" y="1241.3437397400237"/>
      <point x="895.2237050037786" y="1251.3954987505088"/>
      <point x="896.0" y="1300.0" type="curve" smooth="yes"/>
      <point x="895.2237050037786" y="1348.6045012494912"/>
      <point x="859.8670574430978" y="1358.6562602599763"/>
      <point x="807.0" y="1358.0" type="curve" smooth="yes"/>
    </contour>
  </outline>
</glyph>
<glyph name="backslash" format="2">
  <advance width="1228"/>
  <unicode hex="005C"/>
  <outline>
    <contour>
      <point x="176.9332742725467" y="1329.2975616391707" type="curve" smooth="yes"/>
      <point x="848.9371614738359" y="-313.69732104039275" type="line" smooth="yes"/>
      <point x="862.8339923547808" y="-330.53985520075713"/>
      <point x="899.2728617841739" y="-341.47672727895457"/>
      <point x="938.0" y="-341.0" type="curve" smooth="yes"/>
      <point x="1008.1427493253318" y="-341.5386647330285"/>
      <point x="1067.373057072254" y="-320.1253885855492"/>
      <point x="1051.0667257274533" y="-290.2975616391707" type="curve" smooth="yes"/>
      <point x="379.0628385261641" y="1352.6973210403928" type="line" smooth="yes"/>
      <point x="365.1660076452193" y="1369.539855200757"/>
      <point x="328.7271382158262" y="1380.4767272789545"/>
      <point x="290.0" y="1380.0" type="curve" smooth="yes"/>
      <point x="219.85725067466817" y="1380.5386647330286"/>
      <point x="160.62694292774611" y="1359.1253885855492"/>
    </contour>
  </outline>
</glyph>
<glyph name="bracketright" format="2">
  <advance width="1228"/>
  <unicode hex="005D"/>
  <outline>
    <contour>
      <point x="421.0" y="-203.0" type="line" smooth="yes"/>
      <point x="368.1329425569022" y="-202.3437397400236"/>
      <point x="332.7762949962214" y="-212.39549875050866"/>
      <point x="332.0" y="-261.0" type="curve" smooth="yes"/>
      <point x="332.7762949962214" y="-309.60450124949136"/>
      <point x="368.1329425569022" y="-319.6562602599764"/>
      <point x="421.0" y="-319.0" type="curve" smooth="yes"/>
      <point x="835.0" y="-319.0" type="line" smooth="yes"/>
      <point x="887.1427493253318" y="-319.5386647330285"/>
      <point x="923.1343359243994" y="-311.41750415557203"/>
      <point x="924.0" y="-265.0" type="curve" smooth="yes"/>
      <point x="924.0" y="1304.0" type="line" smooth="yes"/>
      <point x="923.1343359243994" y="1350.417504155572"/>
      <point x="887.1427493253318" y="1358.5386647330286"/>
      <point x="835.0" y="1358.0" type="curve" smooth="yes"/>
      <point x="421.0" y="1358.0" type="line" smooth="yes"/>
      <point x="368.1329425569022" y="1358.6562602599763"/>
      <point x="332.7762949962214" y="1348.6045012494912"/>
      <point x="332.0" y="1300.0" type="curve" smooth="yes"/>
      <point x="332.7762949962214" y="1251.3954987505088"/>
      <point x="368.1329425569022" y="1241.3437397400237"/>
      <point x="421.0" y="1242.0" type="curve" smooth="yes"/>
      <point x="722.6658289119399" y="1231.1480330937827" type="line"/>
      <point x="722.6658289119399" y="-192.14803309378263" type="line"/>
    </contour>
  </outline>
</glyph>
<glyph name="asciicircum" format="2">
  <advance width="1228"/>
  <unicode hex="005E"/>
  <outline>
    <contour>
      <point x="522.9507991067595" y="1165.522006953457" type="curve" smooth="yes"/>
      <point x="214.94747880796876" y="574.5254334325889" type="line" smooth="yes"/>
      <point x="194.2784505470634" y="549.0434522263997"/>
      <point x="233.57117757384563" y="531.9880783197046"/>
      <point x="275.08831346510993" y="522.3360870019552" type="curve" smooth="yes"/>
      <point x="316.0933359002355" y="510.9122384262232"/>
      <point x="374.9449958907179" y="512.4350470041833"/>
      <point x="400.30088366356955" y="533.211447822317" type="curve" smooth="yes"/>
      <point x="614.0" y="1021.0" type="line"/>
      <point x="827.6900910104611" y="533.201621758725" type="line" smooth="yes"/>
      <point x="853.2207039487295" y="511.480792590304"/>
      <point x="915.3759387611683" y="509.8814824585101"/>
      <point x="958.0528497696943" y="523.1239538081367" type="curve" smooth="yes"/>
      <point x="996.2486826900827" y="533.7104558141166"/>
      <point x="1032.7642342926836" y="549.8810914216301"/>
      <point x="1013.0597661883414" y="574.5329181362824" type="curve" smooth="yes"/>
      <point x="705.0492008932405" y="1165.522006953457" type="line" smooth="yes"/>
      <point x="689.4634537939339" y="1187.3636567148262"/>
      <point x="658.9806618021532" y="1195.3754154211304"/>
      <point x="614.0" y="1195.0" type="curve" smooth="yes"/>
      <point x="569.0193381978468" y="1195.3754154211304"/>
      <point x="538.5365462060661" y="1187.3636567148262"/>
    </contour>
  </outline>
</glyph>
<glyph name="underscore" format="2">
  <advance width="1228"/>
  <unicode hex="005F"/>
  <outline>
    <contour>
      <point x="133.0" y="-263.0" type="line" smooth="yes"/>
      <point x="80.13294255690218" y="-262.3437397400236"/>
      <point x="44.77629499622137" y="-272.39549875050864"/>
      <point x="44.0" y="-321.0" type="curve" smooth="yes"/>
      <point x="44.77629499622137" y="-369.60450124949136"/>
      <point x="80.13294255690218" y="-379.6562602599764"/>
      <point x="133.0" y="-379.0" type="curve" smooth="yes"/>
      <point x="1095.0" y="-379.0" type="line" smooth="yes"/>
      <point x="1147.8670574430978" y="-379.6562602599764"/>
      <point x="1183.2237050037786" y="-369.60450124949136"/>
      <point x="1184.0" y="-321.0" type="curve" smooth="yes"/>
      <point x="1183.2237050037786" y="-272.39549875050864"/>
      <point x="1147.8670574430978" y="-262.3437397400236"/>
      <point x="1095.0" y="-263.0" type="curve" smooth="yes"/>
    </contour>
  </outline>
</glyph>
<glyph name="a" format="2">
  <advance width="1228"/>
  <unicode hex="0061"/>
  <outline>
    <contour>
      <point x="251.87112090078642" y="842.616668891712" type="curve" smooth="yes"/>
      <point x="211.61522368914976" y="827.1005050633884"/>
      <point x="190.14285822404344" y="808.4655869832526"/>
      <point x="214.5445102374732" y="767.0403769622561" type="curve" smooth="yes"/>
      <point x="240.13897373580284" y="724.034923088355"/>
      <point x="289.8268913734265" y="716.9170036845612"/>
      <point x="335.8359542544499" y="734.4652414150372" type="curve" smooth="yes"/>
      <point x="429.19294054386927" y="784.0956884281214"/>
      <point x="536.6095641328834" y="814.8644283873318"/>
      <point x="634.0" y="815.0" type="curve" smooth="yes"/>
      <point x="790.4370306741779" y="814.5466418135558"/>
      <point x="839.5088211904811" y="745.6998211381606"/>
      <point x="838.0" y="613.0" type="curve" smooth="yes"/>
      <point x="851.3989554098004" y="516.1145413971699" type="line"/>
      <point x="776.6245571330965" y="547.4258142786646"/>
      <point x="670.4322768585918" y="565.0512058178982"/>
      <point x="560.0" y="565.0" type="curve" smooth="yes"/>
      <point x="335.6085692748634" y="565.3043022213045"/>
      <point x="136.59716911254955" y="486.89489505834905"/>
      <point x="133.0" y="270.0" type="curve" smooth="yes"/>
      <point x="135.55539124692018" y="90.05261237566339"/>
      <point x="291.2614793723668" y="-8.634485418166145"/>
      <point x="499.0" y="-8.0" type="curve" smooth="yes"/>
      <point x="648.6108148396396" y="-8.285262948279168"/>
      <point x="784.0382661642903" y="45.43823214753011"/>
      <point x="879.2497255359622" y="137.09086127063173" type="curve"/>
      <point x="848.0" y="55.0" type="line" smooth="yes"/>
      <point x="848.7536131476961" y="12.346266659713656"/>
      <point x="883.0974881346889" y="3.4976244167825605"/>
      <point x="943.0" y="4.0" type="curve" smooth="yes"/>
      <point x="945.0" y="4.0" type="line" smooth="yes"/>
      <point x="1004.9025118653111" y="3.4976244167825605"/>
      <point x="1039.2463868523039" y="12.346266659713656"/>
      <point x="1040.0" y="55.0" type="curve" smooth="yes"/>
      <point x="1040.0" y="613.0" type="line" smooth="yes"/>
      <point x="1038.3415532813744" y="827.0799586229608"/>
      <point x="896.5438654509139" y="932.602257849659"/>
      <point x="638.0" y="932.0" type="curve" smooth="yes"/>
      <point x="505.847851605391" y="932.1032688564592"/>
      <point x="366.9471502303057" y="900.8760461918633"/>
    </contour>
    <contour>
      <point x="840.4427560114593" y="278.44630440667305" type="line"/>
      <point x="750.3023475171776" y="171.94808441898297"/>
      <point x="641.4199664614354" y="105.40341675181439"/>
      <point x="505.0" y="105.0" type="curve" smooth="yes"/>
      <point x="391.39955549908404" y="105.57894387210665"/>
      <point x="336.61142943782454" y="170.13842136333727"/>
      <point x="339.0" y="273.0" type="curve" smooth="yes"/>
      <point x="334.99537292631" y="401.46509626589915"/>
      <point x="421.5419718401506" y="451.78472572465296"/>
      <point x="561.0" y="452.0" type="curve" smooth="yes"/>
      <point x="661.8532329720196" y="451.9628998081988"/>
      <point x="766.1837326654197" y="436.2692030106218"/>
      <point x="842.3607605132833" y="400.4645312429266" type="curve"/>
    </contour>
  </outline>
</glyph>
<glyph name="b" format="2">
  <advance width="1228"/>
  <unicode hex="0062"/>
  <outline>
    <contour>
      <point x="266.0" y="1308.0" type="line" smooth="yes"/>
      <point x="203.53405356875962" y="1308.4398370389372"/>
      <point x="166.94301943119794" y="1299.2636928382615"/>
      <point x="166.0" y="1257.0" type="curve" smooth="yes"/>
      <point x="166.0" y="55.0" type="line" smooth="yes"/>
      <point x="166.7536131476961" y="12.346266659713656"/>
      <point x="201.09748813468883" y="3.4976244167825605"/>
      <point x="261.0" y="4.0" type="curve" smooth="yes"/>
      <point x="263.0" y="4.0" type="line" smooth="yes"/>
      <point x="322.90251186531117" y="3.4976244167825605"/>
      <point x="357.2463868523039" y="12.346266659713656"/>
      <point x="358.0" y="55.0" type="curve" smooth="yes"/>
      <point x="327.62429196480747" y="161.8003099571457" type="line"/>
      <point x="396.86461269371637" y="51.52934658911005"/>
      <point x="519.5249329649239" y="-8.441098943644105"/>
      <point x="659.0" y="-8.0" type="curve" smooth="yes"/>
      <point x="916.1342726520184" y="-9.107286271100888"/>
      <point x="1113.3196894511595" y="164.95129087522812"/>
      <point x="1115.0" y="462.0" type="curve" smooth="yes"/>
      <point x="1113.3196894511595" y="759.0487091247719"/>
      <point x="916.1342726520184" y="933.1072862711009"/>
      <point x="659.0" y="932.0" type="curve" smooth="yes"/>
      <point x="519.3205699350755" y="932.4698724325888"/>
      <point x="404.6418185885954" y="872.5769987608909"/>
      <point x="367.42485075481716" y="778.071592673242" type="curve"/>
      <point x="368.0" y="1257.0" type="line" smooth="yes"/>
      <point x="367.05698056880203" y="1299.2636928382615"/>
      <point x="330.4659464312404" y="1308.4398370389372"/>
      <point x="268.0" y="1308.0" type="curve" smooth="yes"/>
    </contour>
    <contour>
      <point x="909.0" y="462.0" type="curve" smooth="yes"/>
      <point x="910.1835205710893" y="261.82415009609673"/>
      <point x="818.5688223977744" y="113.42570463755185"/>
      <point x="649.0" y="112.0" type="curve" smooth="yes"/>
      <point x="481.73733765378444" y="113.0188966389685"/>
      <point x="366.24833765965576" y="244.94826298757172"/>
      <point x="368.0" y="462.0" type="curve" smooth="yes"/>
      <point x="366.24833765965576" y="679.0517370124282"/>
      <point x="481.73733765378444" y="810.9811033610315"/>
      <point x="649.0" y="812.0" type="curve" smooth="yes"/>
      <point x="818.5688223977744" y="810.5742953624482"/>
      <point x="910.1835205710893" y="662.1758499039032"/>
    </contour>
  </outline>
</glyph>
<glyph name="c" format="2">
  <advance width="1228"/>
  <unicode hex="0063"/>
  <outline>
    <contour>
      <point x="121.0" y="462.0" type="curve" smooth="yes"/>
      <point x="122.79803082476457" y="190.1158008587195"/>
      <point x="326.74015536946433" y="-9.136114536073075"/>
      <point x="629.0" y="-8.0" type="curve" smooth="yes"/>
      <point x="785.1373886899149" y="-8.17839382709757"/>
      <point x="944.4837846533189" y="39.56038946456754"/>
      <point x="1056.2924641395512" y="117.32230518024464" type="curve" smooth="yes"/>
      <point x="1097.2508147483475" y="139.06619828405118"/>
      <point x="1109.276530705921" y="163.72037599737817"/>
      <point x="1078.356223339859" y="206.8524574418239" type="curve" smooth="yes"/>
      <point x="1041.7297493950637" y="251.46341306120885"/>
      <point x="981.9451064174825" y="245.08927865440057"/>
      <point x="949.1312083085369" y="225.91002610105605" type="curve" smooth="yes"/>
      <point x="858.0286057698004" y="151.5723156224262"/>
      <point x="746.9504455526347" y="112.1708535370341"/>
      <point x="629.0" y="112.0" type="curve" smooth="yes"/>
      <point x="444.374950008955" y="113.16290964522098"/>
      <point x="329.2725669660528" y="261.98211355990253"/>
      <point x="331.0" y="462.0" type="curve" smooth="yes"/>
      <point x="329.2725669660528" y="662.0178864400974"/>
      <point x="444.374950008955" y="810.837090354779"/>
      <point x="629.0" y="812.0" type="curve" smooth="yes"/>
      <point x="737.602120965403" y="811.8799302739509"/>
      <point x="837.9676332686406" y="781.6771605025691"/>
      <point x="933.1917914852297" y="712.5074277706562" type="curve" smooth="yes"/>
      <point x="967.0835606785325" y="694.151002477482"/>
      <point x="1027.0781493949648" y="689.0021951789262"/>
      <point x="1060.0179527660516" y="735.5101280550449" type="curve" smooth="yes"/>
      <point x="1088.5408027269843" y="779.6195695104599"/>
      <point x="1073.5044302485526" y="804.3918819556272"/>
      <point x="1031.1489687325745" y="824.2545419816128" type="curve" smooth="yes"/>
      <point x="915.6132861083779" y="896.2195253995617"/>
      <point x="774.4546032072241" y="932.124130153104"/>
      <point x="629.0" y="932.0" type="curve" smooth="yes"/>
      <point x="326.74015536946433" y="933.136114536073"/>
      <point x="122.79803082476457" y="733.8841991412805"/>
    </contour>
  </outline>
</glyph>
<glyph name="f" format="2">
  <advance width="1228"/>
  <unicode hex="0066"/>
  <outline>
    <contour>
      <point x="566.9315094028913" y="1303.8791774331908"/>
      <point x="423.5817079199797" y="1181.1914747903961"/>
      <point x="422.0" y="967.0" type="curve" smooth="yes"/>
      <point x="422.0" y="55.0" type="line" smooth="yes"/>
      <point x="422.94301943119797" y="12.736307161738532"/>
      <point x="459.5340535687596" y="3.560162961062849"/>
      <point x="522.0" y="4.0" type="curve" smooth="yes"/>
      <point x="524.0" y="4.0" type="line" smooth="yes"/>
      <point x="586.4659464312404" y="3.560162961062849"/>
      <point x="623.056980568802" y="12.736307161738532"/>
      <point x="624.0" y="55.0" type="curve" smooth="yes"/>
      <point x="624.0" y="954.0" type="line" smooth="yes"/>
      <point x="623.0298636825952" y="1094.788639415976"/>
      <point x="668.573570374975" y="1184.0163735675142"/>
      <point x="800.0" y="1185.0" type="curve" smooth="yes"/>
      <point x="875.9150296026719" y="1184.9011014260168"/>
      <point x="951.2985641589213" y="1165.3717237680269"/>
      <point x="1027.6380345546604" y="1135.0609238205961" type="curve" smooth="yes"/>
      <point x="1074.6474763027522" y="1121.9718663368035"/>
      <point x="1122.445716647096" y="1133.065752222636"/>
      <point x="1136.3016921736016" y="1176.2228789038334" type="curve" smooth="yes"/>
      <point x="1147.9802889244295" y="1218.4549589736134"/>
      <point x="1124.7146524675043" y="1239.2763604463803"/>
      <point x="1075.346780839282" y="1252.9359233441132" type="curve" smooth="yes"/>
      <point x="993.3912308592709" y="1283.5776139448535"/>
      <point x="896.7796757590426" y="1303.080239083564"/>
      <point x="800.0" y="1303.0" type="curve" smooth="yes"/>
    </contour>
    <contour>
      <point x="250.0" y="830.0" type="line" smooth="yes"/>
      <point x="197.13294255690218" y="830.6562602599764"/>
      <point x="161.77629499622137" y="820.6045012494914"/>
      <point x="161.0" y="772.0" type="curve" smooth="yes"/>
      <point x="161.77629499622137" y="723.3954987505086"/>
      <point x="197.13294255690218" y="713.3437397400236"/>
      <point x="250.0" y="714.0" type="curve" smooth="yes"/>
      <point x="944.0" y="714.0" type="line" smooth="yes"/>
      <point x="996.8670574430978" y="713.3437397400236"/>
      <point x="1032.2237050037786" y="723.3954987505086"/>
      <point x="1033.0" y="772.0" type="curve" smooth="yes"/>
      <point x="1032.2237050037786" y="820.6045012494914"/>
      <point x="996.8670574430978" y="830.6562602599764"/>
      <point x="944.0" y="830.0" type="curve" smooth="yes"/>
    </contour>
  </outline>
</glyph>
<glyph name="h" format="2">
  <advance width="1228"/>
  <unicode hex="0068"/>
  <outline>
    <contour>
      <point x="276.0" y="1308.0" type="line" smooth="yes"/>
      <point x="213.53405356875962" y="1308.4398370389372"/>
      <point x="176.94301943119794" y="1299.2636928382615"/>
      <point x="176.0" y="1257.0" type="curve" smooth="yes"/>
      <point x="176.0" y="55.0" type="line" smooth="yes"/>
      <point x="176.94301943119794" y="12.736307161738532"/>
      <point x="213.53405356875962" y="3.560162961062849"/>
      <point x="276.0" y="4.0" type="curve" smooth="yes"/>
      <point x="278.0" y="4.0" type="line" smooth="yes"/>
      <point x="340.4659464312404" y="3.560162961062849"/>
      <point x="377.05698056880203" y="12.736307161738532"/>
      <point x="378.0" y="55.0" type="curve" smooth="yes"/>
      <point x="378.0" y="392.0" type="line" smooth="yes"/>
      <point x="375.571133588076" y="625.90841412221"/>
      <point x="552.5238529376295" y="810.5497447721808"/>
      <point x="712.0" y="812.0" type="curve" smooth="yes"/>
      <point x="830.7580982369417" y="810.8680304202528"/>
      <point x="868.928170491976" y="723.7073131715731"/>
      <point x="868.0" y="605.0" type="curve" smooth="yes"/>
      <point x="868.0" y="55.0" type="line" smooth="yes"/>
      <point x="868.943019431198" y="12.736307161738532"/>
      <point x="905.5340535687596" y="3.560162961062849"/>
      <point x="968.0" y="4.0" type="curve" smooth="yes"/>
      <point x="970.0" y="4.0" type="line" smooth="yes"/>
      <point x="1032.4659464312404" y="3.560162961062849"/>
      <point x="1069.0569805688021" y="12.736307161738532"/>
      <point x="1070.0" y="55.0" type="curve" smooth="yes"/>
      <point x="1070.0" y="620.0" type="line" smooth="yes"/>
      <point x="1068.5660520881995" y="815.4148779608859"/>
      <point x="940.6035699974854" y="932.9900355162271"/>
      <point x="727.0" y="932.0" type="curve" smooth="yes"/>
      <point x="584.0409302115321" y="932.6720902358792"/>
      <point x="426.1755981575362" y="844.8076939770799"/>
      <point x="377.34475508457433" y="716.8767657339331" type="curve"/>
      <point x="378.0" y="1257.0" type="line" smooth="yes"/>
      <point x="377.05698056880203" y="1299.2636928382615"/>
      <point x="340.4659464312404" y="1308.4398370389372"/>
      <point x="278.0" y="1308.0" type="curve" smooth="yes"/>
    </contour>
  </outline>
</glyph>
<glyph name="k" format="2">
  <advance width="1228"/>
  <unicode hex="006B"/>
  <outline>
    <contour>
      <point x="893.708767440489" y="913.5447839941855" type="curve" smooth="yes"/>
      <point x="395.85093855893814" y="440.7994226851684" type="line"/>
      <point x="408.0" y="1257.0" type="line" smooth="yes"/>
      <point x="407.05698056880203" y="1299.2636928382615"/>
      <point x="370.4659464312404" y="1308.4398370389372"/>
      <point x="308.0" y="1308.0" type="curve" smooth="yes"/>
      <point x="306.0" y="1308.0" type="line" smooth="yes"/>
      <point x="243.53405356875962" y="1308.4398370389372"/>
      <point x="206.94301943119794" y="1299.2636928382615"/>
      <point x="206.0" y="1257.0" type="curve" smooth="yes"/>
      <point x="206.0" y="55.0" type="line" smooth="yes"/>
      <point x="206.94301943119794" y="12.736307161738532"/>
      <point x="243.53405356875962" y="3.560162961062849"/>
      <point x="306.0" y="4.0" type="curve" smooth="yes"/>
      <point x="308.0" y="4.0" type="line" smooth="yes"/>
      <point x="370.4659464312404" y="3.560162961062849"/>
      <point x="407.05698056880203" y="12.736307161738532"/>
      <point x="408.0" y="55.0" type="curve" smooth="yes"/>
      <point x="405.27377463099117" y="264.7972427073713" type="line"/>
      <point x="551.5407036855746" y="429.97399124193356" type="line"/>
      <point x="918.7281475758465" y="12.397591754626925" type="line" smooth="yes"/>
      <point x="950.9079144314626" y="-11.337957704838859"/>
      <point x="1000.2691685314933" y="-8.91990010940466"/>
      <point x="1050.9249118107214" y="17.14760942210458" type="curve" smooth="yes"/>
      <point x="1105.883628395054" y="42.62338754747944"/>
      <point x="1114.8377047724182" y="55.4102652580806"/>
      <point x="1079.1920980678772" y="85.55520392622873" type="curve" smooth="yes"/>
      <point x="700.9172847668938" y="515.7746743628497" type="line"/>
      <point x="1052.150990842534" y="843.5219781654347" type="line" smooth="yes"/>
      <point x="1094.0337222719095" y="868.3408271715355"/>
      <point x="1080.1529691106812" y="886.5322019024123"/>
      <point x="1027.302992817173" y="911.9713141870845" type="curve" smooth="yes"/>
      <point x="979.0579642905669" y="935.5257045361903"/>
      <point x="926.1401911454191" y="933.0457280587506"/>
    </contour>
  </outline>
</glyph>
<glyph name="l" format="2">
  <advance width="1228"/>
  <unicode hex="006C"/>
  <outline>
    <contour>
      <point x="240.0" y="130.0" type="line" smooth="yes"/>
      <point x="187.13294255690218" y="130.6562602599764"/>
      <point x="151.77629499622137" y="120.60450124949134"/>
      <point x="151.0" y="72.0" type="curve" smooth="yes"/>
      <point x="151.77629499622137" y="23.39549875050866"/>
      <point x="187.13294255690218" y="13.343739740023597"/>
      <point x="240.0" y="14.0" type="curve" smooth="yes"/>
      <point x="1024.0" y="14.0" type="line" smooth="yes"/>
      <point x="1076.8670574430978" y="13.343739740023597"/>
      <point x="1112.2237050037786" y="23.39549875050866"/>
      <point x="1113.0" y="72.0" type="curve" smooth="yes"/>
      <point x="1112.2237050037786" y="120.60450124949134"/>
      <point x="1076.8670574430978" y="130.6562602599764"/>
      <point x="1024.0" y="130.0" type="curve" smooth="yes"/>
      <point x="727.9589832453632" y="140.07812340193487" type="line"/>
      <point x="729.0" y="1244.0" type="line" smooth="yes"/>
      <point x="728.1343359243994" y="1290.417504155572"/>
      <point x="692.1427493253318" y="1298.5386647330286"/>
      <point x="640.0" y="1298.0" type="curve" smooth="yes"/>
      <point x="280.0" y="1298.0" type="line" smooth="yes"/>
      <point x="227.13294255690218" y="1298.6562602599763"/>
      <point x="191.77629499622137" y="1288.6045012494912"/>
      <point x="191.0" y="1240.0" type="curve" smooth="yes"/>
      <point x="191.77629499622137" y="1191.3954987505088"/>
      <point x="227.13294255690218" y="1181.3437397400237"/>
      <point x="280.0" y="1182.0" type="curve" smooth="yes"/>
      <point x="527.877484418325" y="1171.6064548735412" type="line"/>
      <point x="528.135613256486" y="139.90761182729574" type="line"/>
    </contour>
  </outline>
</glyph>
<glyph name="o" format="2">
  <advance width="1228"/>
  <unicode hex="006F"/>
  <outline>
    <contour>
      <point x="108.0" y="462.0" type="curve" smooth="yes"/>
      <point x="110.04120906330775" y="185.4375641223135"/>
      <point x="327.91498213021697" y="-9.096092900810739"/>
      <point x="614.0" y="-8.0" type="curve" smooth="yes"/>
      <point x="900.0850178697831" y="-9.096092900810739"/>
      <point x="1117.9587909366924" y="185.4375641223135"/>
      <point x="1120.0" y="462.0" type="curve" smooth="yes"/>
      <point x="1117.9587909366924" y="738.5624358776865"/>
      <point x="900.0850178697831" y="933.0960929008107"/>
      <point x="614.0" y="932.0" type="curve" smooth="yes"/>
      <point x="327.91498213021697" y="933.0960929008107"/>
      <point x="110.04120906330775" y="738.5624358776865"/>
    </contour>
    <contour>
      <point x="914.0" y="462.0" type="curve" smooth="yes"/>
      <point x="915.7516623403442" y="259.9482629875717"/>
      <point x="799.8023872634418" y="113.12177517165149"/>
      <point x="614.0" y="112.0" type="curve" smooth="yes"/>
      <point x="428.1976127365582" y="113.12177517165149"/>
      <point x="312.24833765965576" y="259.9482629875717"/>
      <point x="314.0" y="462.0" type="curve" smooth="yes"/>
      <point x="312.24833765965576" y="664.0517370124282"/>
      <point x="428.1976127365582" y="810.8782248283485"/>
      <point x="614.0" y="812.0" type="curve" smooth="yes"/>
      <point x="799.8023872634418" y="810.8782248283485"/>
      <point x="915.7516623403442" y="664.0517370124282"/>
    </contour>
  </outline>
</glyph>
<glyph name="p" format="2">
  <advance width="1228"/>
  <unicode hex="0070"/>
  <outline>
    <contour>
      <point x="327.62429196480747" y="762.1996900428543" type="curve"/>
      <point x="358.0" y="869.0" type="line" smooth="yes"/>
      <point x="357.2463868523039" y="911.6537333402863"/>
      <point x="322.90251186531117" y="920.5023755832175"/>
      <point x="263.0" y="920.0" type="curve" smooth="yes"/>
      <point x="261.0" y="920.0" type="line" smooth="yes"/>
      <point x="201.09748813468883" y="920.5023755832175"/>
      <point x="166.7536131476961" y="911.6537333402863"/>
      <point x="166.0" y="869.0" type="curve" smooth="yes"/>
      <point x="166.0" y="-333.0" type="line" smooth="yes"/>
      <point x="166.94301943119794" y="-375.2636928382615"/>
      <point x="203.53405356875962" y="-384.4398370389371"/>
      <point x="266.0" y="-384.0" type="curve" smooth="yes"/>
      <point x="268.0" y="-384.0" type="line" smooth="yes"/>
      <point x="330.4659464312404" y="-384.4398370389371"/>
      <point x="367.05698056880203" y="-375.2636928382615"/>
      <point x="368.0" y="-333.0" type="curve" smooth="yes"/>
      <point x="367.42485075481716" y="145.92840732675805" type="line"/>
      <point x="404.6418185885954" y="51.423001239109155"/>
      <point x="519.3205699350755" y="-8.469872432588744"/>
      <point x="659.0" y="-8.0" type="curve" smooth="yes"/>
      <point x="916.1342726520184" y="-9.107286271100888"/>
      <point x="1113.3196894511595" y="164.95129087522812"/>
      <point x="1115.0" y="462.0" type="curve" smooth="yes"/>
      <point x="1113.3196894511595" y="759.0487091247719"/>
      <point x="916.1342726520184" y="933.1072862711009"/>
      <point x="659.0" y="932.0" type="curve" smooth="yes"/>
      <point x="519.5249329649239" y="932.4410989436441"/>
      <point x="396.86461269371637" y="872.4706534108899"/>
    </contour>
    <contour>
      <point x="909.0" y="462.0" type="curve" smooth="yes"/>
      <point x="910.1835205710893" y="261.82415009609673"/>
      <point x="818.5688223977744" y="113.42570463755185"/>
      <point x="649.0" y="112.0" type="curve" smooth="yes"/>
      <point x="481.73733765378444" y="113.0188966389685"/>
      <point x="366.24833765965576" y="244.94826298757172"/>
      <point x="368.0" y="462.0" type="curve" smooth="yes"/>
      <point x="366.24833765965576" y="679.0517370124282"/>
      <point x="481.73733765378444" y="810.9811033610315"/>
      <point x="649.0" y="812.0" type="curve" smooth="yes"/>
      <point x="818.5688223977744" y="810.5742953624482"/>
      <point x="910.1835205710893" y="662.1758499039032"/>
    </contour>
  </outline>
</glyph>
<glyph name="q" format="2">
  <advance width="1228"/>
  <unicode hex="0071"/>
  <outline>
    <contour>
      <point x="113.0" y="462.0" type="curve" smooth="yes"/>
      <point x="114.68031054884047" y="164.95129087522812"/>
      <point x="311.86572734798165" y="-9.107286271100888"/>
      <point x="569.0" y="-8.0" type="curve" smooth="yes"/>
      <point x="708.6794300649245" y="-8.469872432588744"/>
      <point x="823.3581814114046" y="51.423001239109155"/>
      <point x="860.5751492451828" y="145.92840732675805" type="curve"/>
      <point x="860.0" y="-333.0" type="line" smooth="yes"/>
      <point x="860.943019431198" y="-375.2636928382615"/>
      <point x="897.5340535687596" y="-384.4398370389371"/>
      <point x="960.0" y="-384.0" type="curve" smooth="yes"/>
      <point x="962.0" y="-384.0" type="line" smooth="yes"/>
      <point x="1024.4659464312404" y="-384.4398370389371"/>
      <point x="1061.0569805688021" y="-375.2636928382615"/>
      <point x="1062.0" y="-333.0" type="curve" smooth="yes"/>
      <point x="1062.0" y="869.0" type="line" smooth="yes"/>
      <point x="1061.2463868523039" y="911.6537333402863"/>
      <point x="1026.9025118653112" y="920.5023755832175"/>
      <point x="967.0" y="920.0" type="curve" smooth="yes"/>
      <point x="965.0" y="920.0" type="line" smooth="yes"/>
      <point x="905.0974881346889" y="920.5023755832175"/>
      <point x="870.7536131476961" y="911.6537333402863"/>
      <point x="870.0" y="869.0" type="curve" smooth="yes"/>
      <point x="900.3757080351926" y="762.1996900428543" type="line"/>
      <point x="831.1353873062836" y="872.4706534108899"/>
      <point x="708.4750670350761" y="932.4410989436441"/>
      <point x="569.0" y="932.0" type="curve" smooth="yes"/>
      <point x="311.86572734798165" y="933.1072862711009"/>
      <point x="114.68031054884047" y="759.0487091247719"/>
    </contour>
    <contour>
      <point x="860.0" y="462.0" type="curve" smooth="yes"/>
      <point x="861.7516623403442" y="244.94826298757172"/>
      <point x="746.2626623462155" y="113.0188966389685"/>
      <point x="579.0" y="112.0" type="curve" smooth="yes"/>
      <point x="409.4311776022256" y="113.42570463755185"/>
      <point x="317.8164794289108" y="261.82415009609673"/>
      <point x="319.0" y="462.0" type="curve" smooth="yes"/>
      <point x="317.8164794289108" y="662.1758499039032"/>
      <point x="409.4311776022256" y="810.5742953624482"/>
      <point x="579.0" y="812.0" type="curve" smooth="yes"/>
      <point x="746.2626623462155" y="810.9811033610315"/>
      <point x="861.7516623403442" y="679.0517370124282"/>
    </contour>
  </outline>
</glyph>
<glyph name="r" format="2">
  <advance width="1228"/>
  <unicode hex="0072"/>
  <outline>
    <contour>
      <point x="455.79910616283473" y="620.8261037186827" type="curve"/>
      <point x="473.0" y="869.0" type="line" smooth="yes"/>
      <point x="472.2463868523039" y="911.6537333402863"/>
      <point x="437.90251186531117" y="920.5023755832175"/>
      <point x="378.0" y="920.0" type="curve" smooth="yes"/>
      <point x="376.0" y="920.0" type="line" smooth="yes"/>
      <point x="316.09748813468883" y="920.5023755832175"/>
      <point x="281.7536131476961" y="911.6537333402863"/>
      <point x="281.0" y="869.0" type="curve" smooth="yes"/>
      <point x="281.0" y="55.0" type="line" smooth="yes"/>
      <point x="281.94301943119797" y="12.736307161738532"/>
      <point x="318.5340535687596" y="3.560162961062849"/>
      <point x="381.0" y="4.0" type="curve" smooth="yes"/>
      <point x="383.0" y="4.0" type="line" smooth="yes"/>
      <point x="445.4659464312404" y="3.560162961062849"/>
      <point x="482.05698056880203" y="12.736307161738532"/>
      <point x="483.0" y="55.0" type="curve" smooth="yes"/>
      <point x="483.0" y="270.0" type="line" smooth="yes"/>
      <point x="481.1468432191111" y="559.1907793562848"/>
      <point x="675.148236362437" y="798.3778283626556"/>
      <point x="896.0" y="800.0" type="curve" smooth="yes"/>
      <point x="929.8701955250342" y="799.9529498295836"/>
      <point x="962.854858942165" y="793.6033464442672"/>
      <point x="997.871923020107" y="781.2983034611858" type="curve" smooth="yes"/>
      <point x="1052.14004340944" y="767.821375689977"/>
      <point x="1091.8488075744672" y="783.575986386338"/>
      <point x="1106.2525623088902" y="833.3327288115051" type="curve" smooth="yes"/>
      <point x="1118.9920780010348" y="879.6544263133766"/>
      <point x="1095.1107515030546" y="900.0116412825321"/>
      <point x="1043.9654467491212" y="911.6731948620472" type="curve" smooth="yes"/>
      <point x="998.035083744008" y="925.3823751417254"/>
      <point x="950.0852153046854" y="932.0450975763362"/>
      <point x="905.0" y="932.0" type="curve" smooth="yes"/>
      <point x="717.563912102696" y="932.7574317752882"/>
      <point x="541.6188526568998" y="818.6678055322794"/>
    </contour>
  </outline>
</glyph>
<glyph name="s" format="2">
  <advance width="1228"/>
  <unicode hex="0073"/>
  <outline>
    <contour>
      <point x="1074.0" y="277.0" type="curve" smooth="yes"/>
      <point x="1072.43838224618" y="398.2211584514555"/>
      <point x="992.4367198259738" y="455.0144876765983"/>
      <point x="893.0070963138264" y="488.86692179652107" type="curve" smooth="yes"/>
      <point x="740.9356518891515" y="542.0895264329439"/>
      <point x="533.8000865997257" y="528.0335938294014"/>
      <point x="428.9866476636521" y="564.6768743348429" type="curve" smooth="yes"/>
      <point x="385.7478885722516" y="580.5106273364031"/>
      <point x="367.7297989602448" y="611.2786937064852"/>
      <point x="370.0" y="660.0" type="curve" smooth="yes"/>
      <point x="366.1269363327915" y="760.3515025786525"/>
      <point x="436.4016358206707" y="814.6945318402261"/>
      <point x="570.0" y="815.0" type="curve" smooth="yes"/>
      <point x="685.8289363021446" y="814.8954833656688"/>
      <point x="796.9306914316813" y="785.1206586423962"/>
      <point x="900.172982831159" y="730.4677006557771" type="curve" smooth="yes"/>
      <point x="940.3858962788639" y="714.7777782442314"/>
      <point x="992.5252281622073" y="716.2447035197719"/>
      <point x="1019.7878628408962" y="764.6509628920682" type="curve" smooth="yes"/>
      <point x="1043.874110321046" y="810.376021061708"/>
      <point x="1022.0208266225465" y="829.908337091374"/>
      <point x="977.6859465135311" y="846.4937899331152" type="curve" smooth="yes"/>
      <point x="853.2503659853586" y="906.723548989078"/>
      <point x="708.395461803396" y="932.0595462506516"/>
      <point x="564.0" y="932.0" type="curve" smooth="yes"/>
      <point x="345.47264856341906" y="932.4483694996281"/>
      <point x="167.37716159552454" y="842.0999734398399"/>
      <point x="164.0" y="660.0" type="curve" smooth="yes"/>
      <point x="165.46184483774977" y="548.6282309171737"/>
      <point x="237.98460389299245" y="494.79179960926115"/>
      <point x="330.4513070355733" y="461.0216707566722" type="curve" smooth="yes"/>
      <point x="481.9704978733668" y="404.9046379658292"/>
      <point x="696.102633403899" y="419.96267213028193"/>
      <point x="804.6439055721497" y="380.25726519803175" type="curve" smooth="yes"/>
      <point x="850.8088743997647" y="362.3655960918308"/>
      <point x="870.0684468351103" y="329.47223080798847"/>
      <point x="868.0" y="277.0" type="curve" smooth="yes"/>
      <point x="870.9888857663533" y="179.48286624851266"/>
      <point x="806.6466274119398" y="109.42441754687994"/>
      <point x="644.0" y="109.0" type="curve" smooth="yes"/>
      <point x="515.2737362770487" y="109.11142185494525"/>
      <point x="393.58578800849006" y="142.98623379207444"/>
      <point x="287.70858583975405" y="204.78639316082058" type="curve" smooth="yes"/>
      <point x="248.50558702215096" y="221.31747603962484"/>
      <point x="196.116371604946" y="220.37661245252056"/>
      <point x="166.65225215898457" y="172.83978653117822" type="curve" smooth="yes"/>
      <point x="140.2423501640223" y="128.0929432332978"/>
      <point x="160.43760553649767" y="108.80292133649456"/>
      <point x="204.5017583623654" y="90.27637936004348" type="curve" smooth="yes"/>
      <point x="336.1146803597457" y="21.157107928838116"/>
      <point x="489.48754154778885" y="-8.065518891967425"/>
      <point x="654.0" y="-8.0" type="curve" smooth="yes"/>
      <point x="920.5752257946101" y="-8.607389268246976"/>
      <point x="1071.6965944757042" y="103.76107069193219"/>
    </contour>
  </outline>
</glyph>
<glyph name="u" format="2">
  <advance width="1228"/>
  <unicode hex="0075"/>
  <outline>
    <contour>
      <point x="950.0" y="920.0" type="line" smooth="yes"/>
      <point x="887.5340535687596" y="920.4398370389372"/>
      <point x="850.943019431198" y="911.2636928382615"/>
      <point x="850.0" y="869.0" type="curve" smooth="yes"/>
      <point x="850.0" y="532.0" type="line" smooth="yes"/>
      <point x="852.428866411924" y="298.09158587778995"/>
      <point x="675.4761470623705" y="113.45025522781923"/>
      <point x="516.0" y="112.0" type="curve" smooth="yes"/>
      <point x="397.24190176305837" y="113.13196957974719"/>
      <point x="359.07182950802405" y="200.2926868284269"/>
      <point x="360.0" y="319.0" type="curve" smooth="yes"/>
      <point x="360.0" y="869.0" type="line" smooth="yes"/>
      <point x="359.05698056880203" y="911.2636928382615"/>
      <point x="322.4659464312404" y="920.4398370389372"/>
      <point x="260.0" y="920.0" type="curve" smooth="yes"/>
      <point x="258.0" y="920.0" type="line" smooth="yes"/>
      <point x="195.53405356875962" y="920.4398370389372"/>
      <point x="158.94301943119794" y="911.2636928382615"/>
      <point x="158.0" y="869.0" type="curve" smooth="yes"/>
      <point x="158.0" y="304.0" type="line" smooth="yes"/>
      <point x="159.43394791180043" y="108.58512203911417"/>
      <point x="287.39643000251465" y="-8.99003551622708"/>
      <point x="501.0" y="-8.0" type="curve" smooth="yes"/>
      <point x="655.592791257828" y="-8.786676756638695"/>
      <point x="816.4231177419983" y="91.87880640460362"/>
      <point x="878.3736188087433" y="231.3841903527468" type="curve"/>
      <point x="860.0" y="55.0" type="line" smooth="yes"/>
      <point x="860.7536131476961" y="12.346266659713656"/>
      <point x="895.0974881346889" y="3.4976244167825605"/>
      <point x="955.0" y="4.0" type="curve" smooth="yes"/>
      <point x="957.0" y="4.0" type="line" smooth="yes"/>
      <point x="1016.9025118653111" y="3.4976244167825605"/>
      <point x="1051.2463868523039" y="12.346266659713656"/>
      <point x="1052.0" y="55.0" type="curve" smooth="yes"/>
      <point x="1052.0" y="869.0" type="line" smooth="yes"/>
      <point x="1051.0569805688021" y="911.2636928382615"/>
      <point x="1014.4659464312404" y="920.4398370389372"/>
      <point x="952.0" y="920.0" type="curve" smooth="yes"/>
    </contour>
  </outline>
</glyph>
<glyph name="v" format="2">
  <advance width="1228"/>
  <unicode hex="0076"/>
  <outline>
    <contour>
      <point x="930.3151913142298" y="888.2248942536874" type="curve" smooth="yes"/>
      <point x="614.0" y="129.0" type="line"/>
      <point x="297.68480868577024" y="888.2248942536874" type="line" smooth="yes"/>
      <point x="273.6603857440322" y="928.8387255778548"/>
      <point x="224.34897860680044" y="932.2258212586013"/>
      <point x="166.86936023824586" y="911.1064584850402" type="curve" smooth="yes"/>
      <point x="109.61035292433897" y="890.7159379870767"/>
      <point x="87.17301086313684" y="878.6123872816771"/>
      <point x="109.35763233298198" y="838.8253090446904" type="curve" smooth="yes"/>
      <point x="472.36253002260764" y="45.83106891878808" type="line" smooth="yes"/>
      <point x="496.0790198787294" y="5.996571667670596"/>
      <point x="543.0513322404834" y="-8.25592678935869"/>
      <point x="614.0" y="-8.0" type="curve" smooth="yes"/>
      <point x="684.9486677595166" y="-8.25592678935869"/>
      <point x="731.9209801212706" y="5.996571667670596"/>
      <point x="755.6374699773924" y="45.83106891878808" type="curve" smooth="yes"/>
      <point x="1118.642367667018" y="838.8253090446904" type="line" smooth="yes"/>
      <point x="1140.8269891368632" y="878.6123872816771"/>
      <point x="1118.389647075661" y="890.7159379870767"/>
      <point x="1061.130639761754" y="911.1064584850402" type="curve" smooth="yes"/>
      <point x="1003.6510213931996" y="932.2258212586013"/>
      <point x="954.3396142559678" y="928.8387255778548"/>
    </contour>
  </outline>
</glyph>
<glyph name="w" format="2">
  <advance width="1228"/>
  <unicode hex="0077"/>
  <outline>
    <contour>
      <point x="997.6957703534616" y="879.7829024274166" type="curve" smooth="yes"/>
      <point x="853.949045612412" y="197.08838936363688" type="line"/>
      <point x="713.6965171333969" y="738.6227997704947" type="line" smooth="yes"/>
      <point x="701.7040896580907" y="761.2916735584196"/>
      <point x="665.8832950892006" y="776.6590390798143"/>
      <point x="614.0" y="776.0" type="curve" smooth="yes"/>
      <point x="562.1167049107994" y="776.6590390798143"/>
      <point x="526.2959103419093" y="761.2916735584196"/>
      <point x="514.3034828666031" y="738.6227997704947" type="curve" smooth="yes"/>
      <point x="374.05095438758804" y="197.08838936363688" type="line"/>
      <point x="230.30422964653835" y="879.7829024274166" type="line" smooth="yes"/>
      <point x="216.76501978469665" y="923.2369171992414"/>
      <point x="173.0" y="927.0"/>
      <point x="112.94517368888575" y="916.2671327142106" type="curve" smooth="yes"/>
      <point x="50.372446517001094" y="906.4780193260012"/>
      <point x="24.0" y="896.0"/>
      <point x="36.760708135272424" y="852.3617489479848" type="curve" smooth="yes"/>
      <point x="235.7607081352724" y="46.36174894798473" type="line" smooth="yes"/>
      <point x="249.5323042887103" y="2.026615348343041"/>
      <point x="285.5249329649239" y="-8.441098943644105"/>
      <point x="343.0" y="-8.0" type="curve" smooth="yes"/>
      <point x="405.54741115222254" y="-8.322374932374325"/>
      <point x="451.37699698273826" y="4.968939703624315"/>
      <point x="469.6921878796934" y="47.3842759841529" type="curve" smooth="yes"/>
      <point x="614.0" y="569.0" type="line"/>
      <point x="758.3078121203066" y="47.3842759841529" type="line" smooth="yes"/>
      <point x="776.6230030172618" y="4.968939703624315"/>
      <point x="822.4525888477774" y="-8.322374932374325"/>
      <point x="885.0" y="-8.0" type="curve" smooth="yes"/>
      <point x="942.4750670350761" y="-8.441098943644105"/>
      <point x="978.4676957112897" y="2.026615348343041"/>
      <point x="992.2392918647275" y="46.36174894798473" type="curve" smooth="yes"/>
      <point x="1191.2392918647276" y="852.3617489479848" type="line" smooth="yes"/>
      <point x="1204.0" y="896.0"/>
      <point x="1177.627553482999" y="906.4780193260012"/>
      <point x="1115.0548263111143" y="916.2671327142106" type="curve" smooth="yes"/>
      <point x="1055.0" y="927.0"/>
      <point x="1011.2349802153034" y="923.2369171992414"/>
    </contour>
  </outline>
</glyph>
<glyph name="x" format="2">
  <advance width="1228"/>
  <unicode hex="0078"/>
  <outline>
    <contour>
      <point x="886.2946103849271" y="899.8668030621006" type="curve" smooth="yes"/>
      <point x="620.0" y="562.7216796875" type="line"/>
      <point x="353.70538961507293" y="899.8668030621006" type="line" smooth="yes"/>
      <point x="317.07841707761094" y="933.2299873419973"/>
      <point x="268.32056993507547" y="933.4698724325888"/>
      <point x="213.2595179323144" y="911.2503718112613" type="curve" smooth="yes"/>
      <point x="160.80877439878742" y="892.4970766667149"/>
      <point x="139.9591146759257" y="875.7674635159524"/>
      <point x="177.33575098546913" y="844.1588700577045" type="curve" smooth="yes"/>
      <point x="485.7750650402459" y="470.8588218921599" type="line"/>
      <point x="164.2486247891208" y="79.89564910350038" type="line" smooth="yes"/>
      <point x="127.95911467592569" y="48.23253648404764"/>
      <point x="147.64382959044733" y="31.423972169050863"/>
      <point x="200.2595179323144" y="12.749628188738674" type="curve" smooth="yes"/>
      <point x="255.32056993507547" y="-9.469872432588742"/>
      <point x="304.07841707761094" y="-9.229987341997328"/>
      <point x="340.8061040728162" y="24.069812675068846" type="curve" smooth="yes"/>
      <point x="620.0" y="381.03363037109375" type="line"/>
      <point x="899.1938959271838" y="24.069812675068846" type="line" smooth="yes"/>
      <point x="935.921582922389" y="-9.229987341997328"/>
      <point x="984.6794300649245" y="-9.469872432588742"/>
      <point x="1039.7404820676857" y="12.749628188738674" type="curve" smooth="yes"/>
      <point x="1092.3561704095528" y="31.423972169050863"/>
      <point x="1112.0408853240742" y="48.23253648404764"/>
      <point x="1075.7513752108791" y="79.89564910350038" type="curve" smooth="yes"/>
      <point x="754.224934959754" y="470.8588218921599" type="line"/>
      <point x="1062.664249014531" y="844.1588700577045" type="line" smooth="yes"/>
      <point x="1100.0408853240742" y="875.7674635159524"/>
      <point x="1079.1912256012126" y="892.4970766667149"/>
      <point x="1026.7404820676857" y="911.2503718112613" type="curve" smooth="yes"/>
      <point x="971.6794300649245" y="933.4698724325888"/>
      <point x="922.921582922389" y="933.2299873419973"/>
    </contour>
  </outline>
</glyph>
<glyph name="y" format="2">
  <advance width="1228"/>
  <unicode hex="0079"/>
  <outline>
    <contour>
      <point x="930.7065189008146" y="887.7805072716733" type="curve" smooth="yes"/>
      <point x="615.0" y="197.0" type="line"/>
      <point x="297.2551069659978" y="887.7390096630006" type="line" smooth="yes"/>
      <point x="271.6603857440322" y="927.8387255778548"/>
      <point x="224.5595451880656" y="932.205687714405"/>
      <point x="166.86936023824586" y="911.1064584850402" type="curve" smooth="yes"/>
      <point x="109.7075358604488" y="890.6776948197554"/>
      <point x="85.17301086313684" y="877.6123872816771"/>
      <point x="109.77131314976305" y="839.2893623224367" type="curve" smooth="yes"/>
      <point x="504.3393750882861" y="45.80287686849708" type="line"/>
      <point x="335.776646765842" y="-303.295070563034" type="line" smooth="yes"/>
      <point x="311.2688244259908" y="-342.0080070124645"/>
      <point x="333.4" y="-354.8"/>
      <point x="390.86936023824586" y="-375.10645848504015" type="curve" smooth="yes"/>
      <point x="448.50132388335413" y="-396.2111584117008"/>
      <point x="494.848043419597" y="-391.9568086194736"/>
      <point x="520.2400209793706" y="-351.722789496097" type="curve" smooth="yes"/>
      <point x="1117.2400209793705" y="839.277210503903" type="line" smooth="yes"/>
      <point x="1141.7816106908417" y="877.8107485769488"/>
      <point x="1118.4451187256386" y="890.7379342625552"/>
      <point x="1061.130639761754" y="911.1064584850402" type="curve" smooth="yes"/>
      <point x="1003.3836994488519" y="932.2004254036144"/>
      <point x="955.3396142559678" y="927.8387255778548"/>
    </contour>
  </outline>
</glyph>
<glyph name="z" format="2">
  <advance width="1228"/>
  <unicode hex="007A"/>
  <outline>
    <contour>
      <point x="261.0" y="910.0" type="line" smooth="yes"/>
      <point x="208.13294255690218" y="910.6562602599764"/>
      <point x="172.77629499622137" y="900.6045012494914"/>
      <point x="172.0" y="852.0" type="curve" smooth="yes"/>
      <point x="172.77629499622137" y="803.3954987505086"/>
      <point x="208.13294255690218" y="793.3437397400236"/>
      <point x="261.0" y="794.0" type="curve" smooth="yes"/>
      <point x="769.8965582823847" y="778.5594118848029" type="line"/>
      <point x="172.7247375444761" y="103.60443620787076" type="line" smooth="yes"/>
      <point x="159.10775140202344" y="95.36260247750975"/>
      <point x="152.17808428760523" y="85.36422253405644"/>
      <point x="152.0" y="68.0" type="curve" smooth="yes"/>
      <point x="152.8656640756007" y="21.582495844427957"/>
      <point x="188.85725067466817" y="13.461335266971524"/>
      <point x="241.0" y="14.0" type="curve" smooth="yes"/>
      <point x="987.0" y="14.0" type="line" smooth="yes"/>
      <point x="1039.8670574430978" y="13.343739740023597"/>
      <point x="1075.2237050037786" y="23.39549875050866"/>
      <point x="1076.0" y="72.0" type="curve" smooth="yes"/>
      <point x="1075.2237050037786" y="120.60450124949134"/>
      <point x="1039.8670574430978" y="130.6562602599764"/>
      <point x="987.0" y="130.0" type="curve" smooth="yes"/>
      <point x="448.1981378986172" y="144.7975017170916" type="line"/>
      <point x="1044.2779353965732" y="819.39397362389" type="line" smooth="yes"/>
      <point x="1056.2948160685262" y="827.2029405759854"/>
      <point x="1065.6462420196358" y="837.301585822275"/>
      <point x="1066.0" y="856.0" type="curve" smooth="yes"/>
      <point x="1065.1343359243992" y="902.417504155572"/>
      <point x="1029.1427493253318" y="910.5386647330284"/>
      <point x="977.0" y="910.0" type="curve" smooth="yes"/>
    </contour>
  </outline>
</glyph>
<glyph name="braceleft" format="2">
  <advance width="1228"/>
  <unicode hex="007B"/>
  <outline>
    <contour>
      <point x="479.05921388077195" y="959.9443233083489" type="curve" smooth="yes"/>
      <point x="484.05664109117157" y="885.923603368655" type="line" smooth="yes"/>
      <point x="495.7546076839548" y="713.6515585417915"/>
      <point x="433.97547935409426" y="599.8703904508161"/>
      <point x="240.0" y="599.0" type="curve" smooth="yes"/>
      <point x="187.13294255690218" y="599.6562602599764"/>
      <point x="151.77629499622137" y="589.6045012494914"/>
      <point x="151.0" y="541.0" type="curve" smooth="yes"/>
      <point x="151.77629499622137" y="492.39549875050864"/>
      <point x="187.13294255690218" y="482.3437397400236"/>
      <point x="240.0" y="483.0" type="curve" smooth="yes"/>
      <point x="445.08509578230326" y="482.3355334089729"/>
      <point x="505.6999125252598" y="379.226529374309"/>
      <point x="490.09972461653996" y="201.77498697510663" type="curve" smooth="yes"/>
      <point x="479.10261447692915" y="78.75739886675288" type="line" smooth="yes"/>
      <point x="455.4310694415918" y="-196.4193519297883"/>
      <point x="640.6364985065173" y="-319.57319570331754"/>
      <point x="927.0" y="-319.0" type="curve" smooth="yes"/>
      <point x="979.8670574430978" y="-319.6562602599764"/>
      <point x="1015.2237050037786" y="-309.60450124949136"/>
      <point x="1016.0" y="-261.0" type="curve" smooth="yes"/>
      <point x="1015.2237050037786" y="-212.39549875050866"/>
      <point x="979.8670574430978" y="-202.3437397400236"/>
      <point x="927.0" y="-203.0" type="curve" smooth="yes"/>
      <point x="732.3505360527668" y="-202.42886394255464"/>
      <point x="667.2289775007254" y="-108.3841223584329"/>
      <point x="680.9434919826083" y="92.92251894568055" type="curve" smooth="yes"/>
      <point x="688.9411865315676" y="213.9411286984993" type="line" smooth="yes"/>
      <point x="699.4877556692501" y="371.2346809291112"/>
      <point x="623.1789251140235" y="469.2650206677384"/>
      <point x="433.660291940539" y="522.7994603320541" type="curve"/>
      <point x="435.95704338540196" y="558.6960872722768" type="line"/>
      <point x="609.9694101258773" y="626.4467951804615"/>
      <point x="690.2687769233605" y="718.2969025512432"/>
      <point x="683.9758808089239" y="874.3971115196867" type="curve" smooth="yes"/>
      <point x="680.9781268755237" y="946.4258565529807" type="line" smooth="yes"/>
      <point x="672.4268286037374" y="1145.9234240387543"/>
      <point x="722.5525216942161" y="1241.3963280729988"/>
      <point x="927.0" y="1242.0" type="curve" smooth="yes"/>
      <point x="979.8670574430978" y="1241.3437397400237"/>
      <point x="1015.2237050037786" y="1251.3954987505088"/>
      <point x="1016.0" y="1300.0" type="curve" smooth="yes"/>
      <point x="1015.2237050037786" y="1348.6045012494912"/>
      <point x="979.8670574430978" y="1358.6562602599763"/>
      <point x="927.0" y="1358.0" type="curve" smooth="yes"/>
      <point x="640.5445016733712" y="1358.5879234648582"/>
      <point x="461.4310694415918" y="1235.4193519297883"/>
    </contour>
  </outline>
</glyph>
<glyph name="bar" format="2">
  <advance width="1228"/>
  <unicode hex="007C"/>
  <outline>
    <contour>
      <point x="513.0" y="1329.0" type="curve" smooth="yes"/>
      <point x="513.0" y="-290.0" type="line" smooth="yes"/>
      <point x="514.0443044124382" y="-332.07206211462045"/>
      <point x="551.6150339457809" y="-341.42871587665957"/>
      <point x="614.0" y="-341.0" type="curve" smooth="yes"/>
      <point x="676.3849660542191" y="-341.42871587665957"/>
      <point x="713.9556955875618" y="-332.07206211462045"/>
      <point x="715.0" y="-290.0" type="curve" smooth="yes"/>
      <point x="715.0" y="1329.0" type="line" smooth="yes"/>
      <point x="713.9556955875618" y="1371.0720621146204"/>
      <point x="676.3849660542191" y="1380.4287158766597"/>
      <point x="614.0" y="1380.0" type="curve" smooth="yes"/>
      <point x="551.6150339457809" y="1380.4287158766597"/>
      <point x="514.0443044124382" y="1371.0720621146204"/>
    </contour>
  </outline>
</glyph>
<glyph name="asciitilde" format="2">
  <advance width="1228"/>
  <unicode hex="007E"/>
  <outline>
    <contour>
      <point x="134.80129942935505" y="560.7114960602948" type="curve" smooth="yes"/>
      <point x="116.15902289848592" y="541.4539586349522"/>
      <point x="130.3917762832804" y="522.5359506518957"/>
      <point x="166.4529765391757" y="502.22133771886007" type="curve" smooth="yes"/>
      <point x="205.17909735772497" y="480.16966932955046"/>
      <point x="255.18661097938312" y="481.366886289729"/>
      <point x="282.9530353553644" y="501.97595163990104" type="curve" smooth="yes"/>
      <point x="326.12111980458144" y="558.5360737258962"/>
      <point x="365.6848805323273" y="590.5293470720577"/>
      <point x="418.0" y="591.0" type="curve" smooth="yes"/>
      <point x="526.8873301939328" y="588.7581131492337"/>
      <point x="634.4668618324903" y="441.26605985936635"/>
      <point x="810.0" y="443.0" type="curve" smooth="yes"/>
      <point x="925.4418154862958" y="442.2415099099422"/>
      <point x="1030.1136631491904" y="507.49080095570116"/>
      <point x="1093.1987005706449" y="603.2885039397052" type="curve" smooth="yes"/>
      <point x="1111.840977101514" y="622.5460413650478"/>
      <point x="1097.6082237167195" y="641.4640493481043"/>
      <point x="1061.5470234608242" y="661.7786622811399" type="curve" smooth="yes"/>
      <point x="1022.8209026422751" y="683.8303306704495"/>
      <point x="972.8133890206169" y="682.633113710271"/>
      <point x="945.0469646446356" y="662.024048360099" type="curve" smooth="yes"/>
      <point x="901.8788801954186" y="605.4639262741038"/>
      <point x="862.3151194676727" y="573.4706529279423"/>
      <point x="810.0" y="573.0" type="curve" smooth="yes"/>
      <point x="700.1126698060672" y="575.2418868507663"/>
      <point x="593.5689902216884" y="722.7445812599337"/>
      <point x="418.0" y="721.0" type="curve" smooth="yes"/>
      <point x="302.55818451370425" y="721.7584900900578"/>
      <point x="197.8863368508096" y="656.5091990442988"/>
    </contour>
  </outline>
</glyph>
<glyph name="cent" format="2">
  <advance width="1228"/>
  <unicode hex="00A2"/>
  <outline>
    <contour>
      <point x="548.0" y="1247.0" type="curve" smooth="yes"/>
      <point x="548.0" y="-60.0" type="line" smooth="yes"/>
      <point x="549.2591658851991" y="-101.69597323683344"/>
      <point x="588.1892835764611" y="-111.4888621557325"/>
      <point x="644.0" y="-111.0" type="curve" smooth="yes"/>
      <point x="699.8107164235389" y="-111.4888621557325"/>
      <point x="738.7408341148009" y="-101.69597323683344"/>
      <point x="740.0" y="-60.0" type="curve" smooth="yes"/>
      <point x="740.0" y="1247.0" type="line" smooth="yes"/>
      <point x="738.7408341148009" y="1288.6959732368334"/>
      <point x="699.8107164235389" y="1298.4888621557325"/>
      <point x="644.0" y="1298.0" type="curve" smooth="yes"/>
      <point x="588.1892835764611" y="1298.4888621557325"/>
      <point x="549.2591658851991" y="1288.6959732368334"/>
    </contour>
    <component base="c" yOffset="140"/>
  </outline>
</glyph>
<glyph name="sterling" format="2">
  <advance width="1228"/>
  <unicode hex="00A3"/>
  <outline>
    <contour>
      <point x="264.0" y="884.0" type="curve" smooth="yes"/>
      <point x="264.6896067437562" y="796.6544856840407"/>
      <point x="305.41485025264484" y="726.5026148877956"/>
      <point x="343.0252571524523" y="640.52466753017" type="curve"/>
      <point x="283.0" y="634.0" type="line" smooth="yes"/>
      <point x="230.13294255690218" y="634.6562602599764"/>
      <point x="194.77629499622137" y="624.6045012494914"/>
      <point x="194.0" y="576.0" type="curve" smooth="yes"/>
      <point x="194.77629499622137" y="527.3954987505086"/>
      <point x="230.13294255690218" y="517.3437397400236"/>
      <point x="283.0" y="518.0" type="curve" smooth="yes"/>
      <point x="419.1670551039723" y="517.878713631322" type="line"/>
      <point x="401.00975092354787" y="487.26133579656573"/>
      <point x="403.04452510188526" y="466.19806843509195"/>
      <point x="403.0" y="445.0" type="curve" smooth="yes"/>
      <point x="403.5256278871186" y="338.1991528043429"/>
      <point x="369.38422802412526" y="245.4693357341208"/>
      <point x="254.68579786869194" y="128.06264890271626" type="curve" smooth="yes"/>
      <point x="238.00783082129465" y="115.73976774920766"/>
      <point x="228.37803699064696" y="109.62130316889295"/>
      <point x="228.0" y="95.0" type="curve" smooth="yes"/>
      <point x="228.73005278273405" y="56.294300811319694"/>
      <point x="258.7878393714577" y="9.991577238880957"/>
      <point x="308.0" y="14.0" type="curve" smooth="yes"/>
      <point x="915.0" y="14.0" type="line" smooth="yes"/>
      <point x="967.8670574430978" y="13.343739740023597"/>
      <point x="1003.2237050037786" y="23.39549875050866"/>
      <point x="1004.0" y="72.0" type="curve" smooth="yes"/>
      <point x="1003.2237050037786" y="120.60450124949134"/>
      <point x="967.8670574430978" y="130.6562602599764"/>
      <point x="915.0" y="130.0" type="curve" smooth="yes"/>
      <point x="462.148551742678" y="130.3971004087575" type="line"/>
      <point x="558.7891569543283" y="243.63842641628096"/>
      <point x="606.4474255241934" y="338.8709915976013"/>
      <point x="607.0" y="446.0" type="curve" smooth="yes"/>
      <point x="606.9840176121539" y="465.8579482298364"/>
      <point x="605.4720279161548" y="484.19299366503355"/>
      <point x="579.1319981648919" y="517.9575706764349" type="curve"/>
      <point x="815.0" y="518.0" type="line" smooth="yes"/>
      <point x="867.8670574430978" y="517.3437397400236"/>
      <point x="903.2237050037786" y="527.3954987505086"/>
      <point x="904.0" y="576.0" type="curve" smooth="yes"/>
      <point x="903.2237050037786" y="624.6045012494914"/>
      <point x="867.8670574430978" y="634.6562602599764"/>
      <point x="815.0" y="634.0" type="curve" smooth="yes"/>
      <point x="539.1119317312432" y="634.4601768492591" type="line"/>
      <point x="515.5893775104439" y="725.6206313026269"/>
      <point x="468.7317743488865" y="796.4747870534119"/>
      <point x="470.0" y="884.0" type="curve" smooth="yes"/>
      <point x="468.2244080451341" y="987.0849148569316"/>
      <point x="523.3048377154767" y="1073.853453859324"/>
      <point x="627.0" y="1075.0" type="curve" smooth="yes"/>
      <point x="706.8549443147491" y="1074.8209401102893"/>
      <point x="776.5660970608052" y="1047.573576904965"/>
      <point x="841.6812196292099" y="1001.6856392689501" type="curve" smooth="yes"/>
      <point x="877.1508156779455" y="984.3467911549104"/>
      <point x="932.9764301738061" y="981.603739462408"/>
      <point x="965.8339193388389" y="1027.6953990445186" type="curve" smooth="yes"/>
      <point x="996.4181447532122" y="1074.9452378049"/>
      <point x="979.1342063058075" y="1090.5212085685077"/>
      <point x="938.8290063441547" y="1110.144566423584" type="curve" smooth="yes"/>
      <point x="850.0158128314367" y="1163.3186663956405"/>
      <point x="743.0175126390972" y="1195.1681441306607"/>
      <point x="628.0" y="1195.0" type="curve" smooth="yes"/>
      <point x="413.05048456675775" y="1196.0656299367852"/>
      <point x="265.9369587116016" y="1063.6975878249707"/>
    </contour>
  </outline>
</glyph>
<glyph name="currency" format="2">
  <advance width="1228"/>
  <unicode hex="00A4"/>
  <outline>
    <contour>
      <point x="178.0" y="602.0" type="curve" smooth="yes"/>
      <point x="178.29976135217467" y="513.8370248321957"/>
      <point x="206.87259826219915" y="437.14480444626844"/>
      <point x="252.2434195564928" y="359.91975039388944" type="curve"/>
      <point x="115.61522368914976" y="214.10050506338834" type="line" smooth="yes"/>
      <point x="78.98366963860622" y="185.48820901118324"/>
      <point x="80.6437766601409" y="172.1475425581761"/>
      <point x="121.61522368914976" y="137.89949493661166" type="curve" smooth="yes"/>
      <point x="163.72599239195867" y="103.03796641377028"/>
      <point x="216.09332612208826" y="102.39340865613512"/>
      <point x="254.38477631085024" y="131.89949493661166" type="curve" smooth="yes"/>
      <point x="390.69334984798996" y="278.0556888879205" type="line"/>
      <point x="434.1139496542338" y="235.1083518580056"/>
      <point x="521.6327263351069" y="211.85628995781548"/>
      <point x="614.0" y="212.0" type="curve" smooth="yes"/>
      <point x="706.3672743222595" y="211.85628990670375"/>
      <point x="793.8860217080139" y="235.10835139019326"/>
      <point x="837.3066209699062" y="278.05568923332845" type="curve"/>
      <point x="973.615225288191" y="131.89949579763382" type="line" smooth="yes"/>
      <point x="1011.9066738779118" y="102.39340865613512"/>
      <point x="1064.2740076080413" y="103.03796641377028"/>
      <point x="1106.3847763108502" y="137.89949493661166" type="curve" smooth="yes"/>
      <point x="1147.356223339859" y="172.1475425581761"/>
      <point x="1149.0163303613938" y="185.48820901118324"/>
      <point x="1112.3847763108502" y="214.10050506338834" type="curve" smooth="yes"/>
      <point x="975.7565811079478" y="359.91975116360175" type="line"/>
      <point x="1021.1274169965899" y="437.14480444626844"/>
      <point x="1049.7002389909785" y="513.8370236259219"/>
      <point x="1050.0" y="602.0" type="curve" smooth="yes"/>
      <point x="1049.7002390961054" y="690.1629462260493"/>
      <point x="1021.1274179483642" y="766.8552271123862"/>
      <point x="975.7565804902606" y="844.0802495519497" type="curve"/>
      <point x="1112.3847763108502" y="989.8994949366116" type="line" smooth="yes"/>
      <point x="1149.0163303613938" y="1018.5117909888168"/>
      <point x="1147.356223339859" y="1031.8524574418238"/>
      <point x="1106.3847763108502" y="1066.1005050633883" type="curve" smooth="yes"/>
      <point x="1064.2740076080413" y="1100.9620335862296"/>
      <point x="1011.9066738779118" y="1101.606591343865"/>
      <point x="973.6152236891497" y="1072.1005050633883" type="curve" smooth="yes"/>
      <point x="837.3066209699062" y="925.9442802490934" type="line"/>
      <point x="793.8860257754264" y="968.891649622021"/>
      <point x="706.3672743222595" y="992.1437100932962"/>
      <point x="614.0" y="992.0" type="curve" smooth="yes"/>
      <point x="521.6327263351069" y="992.1437100421846"/>
      <point x="434.11394558682167" y="968.8916491542083"/>
      <point x="390.69334984798996" y="925.9442805945014" type="curve"/>
      <point x="254.38477790989137" y="1072.1005059244105" type="line" smooth="yes"/>
      <point x="216.09332612208826" y="1101.606591343865"/>
      <point x="163.72599239195867" y="1100.9620335862296"/>
      <point x="121.61522368914976" y="1066.1005050633883" type="curve" smooth="yes"/>
      <point x="80.6437766601409" y="1031.8524574418238"/>
      <point x="78.98366963860622" y="1018.5117909888168"/>
      <point x="115.61522368914976" y="989.8994949366116" type="curve" smooth="yes"/>
      <point x="252.24342017418007" y="844.080250321662" type="line"/>
      <point x="206.87259731042488" y="766.8552271123862"/>
      <point x="178.2997612470475" y="690.1629450197757"/>
    </contour>
    <contour>
      <point x="850.0" y="602.0" type="curve" smooth="yes"/>
      <point x="851.8659639951491" y="444.79197989912933"/>
      <point x="760.9350666576292" y="327.09154702803636"/>
      <point x="614.0" y="326.0" type="curve" smooth="yes"/>
      <point x="467.06493334237075" y="327.09154702803636"/>
      <point x="376.13403600485094" y="444.79197989912933"/>
      <point x="378.0" y="602.0" type="curve" smooth="yes"/>
      <point x="376.13403600485094" y="759.2080201008706"/>
      <point x="467.06493334237075" y="876.9084529719636"/>
      <point x="614.0" y="878.0" type="curve" smooth="yes"/>
      <point x="760.9350666576292" y="876.9084529719636"/>
      <point x="851.8659639951491" y="759.2080201008706"/>
    </contour>
  </outline>
</glyph>
<glyph name="yen" format="2">
  <advance width="1228"/>
  <unicode hex="00A5"/>
  <outline>
    <contour>
      <point x="233.0" y="420.0" type="line" smooth="yes"/>
      <point x="180.13294255690218" y="420.6562602599764"/>
      <point x="144.77629499622137" y="410.60450124949136"/>
      <point x="144.0" y="362.0" type="curve" smooth="yes"/>
      <point x="144.77629499622137" y="313.39549875050864"/>
      <point x="180.13294255690218" y="303.3437397400236"/>
      <point x="233.0" y="304.0" type="curve" smooth="yes"/>
      <point x="523.1638085239388" y="301.1034769694675" type="line"/>
      <point x="513.0" y="55.0" type="line" smooth="yes"/>
      <point x="513.943019431198" y="12.736307161738532"/>
      <point x="550.5340535687596" y="3.560162961062849"/>
      <point x="613.0" y="4.0" type="curve" smooth="yes"/>
      <point x="615.0" y="4.0" type="line" smooth="yes"/>
      <point x="677.4659464312404" y="3.560162961062849"/>
      <point x="714.056980568802" y="12.736307161738532"/>
      <point x="715.0" y="55.0" type="curve" smooth="yes"/>
      <point x="704.8361914760612" y="301.1034769694675" type="line"/>
      <point x="995.0" y="304.0" type="line" smooth="yes"/>
      <point x="1047.8670574430978" y="303.3437397400236"/>
      <point x="1083.2237050037786" y="313.39549875050864"/>
      <point x="1084.0" y="362.0" type="curve" smooth="yes"/>
      <point x="1083.2237050037786" y="410.60450124949136"/>
      <point x="1047.8670574430978" y="420.6562602599764"/>
      <point x="995.0" y="420.0" type="curve" smooth="yes"/>
      <point x="693.4740308432702" y="420.20883368387814" type="line"/>
      <point x="712.7583192275833" y="493.1401317565972" type="line"/>
      <point x="771.2771960861877" y="613.2335574977169" type="line"/>
      <point x="1015.0" y="614.0" type="line" smooth="yes"/>
      <point x="1067.8670574430978" y="613.3437397400236"/>
      <point x="1103.2237050037786" y="623.3954987505086"/>
      <point x="1104.0" y="672.0" type="curve" smooth="yes"/>
      <point x="1103.2237050037786" y="720.6045012494914"/>
      <point x="1067.8670574430978" y="730.6562602599764"/>
      <point x="1015.0" y="730.0" type="curve" smooth="yes"/>
      <point x="882.6658135813638" y="746.8429170147745" type="line"/>
      <point x="1109.748882171465" y="1103.671633791529" type="line" smooth="yes"/>
      <point x="1139.013662246242" y="1139.8195374038464"/>
      <point x="1124.0027949034304" y="1152.408515391981"/>
      <point x="1065.8808295746153" y="1174.2849225592875" type="curve" smooth="yes"/>
      <point x="1010.8463471741677" y="1196.3585232602754"/>
      <point x="961.2678350441275" y="1193.8537292822766"/>
      <point x="933.1909021136421" y="1164.3780916754679" type="curve" smooth="yes"/>
      <point x="614.1995849609375" y="632.019775390625" type="line"/>
      <point x="294.81980205252114" y="1164.386979511852" type="line" smooth="yes"/>
      <point x="267.7321649558725" y="1193.8537292822766"/>
      <point x="217.22398266643668" y="1196.3498393783739"/>
      <point x="162.11917042538465" y="1174.2849225592875" type="curve" smooth="yes"/>
      <point x="103.99720509656969" y="1152.408515391981"/>
      <point x="88.98633775375801" y="1139.8195374038464"/>
      <point x="118.24427210277724" y="1103.6660038267164" type="curve" smooth="yes"/>
      <point x="345.0649908619956" y="746.8429170147745" type="line"/>
      <point x="213.0" y="730.0" type="line" smooth="yes"/>
      <point x="160.13294255690218" y="730.6562602599764"/>
      <point x="124.77629499622137" y="720.6045012494914"/>
      <point x="124.0" y="672.0" type="curve" smooth="yes"/>
      <point x="124.77629499622137" y="623.3954987505086"/>
      <point x="160.13294255690218" y="613.3437397400236"/>
      <point x="213.0" y="614.0" type="curve" smooth="yes"/>
      <point x="456.29571370690127" y="613.2246403169646" type="line"/>
      <point x="515.2618555554802" y="492.4539049917706" type="line"/>
      <point x="534.5837192248432" y="420.2034377960043" type="line"/>
    </contour>
  </outline>
</glyph>
<glyph name="brokenbar" format="2">
  <advance width="1228"/>
  <unicode hex="00A6"/>
  <outline>
    <contour>
      <point x="513.0" y="1329.0" type="curve" smooth="yes"/>
      <point x="513.0" y="730.0" type="line" smooth="yes"/>
      <point x="514.0443044124382" y="687.9279378853795"/>
      <point x="551.6150339457809" y="678.5712841233404"/>
      <point x="614.0" y="679.0" type="curve" smooth="yes"/>
      <point x="676.3849660542191" y="678.5712841233404"/>
      <point x="713.9556955875618" y="687.9279378853795"/>
      <point x="715.0" y="730.0" type="curve" smooth="yes"/>
      <point x="715.0" y="1329.0" type="line" smooth="yes"/>
      <point x="713.9556955875618" y="1371.0720621146204"/>
      <point x="676.3849660542191" y="1380.4287158766597"/>
      <point x="614.0" y="1380.0" type="curve" smooth="yes"/>
      <point x="551.6150339457809" y="1380.4287158766597"/>
      <point x="514.0443044124382" y="1371.0720621146204"/>
    </contour>
    <contour>
      <point x="513.0" y="309.0" type="curve" smooth="yes"/>
      <point x="513.0" y="-290.0" type="line" smooth="yes"/>
      <point x="514.0443044124382" y="-332.07206211462045"/>
      <point x="551.6150339457809" y="-341.42871587665957"/>
      <point x="614.0" y="-341.0" type="curve" smooth="yes"/>
      <point x="676.3849660542191" y="-341.42871587665957"/>
      <point x="713.9556955875618" y="-332.07206211462045"/>
      <point x="715.0" y="-290.0" type="curve" smooth="yes"/>
      <point x="715.0" y="309.0" type="line" smooth="yes"/>
      <point x="713.9556955875618" y="351.07206211462045"/>
      <point x="676.3849660542191" y="360.42871587665957"/>
      <point x="614.0" y="360.0" type="curve" smooth="yes"/>
      <point x="551.6150339457809" y="360.42871587665957"/>
      <point x="514.0443044124382" y="351.07206211462045"/>
    </contour>
  </outline>
</glyph>
<glyph name="section" format="2">
  <advance width="1228"/>
  <unicode hex="00A7"/>
  <outline>
    <contour>
      <point x="569.0" y="1173.0" type="line" smooth="yes"/>
      <point x="380.1146803597457" y="1173.842892071162"/>
      <point x="269.82502806014696" y="1081.8473216858968"/>
      <point x="268.0" y="947.0" type="curve" smooth="yes"/>
      <point x="268.106697696747" y="905.4894449283698"/>
      <point x="276.30968253855417" y="871.0276094175912"/>
      <point x="293.21382179152926" y="826.4113767826681" type="curve"/>
      <point x="220.16966280296842" y="768.4771944070201"/>
      <point x="168.05315811830556" y="711.695925976306"/>
      <point x="167.0" y="624.0" type="curve" smooth="yes"/>
      <point x="167.82090261884537" y="508.49017191421945"/>
      <point x="227.26804008259575" y="432.2389505393513"/>
      <point x="342.30963885357863" y="364.9019978861756" type="curve" smooth="yes"/>
      <point x="675.3205469997004" y="158.90563382004106" type="line" smooth="yes"/>
      <point x="735.4638844319917" y="118.80359550443211"/>
      <point x="755.081972226757" y="75.9966722124023"/>
      <point x="754.0" y="14.0" type="curve" smooth="yes"/>
      <point x="756.379248230357" y="-55.850678515250024"/>
      <point x="727.5680356230887" y="-99.56484794874248"/>
      <point x="639.0" y="-100.0" type="curve" smooth="yes"/>
      <point x="333.0" y="-100.0" type="line" smooth="yes"/>
      <point x="280.1329425569022" y="-99.3437397400236"/>
      <point x="244.77629499622137" y="-109.39549875050866"/>
      <point x="244.0" y="-158.0" type="curve" smooth="yes"/>
      <point x="244.77629499622137" y="-206.60450124949134"/>
      <point x="280.1329425569022" y="-216.6562602599764"/>
      <point x="333.0" y="-216.0" type="curve" smooth="yes"/>
      <point x="659.0" y="-216.0" type="line" smooth="yes"/>
      <point x="847.8853196402544" y="-216.84289207116188"/>
      <point x="958.1749719398531" y="-124.8473216858967"/>
      <point x="960.0" y="10.0" type="curve" smooth="yes"/>
      <point x="959.8933022020062" y="51.51054302762309"/>
      <point x="951.6903144070341" y="85.97234681969442"/>
      <point x="934.7861522489701" y="130.5886045010541" type="curve"/>
      <point x="1007.8302914705408" y="188.522759790318"/>
      <point x="1059.9468404701538" y="245.3040918710422"/>
      <point x="1061.0" y="333.0" type="curve" smooth="yes"/>
      <point x="1060.1790973811546" y="448.50982808578055"/>
      <point x="1000.7319599174043" y="524.7610494606487"/>
      <point x="885.6903611464214" y="592.0980021138245" type="curve" smooth="yes"/>
      <point x="552.6794530002996" y="798.0943661799589" type="line" smooth="yes"/>
      <point x="492.5361155680083" y="838.1964044955679"/>
      <point x="472.91802777324295" y="881.0033277875976"/>
      <point x="474.0" y="943.0" type="curve" smooth="yes"/>
      <point x="471.62075176964294" y="1012.85067851525"/>
      <point x="500.4319643769113" y="1056.5648479487425"/>
      <point x="589.0" y="1057.0" type="curve" smooth="yes"/>
      <point x="895.0" y="1057.0" type="line" smooth="yes"/>
      <point x="947.8670574430978" y="1056.3437397400237"/>
      <point x="983.2237050037786" y="1066.3954987505088"/>
      <point x="984.0" y="1115.0" type="curve" smooth="yes"/>
      <point x="983.2237050037786" y="1163.6045012494912"/>
      <point x="947.8670574430978" y="1173.6562602599763"/>
      <point x="895.0" y="1173.0" type="curve" smooth="yes"/>
    </contour>
    <contour>
      <point x="823.2440315321543" y="220.2214706171086" type="curve"/>
      <point x="830.0453276480707" y="235.32656321510277"/>
      <point x="811.9526857500666" y="246.42796516885159"/>
      <point x="793.6757555511837" y="257.0931346453145" type="curve" smooth="yes"/>
      <point x="460.70043139040354" y="463.10136231602667" type="line" smooth="yes"/>
      <point x="397.28551147258986" y="506.54204145997153"/>
      <point x="371.8452283641688" y="559.8740131185313"/>
      <point x="373.0" y="624.0" type="curve" smooth="yes"/>
      <point x="372.1989294039044" y="672.2297949908354"/>
      <point x="384.83894944791933" y="708.1368995103068"/>
      <point x="404.75597604172305" y="736.7785436159247" type="curve"/>
      <point x="397.95469959003157" y="721.6734506976757"/>
      <point x="416.04726810387046" y="710.5720598162458"/>
      <point x="434.3242439177139" y="699.9068651778207" type="curve" smooth="yes"/>
      <point x="767.2995686095965" y="493.89863768397333" type="line" smooth="yes"/>
      <point x="830.7144885274101" y="450.45795854002847"/>
      <point x="856.1547716358311" y="397.12598688146875"/>
      <point x="855.0" y="333.0" type="curve" smooth="yes"/>
      <point x="855.8010681326334" y="284.770210228524"/>
      <point x="843.1610835688517" y="248.86309906529348"/>
    </contour>
  </outline>
</glyph>
<glyph name="dieresis" format="2">
  <advance width="1228"/>
  <unicode hex="00A8"/>
  <outline>
    <contour>
      <point x="525.0" y="1298.0" type="line" smooth="yes"/>
      <point x="523.9556955875618" y="1340.0720621146204"/>
      <point x="485.0990195135928" y="1349.2718705403272"/>
      <point x="404.0" y="1349.0" type="curve" smooth="yes"/>
      <point x="322.9009804864072" y="1349.2718705403272"/>
      <point x="284.04430441243824" y="1340.0720621146204"/>
      <point x="283.0" y="1298.0" type="curve" smooth="yes"/>
      <point x="283.0" y="1168.0" type="line" smooth="yes"/>
      <point x="284.04430441243824" y="1125.9279378853796"/>
      <point x="322.9009804864072" y="1116.7281294596728"/>
      <point x="404.0" y="1117.0" type="curve" smooth="yes"/>
      <point x="485.0990195135928" y="1116.7281294596728"/>
      <point x="523.9556955875618" y="1125.9279378853796"/>
      <point x="525.0" y="1168.0" type="curve" smooth="yes"/>
    </contour>
    <contour>
      <point x="945.0" y="1298.0" type="line" smooth="yes"/>
      <point x="943.9556955875618" y="1340.0720621146204"/>
      <point x="905.0990195135928" y="1349.2718705403272"/>
      <point x="824.0" y="1349.0" type="curve" smooth="yes"/>
      <point x="742.9009804864072" y="1349.2718705403272"/>
      <point x="704.0443044124382" y="1340.0720621146204"/>
      <point x="703.0" y="1298.0" type="curve" smooth="yes"/>
      <point x="703.0" y="1168.0" type="line" smooth="yes"/>
      <point x="704.0443044124382" y="1125.9279378853796"/>
      <point x="742.9009804864072" y="1116.7281294596728"/>
      <point x="824.0" y="1117.0" type="curve" smooth="yes"/>
      <point x="905.0990195135928" y="1116.7281294596728"/>
      <point x="943.9556955875618" y="1125.9279378853796"/>
      <point x="945.0" y="1168.0" type="curve" smooth="yes"/>
    </contour>
  </outline>
</glyph>
<glyph name="copyright" format="2">
  <advance width="1228"/>
  <unicode hex="00A9"/>
  <outline>
    <contour>
      <point x="10.0" y="594.0" type="curve" smooth="yes"/>
      <point x="11.747248505454479" y="256.04558990883027"/>
      <point x="262.8959884403551" y="-9.340988793935423"/>
      <point x="614.0" y="-8.0" type="curve" smooth="yes"/>
      <point x="965.1040115596448" y="-9.340988793935423"/>
      <point x="1216.2527514945455" y="256.04558990883027"/>
      <point x="1218.0" y="594.0" type="curve" smooth="yes"/>
      <point x="1216.2476267880108" y="931.9472737675014"/>
      <point x="965.0707229445769" y="1196.3325381691861"/>
      <point x="614.0" y="1195.0" type="curve" smooth="yes"/>
      <point x="262.92927705542314" y="1196.3325381691861"/>
      <point x="11.752373211989255" y="931.9472737675014"/>
    </contour>
    <contour>
      <point x="1044.0" y="594.0" type="curve" smooth="yes"/>
      <point x="1045.639332312793" y="303.1074651589744"/>
      <point x="874.1241964704238" y="85.28367587311098"/>
      <point x="614.0" y="84.0" type="curve" smooth="yes"/>
      <point x="353.87580352957616" y="85.28367587311098"/>
      <point x="182.36066768720707" y="303.1074651589744"/>
      <point x="184.0" y="594.0" type="curve" smooth="yes"/>
      <point x="182.35465354932418" y="884.9012084454351"/>
      <point x="353.83302247282353" y="1101.72690752052"/>
      <point x="614.0" y="1103.0" type="curve" smooth="yes"/>
      <point x="874.1669775271764" y="1101.72690752052"/>
      <point x="1045.6453464506758" y="884.9012084454351"/>
    </contour>
    <contour>
      <point x="289.0" y="593.0" type="curve" smooth="yes"/>
      <point x="290.7257468995894" y="382.0155209894408"/>
      <point x="437.1854099186048" y="261.96422415799674"/>
      <point x="629.0" y="263.0" type="curve" smooth="yes"/>
      <point x="690.9169513518056" y="262.91161413938045"/>
      <point x="761.1606914185196" y="276.2925108297809"/>
      <point x="819.9269998114357" y="301.7035924381202" type="curve" smooth="yes"/>
      <point x="865.1763252671926" y="317.50998923691856"/>
      <point x="884.9299982575487" y="331.9733597974952"/>
      <point x="867.2966811081532" y="370.01606541371217" type="curve" smooth="yes"/>
      <point x="846.5927954861331" y="407.7968374721437"/>
      <point x="797.5824201708012" y="408.20355837957914"/>
      <point x="758.1971467035665" y="394.2656594197968" type="curve" smooth="yes"/>
      <point x="712.20302913052" y="371.8256902603701"/>
      <point x="677.1904613000211" y="361.0819775170276"/>
      <point x="629.0" y="361.0" type="curve" smooth="yes"/>
      <point x="537.7250248953418" y="362.01622071401687"/>
      <point x="472.40837076010956" y="443.17689215749425"/>
      <point x="474.0" y="593.0" type="curve" smooth="yes"/>
      <point x="472.40837076010956" y="742.8231078425058"/>
      <point x="537.7250248953418" y="823.9837792859831"/>
      <point x="629.0" y="825.0" type="curve" smooth="yes"/>
      <point x="677.1904613000211" y="824.9180224829724"/>
      <point x="712.20302913052" y="814.1743097396298"/>
      <point x="758.1971467035665" y="791.7343405802033" type="curve" smooth="yes"/>
      <point x="797.5824201708012" y="777.7964416204209"/>
      <point x="846.5927954861331" y="778.2031625278563"/>
      <point x="867.2966811081532" y="815.9839345862878" type="curve" smooth="yes"/>
      <point x="884.9299982575487" y="854.0266402025047"/>
      <point x="865.1763252671926" y="868.4900107630814"/>
      <point x="819.9269998114357" y="884.2964075618797" type="curve" smooth="yes"/>
      <point x="761.1606914185196" y="909.7074891702191"/>
      <point x="690.9169513518056" y="923.0883858606195"/>
      <point x="629.0" y="923.0" type="curve" smooth="yes"/>
      <point x="437.1854099186048" y="924.0357758420033"/>
      <point x="290.7257468995894" y="803.9844790105592"/>
    </contour>
  </outline>
</glyph>
